<mxfile host="app.diagrams.net" modified="2021-03-13T02:35:45.836Z" agent="5.0 (Windows NT 10.0; Win64; x64) AppleWebKit/537.36 (KHTML, like Gecko) Chrome/89.0.4389.82 Safari/537.36" etag="kw1_LOk3T8YXYYLvPCTe" version="14.4.7" type="github">
  <diagram id="4PZB_mNSsyVlm_EafZZh" name="第 1 页">
    <mxGraphModel dx="1185" dy="668" grid="1" gridSize="10" guides="1" tooltips="1" connect="1" arrows="1" fold="1" page="1" pageScale="1" pageWidth="827" pageHeight="1169" math="0" shadow="0">
      <root>
        <mxCell id="0" />
        <mxCell id="1" parent="0" />
        <mxCell id="6DF6oKiKQpFTNXZrsH50-1" value="" style="shape=image;verticalLabelPosition=bottom;labelBackgroundColor=#ffffff;verticalAlign=top;aspect=fixed;imageAspect=0;image=data:image/png,iVBORw0KGgoAAAANSUhEUgAAADoAAAA6CAYAAADhu0ooAAAAOXRFWHRTb2Z0d2FyZQBNYXRwbG90bGliIHZlcnNpb24zLjMuNCwgaHR0cHM6Ly9tYXRwbG90bGliLm9yZy8QVMy6AAAACXBIWXMAAC4jAAAuIwF4pT92AAAW8klEQVR4nJ2a2ZIkyXWev+PusWTkUplZa1f3TAPTGA0EDEwgQdrISMr0AHo1XelteKMbUSIESuJAIBbO2t3VW+2Va6zurguPXCq7ZjhUmIVFZGSEu//nHD+7PP0v/9kDIOHy/3XI1v1qGN8+3B53+73t+3/N4R+Y495aHsDhBbP7YPvde+N8HyG2//Jy/1UvYRzx4T1hA3J3nf8SrXfGvXd83/rEY+5T3G8W9i8N8gA1169tv756zcsGrOeHc9R/x/3umh4ab+sV8/4LP1CExYOA1x5U+2VLqHtDeRAv4Fa/hXuvrRa8zeXvAndv/u/57d9/Zt4b+PsovS160gIDpBakFlQtiAv/OQ0u9vjIBWKYFp334GRnr+3cw8P7T20RZWt+aIn5PYfB/QCA64nAt5OJE1Sp0IUQzYV4Cmbh0VXgdNMR6p6i7imarsemHhe7MEbkwqLXRPPvA1th2CbKd0nLLgd3uStgNh8/oB23OLgG2Ai6UJiFEE8gufVkVzXJdYmeFlA3EBlsL6EeJlR9TZ0pbCrY2OA1uAicAa/bU7VzrECvFymIJZwOVBNOsS3IVnpsDDYBm4JLPC7yOMOGmJ4dZbQ63BZJxAeQAlIFgMmt0Ln0ZOcNnbcL1OUd7m6CK0sQheqkmH4PPclIOjE+0jijQAVF543CGcFFCq8Fr1dAZQO4xSzOIw2I9SjrkcaHZzas20WKeqAphppyJFR9wWcg2t/bkff3qL8PEAFUEA8phWgmpJdC762l+yrHvL7BXd/QLJfhE2NQnRTpZpDEoAQpa2RRoKsaGgvWgghoDUaDUnitwrP13O1eXp2AWLf57dqrCL7XQVyfuqMCg2QlJSsbuQK6ElXPZq+sQBIUjc6FeCJ0zj391xXp2QTeXtBM5+Adqt9HDfdwez2aQUKTGVyswIMuHdGsQk1zZJHjrQPXgpVWXat2Muc397uHyIYY3gdCxRG2n1KOI4p9RTmGeuBwqWuJs9nfZleTIh4vfouLiuQGem8d3bOc6OwKd3WNq2pUN0OOD6gfDVk+Ssj3hbov2DjsO1VDNIdkEpPedoinNXrZQOMQ13LIbWHx728jLwJacEqBDmC9FmxqqIaGxZFmeSKURxb6NTpy4ASXG1gBBYw4WdtC33JSrKAKIZ4oOhee3mtL9nKKvL7ATqagNeb4EPvkkPkHGfNTTXEAdc/hEre2qzRCWcOyFszSoAuDLkHVHlWvlItHXFAsYv3DKqPdx16Fe5tAtSfkRx5/UnB0MOU4m2OUZVJ1eDsZsKj0RlOLx4htqaYC2DXIW0X2zjN4UZG+vIN3l7i8QGUZnBySfzhk9kHM8kSoRh7bbe0lgGvVvg7az2aOZiDcM2UumChakHgJvx9yENTm1hmP61o6+zm/PH7HZ6Nv+Tg5R+F4UR3yD9OnXC8yFqt5CPOsfV3fumdSCdFUkZ17Bmc16YtbOL/CNw16f4R9fMDiwx7zRy0XBw7X8RuQD3k1u868ADp4VattslI67wFd+QgtEVzi0L2Go8GcZ70rnsZXZFJyaQe8LMeczUdM5x0oVXBkGkHVYFy0pXgawSyE9Ap6rxvS57f4d5dQ16jRkOaDQ+Y/6jI/VZRjT9P1wfsRv+Hi2rhvxGb1/B7HVgBkR/ncswL3zaqLPdJtGA/nfLx3ybP0goEqmLkOXxXH/H7yiPNJH7s0SBNssMkhmgrGJw5pVFA+jaBLwRQeXTmIDHJyiBt0mJ92mT3W5EdC3Q8AxQfiqGoLiLu/bpRsVP0WGN+aAbbNQAtyV6RRHpd4GNQcHUz5dwev+bPeSx5HN1Re8011yO+mp7y8HZFPU6hV2IKVEE2F7MJjJLX4PPiq+OCxVANh+jRGnoxpMsiPheK0pn90x0l3iVGO2mqKxlBbhXMK6wXnFG7L2RDxiIBSDi2+/e2JdKCGdYqy0RR5TFMafKWgEaglYFbgjcOnjqhf8fjgjj8fn/HnvRc8NrdUXvO8PuR3s8d8fXPAYpJCoQKh2EiD02CU8VhYe0M28RT7UBxC0/XIUcFPT8/5jwdf8Enylq4qmbkOdzZj4RKcV1gE5xW119ReY73CISg8Wtz6GoklUTUAc5vyuhzyfLHPK7XHxGb4MnBi5dr52OOzht4w59n4mr8YveDPsuc81hMqFK+rE/55ecLXkwOm0w4UOtjOleTr4BYW+4LxnnZ/hcFtx2P7HroNw/GcXx2/4j+Nf8vfpOcc6C7WO6ZuxsI7ypZiKgyBRQJn1yA9Gk8kEAGpKJQIE2f5UzWicB/zjT+gqCLc0iCFDn6sAhc7pNdwMJ7zyfiCv9h7zi/TlxzrOaXXnNX7/N/lB/xxcsLVpIfLzT2QEDR0PYBq6DGu0msPwq8ii9TR6ZUcdhecpncMVXDxlq6ixlL4IHqJQCxChKC2lIprNagShUaIRGPQAExdwVmT8ZvlM/7u6hnfvjvAXSVEi8BJF0MzsJhBxaP9Cb/cf8Vn/W/4efyGsa6ZOc3X9SG/WXzEb28f8+ZuQLWMgnOwFYx47YPtjRySWgzVxkdc2VLEY61iWiV8OT8C4E/RHamqsV5hUcTSkEpNqmpSqYmkQe/YBiWOGEskFk3Ntcv4Q/Fj/vvdMz5//Zj6dZfkSmGKENFUe55mXHNwMuXTg7d8NviGv+x8y0emIRLFjYOv631+PX/G57dPeHUzpJglwZSsuLmVwfDaQ+QwSYORJrywDsOs4EtN1SjOC8P1XY/fxqcY7VBbCiU2ltQ0JLoh1Q2xblA7bo0RR6LC81mTcDYb8vbdiOhVTO8MskuHLmuqnmbxSGFPPMPDOZ8dv+BvBl/wi+QNT0xQ02+s5Q/VCb+Zf8TvJ4+4mPWo6yAlaB/ikV0T1j6zjXog8F55LLVAoWiIaLZXvz3Iltt4z/6t4spWOmgUZqrpnAuPXlp6L+aY8zuoavxogP9oCKJwsUMpx13d4R+XT/ljccrSxrzOh7yYjbi87VNPEtRSoZpgdpQBb1qHZcXF7bU2Cteo1td9KGB4KFrfOdYgV5RcPVt9aEFKHSKfC6F/1tB9MUddTaBp8KMB+Yd7TD80LI+DM1A1hj9eH/Hb5pQ8j7GTmPhGk9wIgztPlHvEBkBNIjQdocnAdsCmHpt4XAQYv/H2vGDupSJ3OSdbV+E+kB1CrJ2CNtQTK+iFIr6V4DO/LEle3sLtJEy1P6L4YI/pU8Py1NMMLQIsJh3muSaaaNJbIb3yZNeW5LpGzyuktm06RuPSCJtq6p6m6imqgVANQuqm6Qgu9tBy+uEMQ0DEQx62sNn0K4ptQLcgSxWC9Guh+8bRf7HEvLrG3d4hWsPRPuXjPaYfRCyPhXpgQ3iYG9RSkUxCaNi5cqQ3DclNiZoXSFmDa/eaUiijMZEhSg1JFlPtRZRDRTFSVANouuCS4AS9n+70W4t+kAD3Qft1ksuDE1ShiG9DeNd/1YTw7s0lbr5A0gQO9ymejpg+jVmeCtXI4ePNt2YpmBx0GVxMFyuqUYLqRiGMcyHDINaFJbaZBlVb4hmIM23IFzykxgHJLtBt7mzfPwAS2IAEpFbouSK5FbpvPf2zkvjsFq7vQhbi+JDmeMiijV/zI089cPjYhX3Upkq9hiYDZ4RqKIhVa+d+lShTTRvP1qCrkHnUpWsJASb3xNrjdbvnQqb+YRD3SgcPHVuaVqqNqGbvHL1XJdG7CcwWSDfD7Q9YPukxPzUsj4Rq7LBdB8aFLeLAx2CNx6VCs0Xkde54pTEd4KQFHHLJulDoXGOWQRJUE8SVVtCkkTaV8l1Av+9oQapKEU2DVu29sXTPlujLCT4vkE5KczJk9jRj/lhRHHnqQQOpQ5THu6CZV2DvRT8rZiD4Nr0DIKqNZiIf3PNWq2Jp88xgliEGDWnaANY8CPKhY+VxbBFBbEicBXG1dF/M0W+u8XmOdLvYwz0WTzosThXFgafptmmWSoWhdm2y8u/NsT33NiHWSnH1rfE47fCR4CPQeetSmmCK7lfTtrn1Qw4nbc41UK7eS3HpCU3XsDwyLE4V+bHD7ZdEnZpUO6xV2EbjaoVfJa+cbHLJ32XTBTw+ANwO7GmJ0xIqWIJ2X1vWSfKddOcPALcafBUYq6A8Fiea5bGm7kJx4OG04IOjGz7o3TKOl2gcpYvIbcTCxiybmLIxlNawqGKWZURVRtha4ZvW/14F3rAR0Xsgt9e1davCCW2olniMV22qY9chYEsBbIv2OpptA/UohEHlGJqeJd4v+NnJBX89/ppPO2f0VYHzioWPWbiE2hsKF7Wxq6Hwhtu6y3k54Lzoc7XsMl2mlEWEqzQ0rLntxYc9Cpsck3AvgyG+jWfXoD0+cZjdIs29qtT2vtyh4jp+TULFTDLLYLjkk4ML/sPoK/6y8w3HOgdg6TV9X2D15vvaaywhWJ8lHS7SAW87Q16mY16ne1wuuswWKU0R4WsVwrAVI75D8sQKtLmi1fq8AWK35dRvc27b5LQAd6vgvg3rvPFhoKQhSypSXWMRrl2XCr3mZu0NtpUn3ZJc4dDiSKXmyEzpqpKDaMajdMjzdJ+X8YjreUaRx7hShzTLqpKg2OSb2rX6UD/BtVcv4FJH3K0wGyXgN4OsuSgPO0i7/q4XbKOYLDp8ySF3Vcb/in5EpGzgntO4lkJKPJGy6xAuUTU9U5JIQ6RCnJSqmnG8oMiCCrlVnkLF2EoH7u6axG2pbNfnleCNR1JLllZbWvceq3aOh1T+6pETqATXROSLiPymwzs12pGKloAr26g8oh1Ke6K4oZNU9JOKYZKznyzomhKAvaigSg3WC94LBWA9UKvWzMjDYtzaT288OrZkSXXfvDzYpLEC+F0OxbaN2/7j+95vL1bASkJuMm6M4yy1pJ2KQVYwiEsibSmtobY6uLQQCm3Cxhw9NI8Crx3EjiSp6UXVVvSy06Qhu4qovYpa7U/uO/QrYmy5auK2B7yv0cMc4X+xgnchQF4WmmIZc5c2pHGN80JjFXVl8GvJCJpGthXUaryVmdQenVq6aUU3KjE+3kKxxR3vWCfN1pV3RZt0agdel913jP0K1C7X2VrILiNaNw6rcY2iaBRVZIIJq/Va67JqDtkp9AbHo71VQUGmnYpRmjOKcwyR28iRE6RWqJp1fnWdUTdBi4kVVBky+nop6BJ01TLRhBK7S0K0/1CJ/SFX8j13zwG1wlmBRiGlQpdB4lzi8NH98VZdL2JbqTQenVj2spzDzpxhtMR0v4w3DFmXATauk03ARR5ssE+6EMwC4oknmVqiuQvlC8AmirqrqPqKak+ouxIaNZKgGGh7Fe4B3ga7zSInYNsYdRF8avFgU0WTeVzqN+VO5xEJ5U8feVS3Zq+/5IP+HR92btgzOebw8xpnBG9C7dFFQpMKdU+ouwG4qtuK1BKSO09650ivK8xdgeRV8FKUwqcRcTcm6UVUk5DeqPuhr6DJPLbTFqW2Clv3OlJ2y4q1agkrmOVmLXihweGNtFLWbpc4mJNev+Dp3i0/6V5yHE2Z2RTTeXGHjw2uE9FkEdWeoe6EqrWLwwC6gHgKnWtH57ImuilQs2VIbSgBrfFKgfeoymJmoEtLPFEhp9NV1JnQdBV1jwA6BZs6fAxEDtErJdNKsFVt3CnoCkzh2+4UCRGJkXVWZeUY0KsZjed8PL7i0/4bjqIpc5vyh/mjrfqoVjRdTbmnKPaFphdS+roUonnI32TnFdHNEilqUAq318NlEa5jsInG6WDXAuUdunahh2EuoQslUTQdRZMGqbGJDlsjbsMpE7aJ10GMdR76l+JJyP75dmwXSzhbUXWph36otP18/I5f9F9xYibc2YzPZ0/4zcsPMYtnI5qOUO4pyrFQDj02C6TSyyAynWtHdlER3eZI43CDDvUgoRwbyoGiyUK53QsoCzr3RAuI5w6ztJjCYpYWFhArCdzQChdJ237TEsLQXgPBdOUweThxHptqnAkle2cCQNe1RP2S0/GUT0dv+bT7ikMz49r2+B+TZ/z9tx9h/pRh3v61DgHxoCLtlXSMpaoNxW1KNDVEM09yZ9GLGm8UzTAlP4jJDxTFuK2VJm6TurCEGutciBY6NHvMDNE8gFWlRS8atPX3GjbE+9BiYBTeKLyStsfI4UWC1HQ0TQfKEVRHDdnBkpO9GR/1r/l57zUfxRekUvOu2eN/z57yD6+eor/MGH7pMD/9q2/5MLvlMJ5Re81Xi0P+6fwReqZJL4XsMizQdQxVPyLf1xQHEuokmQvJ4i33zmtojMfFQtMPCa5yKZiFIp4ZooUjWjhM3qDyBlU2iLPQ2NCVUrZ6yoeMn9cKOjEuSSiGbQfKk4qT01t+Njrnp723fJycc2puAfiyOuG/TT7h715+hPvnHsOvPL1XJeZXw5c8iu+oveaPi1O+uD4kf9mn/0LRe2OJJ03IyO1F5PuKciTUAx9abPTKg5K1UlgVqlwcNGzTEep+0JZ5KZhcY5YaszBESx+q60XYy6p2IY251RlmE001ipmfamZPgR8v+NWT13w2+pafpa850VMyaSi95vfVKX9783N+/fzHqC+6DL/29F5XqNpifpKeY73wvDjlH68fc/diSP9bRf+VJb5r8ArKkWF5pCn2WYvqvVLEVjDzXquQCiUCF3noCPWAdQOFLlVwOAq9zt6tarVeQlDfdIVy7KlOak4f3/BXR9/y73tf8yy6pK9qKq84tz0+Lz7kv179lN9985jsy4T+C0d2XqNqR7UXY07MHV9Xx7zMx1xPu+hliBmrnqLuRDSpUO0J1V4wCy7294z7VnJi8+Ch0K61mb7tRnEJNP0VMWhbXR0SO7RxmMiSxjXjTsFpd8LHvQv+bfqGj+IL9lVJ5RWvbY+zep/PFx/yPy9/xNnzA3pfRQyeW7J3gZNNFlEODeZ1PeKfFo/5erJPuYjRxlMcQnEENhZs127Sk1bWjRDrNOXqsrKB6iGEK6Db9Nj4rJJYkrRm0C04yBY86kw5TqYcxVNOzIRDM2WoclKxWITnzR7Pq0O+KE74drHP88mYy3d7JO8ikluPrj1NpvHGUAw1+YHC/Hr2E/5we8L1XQ+sYHsWO3Z0+iXH/QUHnTmxtiybmJs8Y1ok5MuEptRQ6tDm0simr3Yb0HaIq9su0bY4q2O3jkVHrU/6OL3jcXLHcTRhqBf0VUEqoedh4WPOmh5n1T5f5kd8NTvkfN5jNu9QLyL0xKCa0GjSdAwuhroP5djCXoH5P5dPuJlm1IUB7TFZw3Cw5MfDa/5N74JH8R0Qmiuu6h43VZdJnTKpOsyrmKKKqBpN02isDaEWTkJyeuXPKlCRxUSWJGnopSWjNOcgnXMYzzmKZxxHE8Z6TleVRGJxXlG4iBvf47rp8bYeclaMOFuMNgDzCCrFqphddz11l2BfBw3D/TmfDG85zSaYy+t+yMc4gcihtMNoixKP86HbJFMl3ajkwMyo05C9W7qYmU3Jbcjolc5QuZC+dEj7bThjbenomq6uGJicUbRgrBcM9ZKuKkOLwBbnLpsB17bHRT3gTTnkXd7nYtlnkqehZpqbsIWaDTFd5CH1+NSS9Esejyf8YvSGn2Vv2NdzjFtEm41jhabS3M0zrFNMq5SXyZhxvGA/WtDXBT1dMNZzDnGoNsml2/Yau9WKs8rwWa/WCbBMlVvAQs9DhaLwEXcu46Lp87Ye8boc8q4YcLHsc7vskBdR6EOqVQjbttpTV1vEm7Aloizs9f10wcgsiaXBIph7fTlO4WpFsYgo7lKu4j4maeh2KobtPjpJpxzFM0ZmQV/ldFW1XnwkDZGEhNiq/8g+oJ1qb7hzGTPbWXPuXTngPB9wlXeZFklosqo0vtKbRPZuLLvS/rI5nVPkVcS7xQCA82pArBr+H9rR3SdeL4iXAAAAAElFTkSuQmCC;" vertex="1" parent="1">
          <mxGeometry x="520" y="320" width="58" height="58" as="geometry" />
        </mxCell>
        <mxCell id="6DF6oKiKQpFTNXZrsH50-2" value="邻域半径为3" style="text;html=1;align=center;verticalAlign=middle;resizable=0;points=[];autosize=1;" vertex="1" parent="1">
          <mxGeometry x="509" y="381" width="80" height="20" as="geometry" />
        </mxCell>
        <mxCell id="6DF6oKiKQpFTNXZrsH50-3" value="" style="shape=image;verticalLabelPosition=bottom;labelBackgroundColor=#ffffff;verticalAlign=top;aspect=fixed;imageAspect=0;image=data:image/png,iVBORw0KGgoAAAANSUhEUgAAADoAAAA6CAYAAADhu0ooAAAAOXRFWHRTb2Z0d2FyZQBNYXRwbG90bGliIHZlcnNpb24zLjMuNCwgaHR0cHM6Ly9tYXRwbG90bGliLm9yZy8QVMy6AAAACXBIWXMAAC4jAAAuIwF4pT92AAAT70lEQVR4nJWaaXccSXaenxsRmVkbFgLgArK5y56x54wX+YxlaTSy50ge/zP/EP0ZfbB9jkY9LbObvcyou0kCILHUkpVbxPWHyCxkFQpsOs9JoCorMyPeuNt7b1x5+vf/U1FBFVCB0P7vDtHeZ7YfsnGfbtwoivQurcbqHtH+vVvG6v/+sXl0926+H3BrIDdfuO0ltw3YgducvMQ/2l3o3/cxgLJx/7bxb5tj90zvUaf9H1aDbrxx2wpuu3bLamI0PiC9yd6mNf3vt4H8FMAb73M3JLF2w8b/jx0dyCAbq6rx2hrIbQNp754NqW8Konvv1nlsuVcFd/MFt2O5McG+dG6blEqcVF9KfdCb9g3RT2y+tz8/6b33Y8eajX7KsSmJbfZ426obouquftabk++Ps2nD21S8tYT/n8OtDdpXtxuTuMXZwLpUus8CmNbbioIK6gXaUxqBIDeG0v7z7alrC7VlTp8OdMN53PaCjy3IpgcOQCNoiKCkFlwl2EIwFZgGxIOE9cfUxjM4CAmEVAkONFHUKWp7oPuL+5NAg6wD+Cm97wboVrw7AlFCtWCqeNpSsAW4JbhcSXLFFQFbBqRRxPfGMoIaITjBZ/Gsh4IfCs0ImoHgBxqBJ4BV1BBNY6sjXb8YgfaPTwHbPaI9cKVgl4LLhXQGyVxJZ5505nGzGjsrMXkBVQ1Ng6oiIiAC1oI1YAyaJuggwY9S/NBR71jqsaGaCPVEaEZCM1JCCiERaCWsa6bDDdted0afIs0OoEaVNEtDshCSKWSXyuDCMzivcJcF5mqBzhdoviQUJSH4dhxB0hRxDknTCNJaxBik8eA9rvbYpcMuE9zY4ZaOammodgXTRCn7DEIKahUx0ZsrW8xJBbdSw9sAbb0epWhzQ3olZOfK6CwwPClJTmdwMUVnM5qyjHxPBHEJZjKG4QAZDtBhhqaOkDrUCipt2BHZHApbB1h0i2RA4v0q8d2RtW7B0Qth7saPfbXctgBBEB9t0OVCegWjs8DoTUHy7hK9uESLEozBHtxBJmPCzphmf0Cxl1DtWKqx4AdCSKLj6cYTD8aDNIqtwFaKLRVbx5CkBiQo0oCpBVMLmugKkHbhbMuxrro/RZ67330cyBaQLJRk7jFFg1oDRwcwyqgPRhRHCctDQ3EolHcUv9/gxgWDYUXqGpyAD0LtLXVtqStHKCxSWGxucLnB5eAWETQB1EFIJS7QNiF1kt1gZ24FQHui7HvUTd6pIEHiqjatkFNDdThA748o9yz5PcPygVLdbRgfzXm8f8nTyTmPBxccuRkjU2JFqdUy80Ou/JD39YT35YSz5YSzxZjZfEgxTzBzi1u0YakdT020zZAqwRKleBvo9rO7wT7Wbu6BXDEVVmrkUyj3hHrkUOeodqF44BkeX/GLu6f8cu8NL7MTniTnHNicsTQk7VC1QqGWWUi5DCM++Alvsn1+zO4wTu7wNtnlwo0oXUadWHwZVRWNwIIlxtV+bF15255U2/F+mgJu47ESVajeUZpJDOzNrmd8b8F/vv+WX+9/w58Pv+OpyxmLIZFoOIUKhSplC3KhjgqLR0ikYWQq9tySvXTIrB6QpynNwOIDeGcItcQ5GI22abXNjIiJQ5dLd2B7x83w0lfbW8i6WsUP2viVBuxOzcODKf/+8A2/3n3Nn2ff89AJA8nIQ815aJgFy2UYMgtDpmFAHjKKkFBoQq2WOjjykHJZj1j6hCaYbk0joNAGDokAJfNYFxAT0GDwjUFrA00fz6ZEN4Pttnyw97C6dkHSQDKsOdhb8HTngufDMw7tnIBw4gN5CJz6Pc78LmfNDhfNmHmTsQwppXeUwdFoBBRUaIKhCo5FnXK1HFCUCb42kR93qZ5RJAm4tCHLGpwJNMFQlo4Gh6rZOm/XB7A1ZepLu1UbBHCKzTzZoGbgGowoV82I1+UDfqzvUGjCVTPitN7hvBoxrzPyJqUOlqDR03oVtJ1UaD/7IJS1oywT/NJBZRDfMxmjiA0kiWecVaTWU7fSD61kCXojC/q0NK3vgbtVtQERJQQhrxPe5rvkTcLX9i4GpQqWwicsm4SycTTBrMBADCu+d031eqJN6dDCYnITHRDRXEKqkIBYJUsaxmnF0NWU3lE1llISvLQeaCOF3BJHZeP7BuCeHasKTWNZFCll7bi0A0zv8W1gdA1YdByqEufjhVBZJLckC4PNBfFtNpO1mY1RnPOM0pqdpGTkKuaSkdgMadNC7c+3/XJTonrL5w13TYgUzHuDKnhvqMQhPdVfBxdXNrReUUO83s+ctDZIYXAzQzITXAGEGDMb007AKlnasJsVHGYLMtsQEJwJGKPr820p4rrqbs3415LM62uqceKhsy+LBl0DuQYW0DYdVI2ORcOGegVBKoNbRJDpVWRDaqBBYBhjt808O4OSo8Gcg3SBEWXpE5yJprQC18XSFvwWid6WdLfpWw+gdqA9fFJyoD2A/YS/Tc7twpBcCdmlkk4V46HJhJASTSUJZFnNwTDnbjrnjsup1WI2Mxaj6ziM9kj9iulvhJZbq23xVG+uJ745WPf5xnPrYFfpXivJwYWSLEK0TWtQEUKiMAjsj5ccD694kF0xMhUXzZhaDXUw0eZXc+ilLroZXvrHrWGmm/C1NAgg3fc2BMS4dwtv7h8BTCkkCyGdwuAikF55bBXwAxOrDin4oZJNSo7HU54OznmYXOJVeK87VMFRNY7QLXo3v7bqwY2kRj7h7E+4lYr0nMoqL9yaH8q1CbS8VGqDLYRkFhP37NKTzBtME1Aj+AzqCfj9hgf7M15O3vMiO+WunZKKpwyOeZ1RNTE+a5BrOtgRjSAtqf/Yqn9CFV/7amp0vbzZp499v68gPmYlbi6kbXUimdWI11hGGRmqPaE89OweLvjZ/gm/GP7A4+QDAO+aPabNkHmVUTc2Vhm7cdrQRYjjfJww/FQ5sc+kTNQPMbq6tlpdbjIVaQwmj3Y5OFeG54F0WmOLhpBamrGluCMUR4q7t+QXd9/xn3b+xL9OT9gxFWd+zLmfcFpOmJUpTWNWZOQaLNH+S9NT3b5ur07Wz/7vfQnalmjbEM9WorJtnVTAC2YppFNh8EEZvg8M3lfYaQVAM3IsDyzLe0JzXPHz41P+cv9b/l32PXftkloN75o9/lgccZrvUFQJoUsCej5EfASZLLYyo43vP1XD3fiuXehZ2cq6JAlgl4Zkasg+wOg01prctIggxwOKw4T8WCge1Tx79J7fHL7mV8NveeiW1Arv/C5fFsd8Oz/iIh9SlUmsH4u2040q2y/3XFcYtnCD9d2sHp/qA1SJJJq2En/bPkxrk2ZpoiTfK+N3geFJgbtcgg/4vSHFvYz5Z4bFk4aHTz/w3+695q9Gr3nqlnjgzA95XT7gy/l93s13KCtH6BEQDa3GVAa7bMPVe72FGX2MNNy4mR64Hkhab9zd7mPdt7PJ8UlgeFrirgrwgbA7ZPlwyPSpZf7c8+D5B3774DX/dfKKFy4nEeFNk/BF+Yg/LB7yw3yf+TKjaew6yMZET96aRnYRndzHmdE2Ut/d07GkTtA3vHMMNdKxnqWQXkWbHJ16Bqcl7jK/BvlgyNVTx+yl5/7L9/zu4St+O/m//CyZMhDDOw9flA/5/eIxX0/vcpEPqSvXatG1JKmj1qw8+WUgndXbtg17HnKLtq4tSAd2czE6b6wCHmwhpJfC8FQZnzQMTpeYqxzxgbA7org3ZPrEMX8eOHp+zt8ef7UG8iwo/1wd8/vFE76a3uP9fExZJAQfVVZ9m5w3gikMbgnJAtKZ4nKPNJuV+tvAbv62CfiWhZBacLkhvRBGJ8r4bc3gJMdMc1Al7AxZHo+ZPnXMngcmz674zYNv+OvJV7xIplgR3njhi+qYf1w85cvZfU7nE5ZFEksn3lxL0l/v+9hCsIViq7i/4zPb2/HuQPSJwyZ/7cfNbZu0K5Bgyqg+2bkwOgmM39ZkJ3NknoMIYX/C8tGYq2cJsxeB0csrfvPoW/5q52ueugu8wvc+4VV1zD8unvDl7D5vZzvkRYpvbATZMR/fEoMgSGBVCEdiKVZtP7xs2yHrq24HcrV71UrdbNhq6DyrYfAexu88ozcF7myG5AUkDn+4w+LJhOkzy+yF5/D5BX9z/DW/2f2KF8l7rChv/IhXrU1+Nb3H6XxCXqQr56O9cBWn36OhJm47NpkQrMWn3d5LX2I/dWyToHC9VZGbaI9nyuSNZ/jjAns+hbKCQUZzb4/5szFXLwyLlzXPnp3yt/e/5C/Hr3nspliUd37EF+Vn/NP8Ma+nd3k322G5TKO6dtRuxZu7Ndd267Etv47iNiQCzai/97KmshtBvo9oG6lYJc1C1tnjm4rB2zlyfoWGgIxH1Mf7TJ8PuHppqP5syX98+gO/O/pnfjX8joe2wgNvfMar8uEK5NvZDss8w9fmOiXsL/gqgZC23gt+CGoF2YFmoDT7vgW6dSu/O3ugNzOSjrMWgpsbsnMYnwTGb0uSt1NktgBj4M4uy4c7TJ+nTF+AvJjzF599z+8Ov+BXgz9x3wYKhT81Iz4vHvOHxWd8PTvibDGm6LyrN9ubvdboKIREUQvNSNE0YHZq7h/Meqp729F/2QrwNciuKjD4oIxPA6M3S+z7GbJYQpbij3ZZPBlz9SwSgTvPLvj18Xf89e5X/CJ9x4HxzAJ82+zxefGYz2ef8S+LO3xYjFiW6TWHNYrSsTB6C66rupC2iYWKxprzqOLe/px/c+dkY8f7Ng7bt+NOVetY+sguheGJMn7XMHy7wFzM4q72cLBS1elzQ/Gy5OdP3/J3d1/xF6OveepyUhFmAV7Xh/x++YQv5sd8P7/DZT6kqGIIiSAhutV2H3XNtGRdjY1CEnCZZzIqORjmHKSLNh+FawKwCbiv2i1J78oe16GjIj2ZIZez+KrdCeVne1w9T7n6M3AvZ/z28Xf8j4PP+S+DH7lvMyDjzJf8sdnj8+IzXi0e8ONifw1kCCZWC4OsJwl9s+r7kbbVR6xi2rpz5S3vy8lGHN0Gth83u9BxaRicweSdZ/i2IDm5Qhc5OEc42iN/ssPlC8fsRWD/+QV/8+gb/vveH/hl+p4D45iFih8axz+Vz/jf8+d8edXGyMUAv7RQG6Rua0nNdWyMXSxtdmS0rSmButjAocl1i4sGoawTPuRjiia5jetuMIUuPhYtCbiA8UkE6c5i6JDREH+4w/zpmOkzy/ypZ/x4xs8PTzlOr5j5If+reMilH/FNcY9Xs/t8c37E9HyMuXTRYy9ja44twdRx19vUYJpYEey6WIITmmFs3qh2oBlHgQQnq3Kq94aiSKhrS14mrTPapHF9ve/gtp0nLhfSaew4sXkVO0n2JtQHI/KHA2afGfLjgDmsGGcV8ybj/1w94R/8C86WY84uJ9TnA9IPluxCOJwqyaJty2lbc2zpMZVHqgapGmh8bOIIAU0cOh5QHY3I7yUEZ2I4aZOIWJkUVA0iEIzBN7YXXjYzkF6jU5eBmJp2lRWCEoYJOkqpdxOWR478gaE4UvwkYBQu50MuZiPqwsFVQvbBMn5PrCh8qEjmNSavkLJB6ga8h6pG67ZFxwfUe9T76G2NYEYjhH3kzhC1sTPFZ6CpXpf6WmqoRJsNoavrrhJvXUmzT6nw0tpItBc1gh9aQmrwA0Ox3/YpHCjNOK5QmCdUPsXkhsFlm56deYanFcl5HjlvWaE+3h9ZZW91nUMSg9jYhYJzaJYQdkaU94YsjhMWx0JxNxB2fCzntHnvykF1rElv203rcsm1Xanrvr2QQDUxqIF6LJR3hGpfaSYh9vw0glSCW8YKX+w/ik0d4gMhdcj+5DpcuEi81RrUCcEaQiKoE3waPzdZ7C2qdmPjR33gSfYLdocVIkpRJTF1K2wE2+LopNwLLx3IjqwT91PoPLFEx2tbLongU6h3hHq3BTkIIIo2kap5LzBS1Aj1WMjvp0hIVz1/wRG7TGz732n7PzZiaBIg9ZjMk2QN42HJo/GCR6Mr7mdTRrYi9yl/zA/5bnrAh8YQjI1m18XUVjpuDSQ9sBBJssYqAaItYY7eDiJZrvYC/qBhuFswHsTVVRUab/AqMRbqNXszJpBYT+o8iQlkriExHmcCqWkY2IbMNIxdydDW7Nkley5n3+Yc2jl37YwdU2NRLkPKq+qYPKS8zXexVmlsiLverX1GFeynaR/ba+kkkEJtlZq44n7PMz7MeXLngmeTc+6mMzK5biKwEjASSMSvzlQaBlIzMDVJ+9miGAlYAhYlEc+gPTOBgQgjScjEYSUFUq7CkoUGarVUwaEaq4BiNFJB7REML31ntCXM9IE6xduWS6YBN4kNGj/fP+U/7HzPz7I33LNzEgmr3S0rSoJi5dohWsCK9L5fj+nRlbM3gMVg2kJtjacMDYUGZiq882O+re7xRf6IH/J9pkVGU9t1BtUl5KtKfZ8jbBL4LtdzxCJ1GshGFUe7C/7V/hm/3PmBfzv4gWfuir12uzsAXtc1w7fXY2TS9prgFQJCrYaibccJavDtAng1BAyFJhQhYRpiA9ZptcvbYo+z5YT3+YjFsgXqzY2qA7BFdfsgexLtyLJNPVnaMExqnATKkPDBT7AoZ1LjEWp1cWKa4NtJx8m3douhUhebNtRRq6UICaU66mApg8MTWwIatdTB0qhh6RMqb8mblKJJyOuEZZVQVY6mttfFctGoOsKq2WrdGekWoNI728uNN1wVA/6FOyyalO/TA4a2wogSVFj6lKVP1tpr+odBCe0Lm2BoWiC1t1TBrvoeuq6VoLFbJXatRMNQjTSvK16LADZmONjrscQoYuD/AYJdxhLKxWfKAAAAAElFTkSuQmCC;" vertex="1" parent="1">
          <mxGeometry x="520" y="240" width="58" height="58" as="geometry" />
        </mxCell>
        <mxCell id="6DF6oKiKQpFTNXZrsH50-4" value="" style="shape=image;verticalLabelPosition=bottom;labelBackgroundColor=#ffffff;verticalAlign=top;aspect=fixed;imageAspect=0;image=data:image/png,iVBORw0KGgoAAAANSUhEUgAAADoAAAA6CAYAAADhu0ooAAAAOXRFWHRTb2Z0d2FyZQBNYXRwbG90bGliIHZlcnNpb24zLjMuNCwgaHR0cHM6Ly9tYXRwbG90bGliLm9yZy8QVMy6AAAACXBIWXMAAC4jAAAuIwF4pT92AAATwUlEQVR4nK2aW5Mcx3Xnfycz69LdMz09N+JCkBQpyLvUipZiFeu11x9xX/01/KIHh/2yXr/YshXhS8gmRRGEAAIEMRjMvW91yTx+yKrq6p4eiIpwRQymB11Vef7n+j8nUz76i/+rBEGUrZcKaBZI9gre27/hjw9f8fOdZ/yvwTM+cbBjcqZhyfNa+Zvp/+D/vf1vfP7NA5LnGYM3wuAskF4HTBW6d4oCQQmJwQ8My4lhcSwsHgTMe0s+fO+cT/dOeDw8YWhKLIFzP+K3s/s8mx7w+nqX+TQjzBKkFKRu5Nco8Opzsx7gkBZR8z99kImiuWewt+Tx8Vt+PvmGPxt9xY/TC+7ZAQbht9WM/z//EX/15jP+7ckHDJ+kPHji2X1yjT29JFxdo4sFGhRJHISVRiVxSJYxnoypj8fMHw25eTTkm4cDnr1/yAf3HvDD8Vs+Hr5l3834aHBGZmoS4/nOjLkWCDMHapEKxPcA6PpHR2g0vAEyZAGzU7E/mfHp4Rv+bPI1fzr4mseJJ5eMt37Br8t9/vL8z/nbpz/CfrHDwy8C49+cIy9O8BcX1MZiRkPsvfcgTdA8XV9E4qLBGKQKDF4vsUVKeuVYnA94eZLx8sE+Xx0d84PxGTuuxKBM0gWLYULlLQuFoIKqQQIQ2Fgj/nKo3LJoSANmt+L+0RU/OfiOPx9/xc/zFzxyUGngd1Xgn5Z/xC9Ofsp//OYDxr9xHH5eMnjylvDqNcEH7NEhHEyoj3aYH2TUA8Fn0oSDNC6siAdTK7ZSpI7rJwslnAPBUBY5L66OeTXZY293zmSwJDEeZwKDtCIEYRmEgAMMUgnie4aTGH5u3VcbSzYgf370gv+z+4SfZt9yaJVzr/y6fI9fTh/zdyeP+e7L9zj4XJh8VZA/PUWvbpDBADmcUL0/YfYgY35sKCfgc8VnbdBoF0+mBlsY3BzcFJK5RssIuCVwJZjSUU8t5+OUq92KwbBgJy9IXU3IIAShBAIOEYOp4ru7tQRcPwlposhOzfHhDT89fMX/3n3Kj7PvGJnAizrlX5cf8vdXj/nX04dcPNtn77eG8bOS7GQKVY3sjAgHu8w/2GX60LI8FOqdBuBGaCCgRvEW1IJPoc6FeiGYsv0+3moLkCBIsNRemFWGurYM84LUeUJWAVAKqNgmFOgUFl23BWlAc894vODx5C1/PHrBB8kZAE+rMb9afMw/nH/CV2fHzF7tMnpu2Xnlyc4LZFFAluL3R8wfjbh55FgeQj1UNNG1xEBP2d3fVuP6BtQKtojepbYRtHWEGqQUQmKoEkdhA0YgcZ7QvLQSJUh0YyqJYAHXhWgWyMYFH++f89nut/wgfYsl8LQ64l/mH/HLtx/zu9MDqsuc/MQyeKuk1zVSVGjiCDsZy3tDpg8syyOoR4raVX7vgxO9DRYBdYpvPptS8JmiSfN9iLJHYSF4oa4NtTU4G9EYoxirhCSgQWIWboECaBqw45L3D674yd4rHmcnJFLzup7wL/OP+MezH/Ds5BB/kZFcGfJzyC89blYhXtE8oZrkzI8dxb5QDxQ12glF60GtZVWQOwq3WggJXXIMls4rOldUQb1Q15bKrdKsNu81LhC8oEnUsHhwEkCTwN7unE92z/gwOyM3JZd+xJfLB/zzxQc8P92nvkyxC8HNhORGcVOPVB5NLPVOSrHvuphUtwVE6BXyFfTbVpXWheON6pSQBjAgtYAXpBJUDD4ISxXqpMbagPeC921gK5qEJtAFFwaBwWTJD/fP+KPRaw7tlEodL6oD/v3mId9c7FNdZZilARVsCbZURCGkDrVCuZ+yODCUezGpoLLKrK0FN9jKJlRt/hFpAFsQTxdj7QOmAvGmsZjivRAywSbxxlAZaImDNArzgpNhzdHujI+G5xzYGQBv6jFP5vd4cnnE7CpHChOztAdTxsXVCiGz+NxSjA3lWPC5gtnmkhpjUteppt5BO+npylRCcKaxTvzOVDELBw9aWUIt1FlAXIAgUK+s2lrW7YwX/GB8xofZORM7Z6kJ35UTntwccX41goVFgqACtgJbKMbHFYMT6qGh2hHqHQjp7Qy7zroUpUHQornjEtNYtW4USyxHagUU7FK6ODaFJZSGkEeaJ3WThKxEixpwk8GSg3SOkcClH3JS7fHF9D4vLib46xRTms4NbCmYOrIZFdDEUGdCnTfW7LvlNmtJ/KLDt2be9WdVAbMqD5jm2VQJqWAqMA2TUgPSBLemEah40BpIYpy7Sb5gaEqCGs7DiOfLA55f7zO/GjRxuRIgxkfzciv4zFAPhHoIPtXtAButd2ErLeDbRm3jWKWxooseoIYYEklADfhcOhKhpmFSNRgkVhONics0ZSjkAXecTdmxBR7hohpxshhzdjVC5nadIDeLd15nhOBiKVDHRka9DbZvxH7ivVVTWwU0jqRh5boiRLCZ4DOLLZTgVu8QbfNH/G2qGAISDM4ZT6WWi3rEy+WEV9Mx1XUWY6AvQK8zUAMhEUIi+FQIicYk0L9kC+3bAL+BbV1RbYPRMiujmNRjTMDbQK3AlY2g+hldV89LaAg+ikskUKll6jPOixHTRYaUptNoJ3Md46Ut2mrBJ0JIYknZdFltudu2ctmVnXfmo5XATbgYE0gSjzFK6Q2+NDH5hJh8+q4fbMOUKsHUEpnR1Ge8LXY4WwxZ3GSYsmfNRqhYP8FUiqmVYKUj3up0rXT8XuG/5z0d1hDXMkYjibeB4A1VbpDaoBIza+dVooRMCZWJrV8AV6mhqB2X5YCbRQ4Lu3UxUwh2qbhCMaVCslnM9W7he+60HUnvvh6J7xKZUcQqaVozysrOQ+vCrWomPeWpQMPOWtLhLsoh8zrlZLrL/DrH3USg2qTz9sHOoqUiXhEbays9F38nmD4QNpKQbtyz8X9qQFwgT2pGSQlA5S3zJBA2lN3Kq6JdcrIFuKtiwLRKuZ7lMHPYIsZfBCqdbKaMkwDRyNOCi/EZ2kbv+7riliSkbInxbZlYhdD84YPEjFzLre6o/46W0bnCO5aVo64sUrZsf0UK2udNkxCCE8TQkISGKHTS3i2ovMNqopsPsOpuGhChMiwrx9zFvq2sHaGyuEoILqa+tj6rsBqUNVZ1y9pRVAmhjA+p0W7hTeFUGo7rwKeCz5qWaosm16XeWjlWYHsPdN7X044oUBmqyrJ00YWqykby3qsEHdkQIEivmQcXVAhNekZBk6ZI++2A48MS3bt18Y1g28T5Du6+VUmr8tPLTEHwtaXyFiuKqnTVq/1ME5ddu5dEuhgqcIn1WBsQF/tI1cbsQkMSYsEOTlDb01KbhGTDCpvQNt1281rryGkSyW3k4qNBQjCICd2za/HdPqvR9ZtWlDgcA4xoVx4EuhtUIoVSjTQvuPXks2bIrYA3QHTANjju2g1bWIQK/Z7OiGKMRv5rWKOq0j0aEYuPVNBtpajStFOWjla1IIMVRHVFzrdc603JFkfuK2XbO2Tdwq3cIpEdiSjGBDBxLmV69LPf47YU0NTgKm/x3qDe0HpEf/UWUBvUaug6Cm2LeVi526ab3pK5H3fc9ty7LhVFJKrNmmhRMboKodareq+TEEGaUjcG2Nuk64mkIp2Lq5FVOjcrd9sE3E8uW117c6n+2n0tGBATcNZjTcDIBtBVNen+FM/Koka0mdNsJ+CdoL0a1b6p/3lT4j6Y7h0bsbzt6srK2rsBqzgXSJ0nMQHvDMYq3mpU+oYI2tTPFqyzJkS/b7Szxl/pCdj8dNRNNwTeTLjbhre/hz1ty0HdZRVrA4kJJNZTBYOxgdr2R6vr9djU7SRi03V13dVWJPt2zN5Fu26zgd5zf0jLwrquxChGFGsCTqLrdu82rddpt6TSgKw0um5ZO+raokEw7Rh0m6wC9OpnV6Pae+4CvWb1P4Q6bIBtgLYA41Zhk1m3lg5W/TPgZsuUsnRQGsTLyg02rpDEH6mbxdsMbOga4+2Srv/5rmT1TrCwNt1XFTSY2/uh7fdWUYkMLjhwVekItYlNaxt3Wxb2mVLn0V8ltLOi7QmsD+iuq//97wXbyKQq+GDAgA+moa6380A/E7cbVy50XTmRZWx1Q437kEUcGotvLNp3zbvc97/iauLbq1AHQ1ChbMJNwnreaKfzpmwM13B4o7VB/aoGSu9zf6HIjNYLtPGyctvvwZLeWVbuKG1rltfYH4fmd1cNWjLj4jalJnG2a+oYajHrikY+6wIhNdiFvFuoRkumiuCljnsgWwG2ROEO4JsA73J3tSA24EwsLwC2JQwWcLqaGzU1ODIicIViS8VpacGFLlBEBQ2yvofSukAv67ZjCglx4rY1IW1m3W23fA8rhzyQpp5RVjLOloTGhRdZQpEkcY+lP7UsDG4qZFdKehOwheKom+Bsx5jSE77vdm1ctmB1BVaNcudZpTXy+W7Q20AiILlnZ7jkaDDjMJt145SbZUbhdGWUpi+1M0MyhWQWcIuAeMWYhUHKZqutSUz9+tMXMDhFHWtx2r+vjanN2OpvQbwTFNvd1ySBQVKzn82ZJHN23ZLcVlgTojXbB71gZpbsXMjPA9mVx81qJCjO1BL3TSxoGgjBYIsmIbVZuJEzOPCD2K1ITdfRRGm4VdP6NfMPLTf9rYmkmf4NbEVmaipvqUOcNqB0RhIfN6qzSyWdBuy8Bo0n1OKBqnJVYrTZV4rTtVWWbdmJz2Ims712QXzcnjPbMvYdVtp6bXiBCmgWGGQVe9mCkS0wohTBcVXmzGcZ1O3ZIsEuhPytMDz15G9L7KxEE4saiRMGW0rcQXZxZ6ptcQICyXpJUauoE7Rqu4PGuk6/F8u5kypuKqYdjA1qhllJbuMRm6nPOF3ucD4bEm4SzNI0G9RCdikM3wTysxJ7s0S84gcJ9dBgWhCmmWirrFw2HjlbWbvdGgiJEloFyOoAVOvGoqufrYA2CnwfYB8kFpK8Zqdx26DCTZVzvhwxnebYqcU0hx7dXMgulOzCY2cVUod4vmLkKMYGp0Y7q1gfR5ldXHowBkJ/GEbc2Y4DNF0pBuI2ep+tbLPYHdRv20BM08B4tOQwnzFJFgBUaphXCWHhSOr4PlMIyQ3k54H0ssTMinh6NLVUu45yV6JF206kO6PQ0DnTKEB6B5NaJuLzEJXSggyNW1tdKw2/b/a5maH7nmDymnEed+Tb46xliAN3aXbiTSGk1zA8DQxOCtzlHKoazRzlfsbiMB4icd0c1DSNqgfKVT21XpCgeGkYUENw1cUdK6l7YExzAErlVgO/7doaz62FU2W0U3CYzxi7BYl4ppoxrTKWi7Q5pwvJDAanyui7kuRshkwXaJbgRxnFxFHuCX7QNN7BKSJxumc0vqAbnbZZVbQZXDcdvVFCHqIL+55ljcbZYiV3s6LN/9/gwyHTeMBr74qPR2c8SK/wCG+qXa6LnLpwuKWQzIT8rTJ6XZG+vkFu5iBC2B2yvJexODYUE8Xn/QmDiXueYppxadXst7RznhAVUSMEI2iqcZvdCtQNKBVwAVUFv2oQ7gJ6qyVUIWQBxhUPD6/4bPKKTwev2DVLTutdZnXGtEhh6kiuhfxU2fm2In9xhVxcx3UnY8rDnMW+pdxttkxCsxHcuVCzqatVw5DqOIqQEGOhPe1Re4MH1PrIk+2KGZgkoCGg1kJpbgPuZ+NGOaKRRoY8gnzw3iX/8+gFPxt9w7G95iYMOKn2eHJ9xMXJmOG3ltErZfdlSfbyCs6vor72dqju7zK/l1AcCPVoxYFdo8h4WY21Uxv2085Fq4Y3LoWqEMyOUKmhNqADj0njtkaS1t2kvEwt1SKBwkLZA7uF6Ps8oINAtrfko8ML/vTod/zJ6Gvu22tuQs5pvcuvLj7i2fNjRk8SJl97ht8uSV6do1fX4BwcTCjf3+PmUcb8nlBOIrlpL3eLxVglJPHgIggSmrNFBaQ3gWQmVDOhXApFaSknQtiFZKdmlJfkru46jPPFkMvpgHKeEpY2Zu/GzdXGQ9Ck8Yjevb0bPp2c8Ce7T/kse8mBKZmr5VfFA/769Cf8x28fMf4iYf/LiuHvLuHNGWGxRLIMDiYUjybcfJCyuCeUe71D0A3AtSlgW9fURcvWva0p8ZAESKaBZAbpjZBMDcuFoSgSCqDKKvbyJffyG46yKfXYcH4w4qbKuClzFnVCFQw+GFLrGWdLDrI5Pxq94XF+wn9Pv+MDV2GAL6shfzv9Mb948RlnXx5y9O/CwedT3LMT/MUleI/Z3YX7RyzfHzN9P2V+P4IM6UZ2kxZoa1XdAnYYh0wg3QQimQbyc08yM+QXhsWBYT5PuSzHlMeWkSs5yqZ8Mjjlx8NXJFITMJTqugPEuak4dtccmhkP3YIjk1JozfPa8cvFJ/zi5Kd88fQhO1+mPPqiZvSbt+i3r6nnczAWe3yI3j9k8WiH6X3H8ji6a9gYArQeu31Lou/GIt0ZvJAIag1qhPxCcXNPelmSnTvyC8fylWV5uMevj3f5/MF9Ht8/5WeTl/xs9JwfJqccmJKJMRgRKg3cBOUqJDytxvx9vccvpz/kH998xOtv9xk8S7n/dWD89Q32+Qn+9Aw0YEYjzPEh1fsHzB9kzO5bij2od7U7vbZ23QLaHyi01Ey4dQxcXQQcnCO/9KRVILlYktwYRt8a/MBRTByzeyOe3h/yxYP3+et7n/Lh3iWH2Yx72TWJ8cx9ykmxy9vlDifTHS6vRphXOaOXwsPvPKOXM5KXZ4TLK8JigRnkmP0J/t6E2XtDZg/iIehiooQ0euCtdrDH0P4Te+X0SbbClXoAAAAASUVORK5CYII=;" vertex="1" parent="1">
          <mxGeometry x="520" y="160" width="58" height="58" as="geometry" />
        </mxCell>
        <mxCell id="6DF6oKiKQpFTNXZrsH50-5" value="" style="shape=image;verticalLabelPosition=bottom;labelBackgroundColor=#ffffff;verticalAlign=top;aspect=fixed;imageAspect=0;image=data:image/png,iVBORw0KGgoAAAANSUhEUgAAADoAAAA6CAYAAADhu0ooAAAAOXRFWHRTb2Z0d2FyZQBNYXRwbG90bGliIHZlcnNpb24zLjMuNCwgaHR0cHM6Ly9tYXRwbG90bGliLm9yZy8QVMy6AAAACXBIWXMAAC4jAAAuIwF4pT92AAAWxklEQVR4nJ2a6ZYj13Hnf3fJBYmlAFRVr2ySzdW0x2Nbi+fI4zeYz/NW88FP4rfQHGlGpj3SkWyLFtnNbnbXhqpCAZnI7d6YDzcBZFUXKR3nOd2ZyLqZGRE3tn9EqA//4X8JAOH//9Sh7jwr6gfWyJ2Fdx/+ox+78/7+9Q+8yt5acA+Bf8pL3vnw3fdIePxenu6Tyu5ddx74T9IHYG9L+Hte+MeErm6f+7Qr6d3v1uzpv+fFd3dZ3f7Tu+t73/mBw9634E9VJiWAVygfHrpXProjUAmieVf13iF0e6O3RN1d01uqetc7wt79bW8t7jNwz7ETtoQf23ViBLEgVhATbiqnUK1CtYRzR62ojnkttzRA7mjFO9fy/d/v0/cu1+GnFf3DzN0SgN9/QLTgI/CJRw1bslHFNNswiisAyjZiuUlZ5yltHqE2Gl1plAPVgvYqaMEPCHVr77vrjvndI/2/3/uC/WG32/y96tFJZLdACy4RZOBIxhUPDtZ8enDOn43e8lF8ztTkONFcuhGvmjmvyjlvNgcsyiHrKqFqDW1raBuDcxpxgVLpzOAdFdSCMoI2gjYOYwRrHVoJuiO2bg1NbWlrg1QG1WhUA8rtabfv7PIdFVIelA8/vBV85rGTmgfzG/58dsqPxy/40eAFH9qamU6JlKHwG5b+ivPkLZeDjJuDlJUfkPuEykeUYilcQuFjKm9pvaERTesNHoXriDBKsMoTaUesWxLdkumaSDki3RIpR+ESTuoJL/JD3q4mLFcDmnUMXgf/0bl7qzxs1feuTWydjSiQSPBDRzYv+Phowd/OXvC32R/4y/iKBybDqCGNOK5cwUo8q474qd7w0KxJlSfq3u+BRqAWTYOmEY1D4buzQ2PwgVkErTwG6a6FCI9RghPFpU/5bfUelbdclwNudNrtYk87VRdH1VZ1t46pt0giwSceM2l4NL/hvx6+4b9PvuKv09c8M55IWd66gpdtxovmAW+aKcs2oxFDqhuO7Jon0RXPogXHumKoFRGqJ1SPw3VshcPJbTVznXBc77YHCrGctFP+UD7gxeqQ85sR9SpGbQy62TMpqmejqtvFvv76WJDMMZht+OhowU9nL/nZ8Cs+ja4YasW5h9/VR/wqf86/XL/Hd8sD8iKhbQxKCVHSMh1teDJa8ny44Fl6ydQUZLoiVo5ItZie7Wg8Rnlcp2KesMONWEofUYvBoyl9xNJlvCrnfHVzzKurKZvFAHNjiavAh0TB1LamaMUEL7jTZwmq7BOPjFtmh2v+/OiUv59+xU8H3/DE1DTA7+oxvyw+5pdXH/L7iwfkVwNUbtC1QndxoLEJp/GA03jKrwfvEScNkXUkUUtsHIOoITEtVnmsdljt0XecRiua2llqb3BeU3tDXscs1wPqq5T4whBfK2a5oBz4SNGMoJkIRHsNtRIFvdXNbSY5aDg+WvE3x693qjrXLefe8pvqKT+/+ZT/t3jCycUBsowxmxA3dy4fhWoF02rIDVxF1DqhFsi3KmW6eLpNJHqxdesnYO8MEcAp7EYRXykmZ0J24YjWLQi0Q8NmbnHpu97bihJU7+0SCTJyHB2u+aujN/xs8gf+InlDhOc/mglfbj7kf199xO8Xx6wuh6i1CfHRc3+e2z/6piGdR+/nhErdHxPV3mHqWmEKRbSGZOWxuUM1Hp8YmkxTjxVtBj4Gb4EuibGq3XMvRvCZYzzP+Xx+xo/HL/g0PiFSnlftAf+n+JhfXD7n64tDNleDkAQ0ak9Ml+rd+n1ra9g5g93aPyWp336iUdgNxEtIrj3R2qMbj0SaemKppppmAu2gy9CMIIkjGtVYXemQhyoQCyr2ZHFDpB2X7YgvN8+5bIf86/oR/37xgOvLISq3Owa9BbTvclq5vas7N39Hlbb3veKWu+0JY6fGnY3pWmHXmnQBg3NPeuWweYsYRTOylDNNNVM0oy4d1SEljUY1T+Y3WFMGAxYriBakVVzeZPxT/R6/kmdsNjH+KiE5NySXcFgIygf7cpEKdrb9p3nXxrpQtU38EdDbjEWBj8Al4OLg5X0UztvnVaswlcKuFOmlkJ170osGU7aI0YHJqaGaKeqJ4ONOSD2NqJzB6kbhI0FM97fS0G4GFFVGtNKML2D01jF4m2OXG2gdRBafWiQyiFaIVmAUorrre2CMEkG1gvICXhCraYeWemIoZ4r6QNHYnnqLQrdgCkV8o0gXQnbmSC9KdFEjxuCm4flqqmjGwS63oCKom6IpYs5a08XRbieUV+hSYTaKeAmDc2H0XU36YoF/c4IrS1AKnSToOIbI9lROgdKgFUp1SEUCU4iHtkWaFkRQSYKaHaAeHdAMU7zRYVdTcEkgVDdgc01yHVQ1O2uJF5s9k5OIahbtmHSJ7HZyl7fXGlVpdB1hfeeVRLFDFqYEuxGijceULTgHxgQClYIoCkzUDXgPIuHc09jddcesOBcYSBPUaEj7YEL+NCV/bNgcC82BR2JBOYXJNdFKkVzC8NQxOK2JLguoaogj3EFKeZxQHGmqqQrOR285lF3yo2uFqcDmCuujYFuqn/YZcKmimmiQlGTwAPNkjm79ngnvUa0HJyjnwHUMb9M3pUAE7fdCkCTGzTLWjwesnxqKx0J92KKHTdDWPMLeaAZniuzUk502JCdr1E0eNGI4wE1SNg8Siged8xnKbZXtvL3yHU9tyBGs2G5BtyFioR0JLoF6rCgeGkxtUC655VhUK+gWdNtpgg9Oqn/snZDgI0U1UZTHis3jluGjJc+n10zikmU14NvLGfUiIT1XjF47hm8q7MUatS5CfJ2MaA+HlMcJm7mmGSq87b7hgmeXLt6qXtgKm7YF3rd2s3NMETj23m8rrVsO5hZ+VLfW9j2tWEU78tijgk8eXvDT+Uu+SN+Q6oZX9SE/v/6YF36OrhTKgYsV5XGMms9x8SH1KKhofdBtQuYRLSjfq2K4Lglxe1qEYLs+6SX1t447yf2Olbsx744A+qUO6aTpY8GPHKPjnC+OT/np9AWfJqdEquVFfcz/vfmA3549ol6kJKXCJ5A/1qwiTTsMtqtmJfNpztPhmmm8QSuhdJZVnbKsUtZlQrmJcRsDtUbXOjDv9wzv3Oatyl1f97Yr+wvk/rPeXncq5AYhZ37y4JofH73iv42/5sPonEYsv68f8eXNB/zm7AnrsyF2ZRAtVDNohx6mDbPZmo9nC74Yn/A8OeeRXZKqhloMhSQs2hGXbshJdcCrzYyTfMJinbFZJ/iNDR63CQy/U2G4ZyN3iiC7XIxbZUxgn+Eo8JHghp5kvuGj4wV/d/g1Pxt+xROzohLDvzWH/Hr9jN8sHnO9GKHzEMRdJriRI55WPJkv+ezgjM+zUz5JTnhgVox1vUM3HsUze0kuMddJxkk25dvRIV+Pjni5mrG4GVKtE1wZalXvlDt/KPXsF5SkC+r9UqcAPhH8pGVymPOXD97y99Ov+NHgBYe6YuUjfls/4ec3n/Ll+Xucn03QNxbdqpBnp4JKHXHcopWQtwnfVVNWLiUzFalqiVRLqptQTlEtcTBKpibHJJ5M1wxMwws759SOKdYJXts7O9oDEvd2C+7JeLbPewM+8+hpzdPDJT85/pa/G3/FZ9EZWgn/1hzxz8WH/OrqA766OKJYZOi1CTlzB9kApDLkywEvNzGvzRRjPFoLSglWe6zxJLZlEDUMbc0oqphGG6ZRwdiUGOV5mNzgO2LPlJCTYm+V/3rq+I7juXvIXn19V09KZiUfHF7x1/PX/E32kqf2ijM34t+rJ/xy+ZzfXTzkajFCX0dEZfCwogEdgjuNQpTefcJ1//ratF0vRpBIIPaYtCXLKqaDkmm6IbM1XlSoLxmHjRz2+8r/f/TolVv8yDE8LPjs6IwfTV/xXwavmZs1527CPxcf8IuL53xzdki7SInWOoQRCcl3vzB3C3jf9fzdWXXcq0ahNiDKgLaso4RVPOa7YcNgWJMldRCW1xjr9173j3aleviyH3P9wJNOSz46XPCT6bf8VfaSY7Pi0o343eYp/3T1Pi8u5jTXCWajQbpa1F2Q3iur3gp5Wz51+HAfIclWqwR0paERfBuT14Y6s0Rxi4jCe9Ux+seY/J5DNGAErT21M3yzOeKsGbNsBnxzc8jr8xlynhBfa4ZlMAfRwZ7Fduqne/Bum3/0i3Vbc3KA3lfy+n2cnUN0Cl2Cx9Ao8BJqJyLqTtvwT2VQgdIdivdQFjFf10f8hxzj8gh7ZUnPFbMLIVl1wIAugbCq+8fu7JKQKLRpEMAWNu76NOyZeqdF0WV7u7RPQqYktcZrE7TAaazqCtT3dtW2L+v+2K987Ho2tUbKBCkV8SrgxuGpZ/C2xF4X0LSgNViDaB1wq9ZgNWIUYjQuNTQjQzMMOWwzVLSDkKOKFTDs+qviuwqXl3cIDYLZlzjFdRJpNPaOrd8+7qv/9M4h1yTg1x44HnyXYy6WSBEScmUtWHvb1ykFRoPW2MgSZQluFNNMLNXEUE8UzUjRDlTAqHaPsoL27tO7ndpv8/QtkmkD4brUWPSdrbwTV+9t523XCehWoZsAhbrYjSQGGQ0giUBrZLubhErDDs5tIZz36LxE1y2msEQ3MfU0opztGXYpuFhCntkDDKpP57YG5QEX1FQ3ClOqfdvwe7vdd+yhLwjlu1tWaDMFSuESQzXNMHXGFpvuyitbmOcCpNONoFtB1x5du3DfBZwbrduwg16jnKJxCuUULt6XffpgYhf/tzR2XlzXoWJyf3i5y+jd655QxApOBwKa8VbSd9SgFy5Cd65DFw5M1atoFEKUe0zpUAKmEiIjoRa1Y0rh+/H3Pjp3mLljtO6hl7sE9R96h8E7z2yr7e9A0ztx9/ZLtwSFfFnXYDYaW2iitSEqBNPIThu0E3Qbsim6KmS/byS9V2+xqW6CEHV1d1jjHib6BO9y4a3EOpvYqUs/FnahoZ88f59nFwOShkTCDaDNFE2hsJvQT9mGJdh/VyH4ntndHRBRDkxXMzK1YE2tbu/E1rB1P5jLnlAfJLYLNYZQuO5Tvv2YsId2cL9nv49hK4hV+KTLh1VvBwnlGzGdX+pbxzaFbLtSaWcWpgKrmuDpt0yJlVs9C+hUoe12TYOPPBIJatASpS1x3KKU4L2mrg1tZZFy22LfQ7m9yPc7cVcCogWswqWCGLW75zsj23n23bTL7Y3ZClnXamf7phas/3hzy+Ea47FK8F7hvcbXBmm2gV5QsSfOambjgqejJY/SFdOoCG12H3NRjXi7mXCyGrNaD8KgRqVRteo5Krntzfu6twULZp8i+rhDKnS71VUNdp0AgoPfOiBbKqIcopUQrz26Bfs/v/iSwsfU3rJxERsXcV0NQpu8SKm6RFulnjhtmY9zno2v+WJ0wifpKcfmhqGucGgKn7DIRrwZTXk1nvO6mPI2n3C9zqjyGL8x6LJrTPlePtu3661n0eCN4BNBYo+Kfdi1VuPqTnBuu+OdSjedmq4hXgrJjceWHh8p7P84+BdWfsDCjThtDvi2mlO0MXU3OSJeoWPHeFjyeHLDF5MTPs9O+DA6Z2oKDEIjJuTceIa64ll0ydzkfJguuBiPOK0mnJZjLoohy3xAlcfIlukq2JN2+0Y0dIMhSfB+KvbYpEUbj3ea1hgEi3jZzS+pLl7G1yFDS68ddhOYrMZmH14aMVw0I77NZ7xeHnCzynC1RltPllU8m17zxeSELwZvmJs1DYYXzRHn7YRlm1H4mEYMBs/IVIxNyciUHJiC95MFxSjhsh1yXo9YVEOuqoxVlVBUcbDrxuBbDU2YJgEgcURpy2BQk0QBctWtYaMiGqeh1tAGJqO1Ilmo0IS6dJjS4WNNOTOsnynsP179hOsm4+1mwnfLA1bLAayjkEYlnmhY83i84vPxKc+TcyLleFkf820155v8kLf5hFWZ0DQ2zC1Yxyzb8CBb8WSw5HG8ZGZzHkZL3osXlGlEKTGFj1m7lMLFO9NZtzGliyhdROs1sXaktsEqjxfFTZOy2GRUtQ2qXytsobErRXIF2YUnXTSY0uFSQ3FsuflQU35SYf/xyx+jNppopbFrxbAJrbxmIjQDx2RY8t7wmpktKHzCN9UxX62OeXE9Z7nM8Ftn44J9lZFwkw55MzzgD6NDHo7WPM2WvJde8TBaMjUFU3NNrNxuOMMgYexGNKVElBLRiMWJopQgkLf1AbU/pKwjqlWCXUQkV4r4WkivAoPRTY1yHpfFbI4i1s80m+c1n79/gj38hSVZCbZwiIFqYigehcr6+Cjno+mCeZxz1Wa8LQ94cTPnfNkbc+k65v0YK42lLQ2Xq5jrwZCX2Yzp8CEPsxWPBisexjc8jJbM7ZqJLol0Raaa3SwR0E2jGK59xrcc0sici82I5dWQ+G1EdqJCQ3jREC9rdF6BUrTTAfmThJvnmvyjhg+eXfAXB2+xw7Mw7CBKUc0s5aGieOLJnq757PCcR+kNGxfzupjy6uaA5c0Qt7aorS1t0X4/Y3Jd7K0Mkhs2UUwRZ7xNpySDhtGgYj4omKUF87hgagsO7IZM1yS6IVU1sXKUEnHaHPD7/CG/vnjCxesp2UvL+JVn+LYmXmxQeYlyHoks7dGI1fspy4/CTj57tuDz6SkD02Djq1BEaqYxxQNN/lSI38v55PCCR+mK2lu+zWe8vJqxvsrCiE3Ty4z0Pvyp3nkbHkMDSiG1gdxQmYjSDriIDlCJw8YtSdKSRi2JbUPVTgebzOuYZT6gvExJTiLmb4TRdy2Dtzl6WaCaFozBjwfURxk378esnkPzfMNHjxd8MjlnYBq+K6dYs2loxwn1WNOMFT5xOKc4ycdclhl5HbHKU5pVgiq7TGeLRATEg+ojCbXPCfogfcd428W/ElgZvMRsvKL0dNCNIMgWbAlZLsyWQnpVE1+W6JsNqqoDzh1ltNMB5XHM+rFh/T7IBxs+f3zGZ5MzRqbishnyJj/AulFMeRRRzjVtGqpp7WnG+UkWhqMqMI3CShjM8NF2GKJXkZMeI3cw662jX7PpqvzKg6nCd6IconWAavHaYXOHXdfoooa6CSpqNP5gSHswCOB8aijnivKB0DxomI8LrPZcVCPe+APOijGnyzE2f5RQzhX1JHw/XgZEHq2FeCXYUlACbaJoMkWbhTkel4R81Ed0gx5hi2XLRI/5PdrZl190E3CiKcEWQpSHdC1aOWzRoIsaVXXddgid7iymmSRUM0t1oKkngZZ2KDTjUHFfrrKQA7QaKSx2aYhWCps/0rTDEFLC3AAkS2GwcMRXNWYTpgd9YmkzixsY2lTRDrq5g0ThYhWmSSy70ZftSE+oLbHrPOsG7KZjrhCiwmMLhylazKZBNW4/JmANPkvwWUQzjqjHmmoSTKwZghtI983QK2Vt4dqiN4qkm2JJrn34Rj0L6khHzE7LDIjVobjVOExbY4oGUQqsxkcaHxt8rPFGITYwLEa9gyy0A+U8phF0LZgylEB11aIqF5yK9wFGRRafxbhBRDu0NCNDPdKhUJZ1Ax1px6DpIZZGYWuw627QZOEZnDdEV6EWZdu0g2I6dMJaCcS6xFAPNVERYQuHLRy6akNtp6jR/XkFCESq8CxaB4GYLSIRlBNofZh3aB2qm3kQo8EYJEtwWRyYm1jqoaYZBhAeplU6CGm22FRuFQJ0C7pS2B400003O2FUmO7cmZIJrXA1gaoBU+vOhkyw2TyMpdm8U7O63dmRcqGap7b1Vq12zLMdx9neswY/iJEkwqWWZmRph7pjbusDunm+qFemuVWo6yCPkn0rQ4fBrGYU4p6PEkwVoRvh/wPuONJSqTtqwgAAAABJRU5ErkJggg==;" vertex="1" parent="1">
          <mxGeometry x="400" y="320" width="58" height="58" as="geometry" />
        </mxCell>
        <mxCell id="6DF6oKiKQpFTNXZrsH50-6" value="" style="shape=image;verticalLabelPosition=bottom;labelBackgroundColor=#ffffff;verticalAlign=top;aspect=fixed;imageAspect=0;image=data:image/png,iVBORw0KGgoAAAANSUhEUgAAADoAAAA6CAYAAADhu0ooAAAAOXRFWHRTb2Z0d2FyZQBNYXRwbG90bGliIHZlcnNpb24zLjMuNCwgaHR0cHM6Ly9tYXRwbG90bGliLm9yZy8QVMy6AAAACXBIWXMAAC4jAAAuIwF4pT92AAATO0lEQVR4nJWa23IjuZGGPwB1ZPEgUa3u6Z7p8XgO9jja673Y19tn2NdaO3btsMPr8Iw93hn1SVJLLYmiSNYBQO4FqsgiRXV7EcGoUhWEyh+ZyPwzAfXLf/8PQQEKpL2iuN9kz7PeO/WR91ut/y12vrfbV9r3/etDrTeerO8FRBE9COz/2WR3jB3hu4mQXXBq02frutv2TcpDfXYEU0ILlJ0Z7gm4974/tuyA7FtHv083Ru+5qP2WcG9SHgKxp+1OeDdWdE8TnUD77j808Jb5y2bipPupto/c/39R2wawB+BDAD7WusmMtp/2Bv9n1kJ7fw/cBy3j/sxuCb2j8e7llvZFPWgN+5ooiO6Z3q5guwJsmbr07nt9eutN+bBG8A+PtStUeCf3lpN0n2yF3gV7309sXkYPer897Z4Q/TH9ppNqzVV5NqarQDSIATGCRJsJ6k9aN3A3OYr22o3zkEwfaRF6xxU/NEpfeztNSQ/g+iH4aAPKR4JPBUk8JB4de4zxaONRnZUIeK/wzuCsQhoNjUY1Ct0olFUo302g3AP+IVOORO8HsDaRhzHfe+gj8AYkFnwiSOrRuSXNG4Z5xSQrOUyXjKKKIqpItUX3vmG9pvIxtzblts6Z1RmzVcZildKUEVIaVK3R9Qb0Vuh6wIkq6XvdHQf0kElsgVQSzDEClwg+86jCkhU1h8Mlx/mCzwY3PM+ueBpf80k048AsKZRFtx/zKBwKL4oazdKn3PqMCzvm0o54Ux1wVo45W4y5XuasliluEaGqFrBTSGfiPfPum7rQ97qyA+QDYAFECxK3AAceM655NF7yfHzNV8NLvsnP+So555mZc2yEkU5IVQzEODFUYqnEUoqjAZxAg6JQloGuGOuS4+iWJ/GM83TCm+yAt4MJp4sxV0lBeZfgSoOuNMoCrl3brcKkVd46ju41wxbxrkde/92uP5cLMrIMD5f87PCaF5NTfjN4xbfJKc+jholOiMjwCJU0XLiKmTe89zk37oC5z1n4lMrHW5/WymPwa7MempJPklu0kvWzK6BSCR7QooMJuz0KacN39KDaOu+3x9VJuw4lc2Sjik8nM15MTvm34ke+ii84NjW1wP82Decu5WUz5WX9iJPVEaerMe9XAxZVQtNEuFYTWgvGeCLjyZOGPG6YJCXjZMVBvCJWDusNiXYM45pVGmMbg200EgnKgUJtPPROi9aq2gPy3r2SdTjwsaAyR57WjJOSTDfMXc538pTfugEvqyP+Pj/mp5spN9cF6iohvtXEdxCtIG6ExIeQ4yOFj8GlUKewGgi28EjhSIqacVEyzkpSY/GiWNlgAUp7MAKadWjcitm9uB7tCxsKuR8uAOk8lmY9uPOa62rAX+Qpf5ZnXK6GnN+MqN9npBcR2SU8ee9JbxzxvMKsGlRtUU4QoxBj8FmEyyPswNAMNfVIUY8N9djQjCIuRynXxYA0bTAmoGiaCO/MFhHpU+k1v6ZHAT8YdLtg3wX1rq8HKQ1zybm7y/CNRi0i0kvD4B0cv3NklyXx9Qp9u0SWK6gbcJuFpOIIHceYNCFKE+JRRjxKicoIXRt0o9C1xtYKW2qWWYyKPWgBrxCroNFg1cbDquCQ+iARdZ/U37PvHS4rKoDUtYLGwCzCVJDcKrJLoThryE6XmMsZMp8jZYVzHrRCGQPGoKIIjA7XKGolE1TlMLElWmqSSOEjjejg/ZTTuFrhEx2sSUA5Fdamb+9bee/RRmSb1O964H28s1sDugpBO1pBMhPy957BaUV8NoPLa9xyCc6hkgSd56g0gSxFkhjiCIk0PtIBpAq8VYxGEo03rSP0oG34Sa0QHQCJCh5WdTTzA9a4Di+7AO/F0V1eK6AdKKswFcRzSGdCemOJ5hWqsUgUocdjVJoggwxfZPg8wmURPlZIpBCtgvdWCtWncwpcrLCZxseBaXWuoQsfSgL4NTsiODV0G9/3ZDY9wvDwQt1MRDsZDnQDpgZtBeXBG4UdJphoDEcjJDa4LMLmBpdrXKIC99Wt9nqecnf2fUTonwZP7GOQKPiHYKZh6Wi7AR94NRBt572dJW6A7s3XtidgKytpX/lI0QxAtMEWGuXT1gwVLm5DRycEG3ABrNqb2/oYfAIuIXBmswn8ygbz1RZMFYBKq3GvWr6re1bYTura63YkXj6aq/VuDfgUGqNwaRBgS2jdalC3GuwD3dUoXUxtQWYhMfBRkEs5FbitgK4DSF2BdtKarcJ/KHu592RPqWOdHaACl+zRQBQoDRKp7eSaTT/RGxPqAG6VWvoTlwg2B5/7kNK1oYRaQ6PQVoVlU0rQqG8nJ+7nv2rN6LokbA30wSXaj0lI6+5Zm7A3rePsPrIP6O61D7bX18eCywVXeFRuMXGYOd9oxAVBdANRCaaEqJItv7HOVXWrlDbsi+yElwettssIVMualNqYngTBH6oArCdrB+RWrNNtLpsKbugwo4YsazDaY52mkgRH54TArIR4JeimpaSmm+hWK551FhMcmNpkL7JjRnvl7bMPvZ7M7Zdthy3gW9ysx7I62SJwqeALRzRqGA1XDNMaL4pFlVC1a9RUimgJ8VKIVh5tBZfodhy1xXl3K5lrjX60orZj2+sY2zka3XvpZTv738Ob14m7CSbrBx4zajgYL5nmS9LIsrIxyzrGW43uQC6E5M5jVi44oFgQrYNn3rUWtYmr0b2P99qHwEvPHLfWcS8eqi2Vb4/b/b9o8Jmgi4bxcMVxccdBssITspTaRsgyIp5rklshvfXEdxZdOXxiYKBD+cZsxmM9tmyHlz7If7ZWuha4dUoK1g5K+S0Pdm8O16HMhHUpuaMYVhwVSx5ld8TKM7cpyyZmtUyIZobkGrJrIb1piO4aEMEnBh+pUFHsNMrG2rr1e1+je9oHSX/r7WDjdbe8b2+GVU8AaUOTTwU/dGTjikfDBU/yOeOoYuViZlXO9d0AuU7ILhWDd57ssiG6rVCNQ5IIn2hsqnCJ2hCSnh/plpVPJGQvu0Xh/ai49363fnsPZG+t9Ceu06QbObKDkmeHMz4fXjONFzg082rIxaJg9T4nf2cYnAuD84bkaoWqmjW9bAqDzQNZ8WZbJlFAC9Lnvlcz2gPsnjY/Uibcqtjvi5eduSYhjGSHJZ9Nb/hydMlxcgfAaTnh7d2E6/dD0vOIwduQ+iWXC9SyAmOQNKaZxNQjjR2E6sSutw0sqwU5ru+b7m4Q33rXn4+WLiq26d1WxrPLY3UbRkaO/HDF59Nrvh5d8iy9wSjPaT3h5eKQ08sJ8WlC8RpGbyzp+QI9X4FS+CKmGSdUY0M9DNrs1mH3Hd8VzXPBjBqODu4eYEZ7TK4fC7eYUt/Z9DXZbz2QUlgGhys+O5itQcbaclZN+G72hB/PHmFeZoxOYPzSkr2do2eL8I3hAHuQUR1G1COFy9uspf9t08blzMMwxORPivmeUso+kPv+7rDL9mzeIx46rB+feRhZRgdLvji85pvhOz5Nb9DKc1of8P38Cf84O0a/zBj9BOOThuzNHXp2B94jRY49yCmnCeVkx2S7ydWhzuxSQQaOYhSc3FG62CTea2E7zfXZzG7rvZf+M+htNtGa0QbkwfSOLw/f8+3onKfJDQbPeTPh7/Njfnj3CF7nDDtNvrlD38zBOaTIcdOC8lFCeaBpOpPtNq1a7yqRrJ2PGVhGeckkWaGVPFAc+1As3XJePGzmdEVuD+OGw+kdv5xe8MvhOZ8lVwCcNxP+Mn/Kd++eYF8VDF+pdk0u0XfLMNRwgDssqI5SygNDMwwJuZgeSNM6uTaLIfHEsSPWHusNsyb7SHGsI/I7taR+53vplhDMNQZXePRBzZOjGd8evOPb4SlPohkezet6yh9nn/GXs6c0LwuGJ5rRa0d+tkLfBccjowH2cEA1TSkPzVqTayZkWoqnN1rFbCqVjdfMmxRfZ+0Zhg9Qtm06t63N4HVl67mY4HTc0JNOV/zs6JpfHZzxbX7KcTSnlJh/lMf8/vpzvn/7BPUyZ3wCo1eW/GyJvl0F1jPKsZOc6ihea9JmbVlF9yjkrnf34Wcbw12ZUtYxjTNEW0dnPlA36koZD5n1OgvJBD+yjB4t+Hp6yb9O3vB1ds6BWXDjCv66esZ/Xv6cH18fk5ykjE6E0cua9N0CfbtsQ0iOPcwpj4LjaUYKm7OXuHc0dE0/nUJqjSViURukTdoj5Tfgdjad7xOIjsvtAFyb6sCjJjVPjua8mJ7xL6PXfJm8I1GOMzvhz4vP+O3FF7w9OWLwU8z4xDN8WRKf36LuloEMjEIIKafB8WyFka4iuCOA6mooirBh7DVSapQHUyriO7XDjPptd6tCQbfT2p+QDdPxxAclnx7NeHFwxq+L1zyLr/Fovqse86f5c/5w9hnzV2OGJ4bxiaN4XRKfz2C5gihCxgXNdED1KKGaaJoiOB7f86z7z+a0IrYUNFQIFaYMNefs2n+c1PfUeU+TfVMdHK74+dEVv5m84Rf5GVNzx9zn/HX1jD9cP+dvp4/RJzkHLzfr0VzdwaqENMFPCpqjAeU0phprbLFxPGv/4GF9DmBHlm4TWPuupgTJXMiuPPlF027tP1TmbPdId5l8t8ttBx4mDdPpHd9ML/nN6A1fZ2cUuuLCjvnj4nP+6+Jz3r48Ij9pTfV1TXI+R90uwj5MluInBfWjAeU0ohprXK5wCdCWaARCltTVg/oERW+JFsotNtScTQlRKejKdadSZKvzRmXbOWpnqi4BN3TEBxWfTG/59fSUF8UbnsfvAXhVH/H7+Rf899lzZicTRj8ZJj86ipd3mLNrZLEIwhcFfjigmeYtrdO4LIBcx8h+crBTjd+qQQngQtGw026gnYpmHG+OyK0LXdu4N2ajQmB2CbixJT9a8eWj97yYnPIif83jNnR8Xz7ld9df8D9vnyIvCyYnivGJZfBqjr6chV21OEGNCuzjMeVxxurIUI8VTRFqul09V6K2rmsEMRJQ9OO2D2cYsKHmq9msZR+DzRWiNU2u91cBA67WGbWeVoyEwnLhSA4qPp9e86vxGb/Izih0zXs35G/lJ/zu/Rf8cPoY9SqjeKvILz3RMiTK7pNDfHpMPUkop4bVI019CPXE4wcWlTmixJGkliSy5ElDFlnyqCHRlsSELL92hnmTcbXMmS8ymkWCXxiU01tARYNPFdYS4ui91s8hkTVndalA7hgOSqbpkoGpWfqUK1fwqpzyl5unnLybIucp6Uyha8GlisXTGP88oRkq6glUU487tAwOVhwPl0yzJeNkxTiqGEcrJtGKiVkyMiUjvaLQFZlqiJWjlJgLO+aH6gl/nn/K9+oxV41BVoZ1McwovAIi8O1Wf4ijSrbJ+Q7jCB5WkNijI49WULqIs2rMRT3isip4NT/g4mqMv0qIV8EK6omimoIdQDPx6KOKJ9Nbfj6+4pviHU+TG47MHSO9ItMNharJlGOgHJmCWClipYkxxMrggZlfkKmGMztBq1D39Y1B202lUQzrqqS0Re2oQ7I21R7ItVZ1b9EDlTVcrobM6pzKRuHQ020GtzFmFcynGUuovA+Dqf9sOuNXB+e8KN7wVfKOT8wtA22JH6BaS2mP5Ag4PI3AQhLeNo/5vnzKn2af8sPVI+YXQ8ytCfu1bf1KtKx9jWpTrO0qYOvLu7RtK7XstOsVVRVz5TUiUFcxdhmhlgazClVtH4XUTAaOdFTxeHLHp8WMaRwS6Hd2xI0b4NA0Yih9TCMRS59Q+pjKh/uFTVnYhKVNWNiEeZUyW+SUtyl6FkqggzLs13qz2V6Udkd8XbnnwVMpQd2i6HbdNy7bamxj8E7jrEZKg14azCoEaun61wqvDRUpb5uIi9shf4qeoZXgReGcxlqNdwZvFWLbc39OhbN/dRhP12q9exYthfESpitPVHoQH8JHoakmimYIXm/Us96LYc+plK0speWxYf+iJcyNxjuF9wq90sSLlksuQdcbzrmuniuzNo0uoBsnpO2WvXJh6y/cS7hvPLppr5VD1w69aqCqUVUTPExkkCKnOSrgcYLNQgwWA/SOBgRT/siplK3MwCl0FTQVzi4o4jkkN0J244jvHFHpwsJaT5igvKCcgPfhaj3Ke7CufeaD4M7THu9EvAdrQ3WhsYi1uLrecO04QY+HkMT0TzquNajYylHFSDg51ndEWxbcC86BWgWT6g5oZFee/LIhfr9EzxZIWQVaJwJeQDzSAekE8h6/vg99gpStm+y2JfvvANWeZlFJgioGyHiIPSqoDxKagca3Rew+uH6pZe1192YrPc2GcwsKs2rJ8rWQvbfEF0v09S3+do7UdRBQK1SffOsWhFJBUK0CMN06AaVRRoMxoe/6efiJ0cFUY4NPY9wgoikimqGhLhS2CPmqi9kcfO5AtmLcP2q+rwbUneOxYSNWWUIOqEBSgwwytNZtdFZBqKgV2oQjNqJ1S8g74durDkDEKKQ9VxSEDO9ojwf4KGjMxQofBz7sEhUoY9zuvncEv8tRO8YoPa+7VRvtO6adFvYyFdVI402MHRj0ozxsytLRL41ErXB7Tp/0J7U7tLExM7W9vnqEvtsD3fceNhlO64q2tkz+Dxzk1m3OLqB1AAAAAElFTkSuQmCC;" vertex="1" parent="1">
          <mxGeometry x="400" y="240" width="58" height="58" as="geometry" />
        </mxCell>
        <mxCell id="6DF6oKiKQpFTNXZrsH50-7" value="" style="shape=image;verticalLabelPosition=bottom;labelBackgroundColor=#ffffff;verticalAlign=top;aspect=fixed;imageAspect=0;image=data:image/png,iVBORw0KGgoAAAANSUhEUgAAADoAAAA6CAYAAADhu0ooAAAAOXRFWHRTb2Z0d2FyZQBNYXRwbG90bGliIHZlcnNpb24zLjMuNCwgaHR0cHM6Ly9tYXRwbG90bGliLm9yZy8QVMy6AAAACXBIWXMAAC4jAAAuIwF4pT92AAATTUlEQVR4nJ2aeZMkuXnefy+AzLq6+prpnmtnd3b2Eq0jFFQ45CMsKeT/rOAnc/hz6QjLJr0kxSXNJZezO1fP9FF3ZQJ49QeQWVnV1VxKiMiZ6qxKJB487/HgBeT5//xfqkZB2DTtfhZMDeVE6F0pw4vI4PWK4uUV8eI9cbnClAXm+Aj/4TnTj0dMPjbMP/KMHsx5dnrJ84N3HNg1hQmY3LmVyCoWXNYjvp7e45v3p6xfDxm8tBx8p4xeVvQuFsiyAlV0UFKfDlndK1idGtZHgj8AP1DUKWpoMbR4GkwCrgGDdNHl771gKygmwvCtMnxT0381Q95cEqczNATcgzP80zNuno+4/syw+mzFn3z0kv9x9iU/HPyW567ixAywYggasWLa/msNLLTimzPh508e8Q/PP+Ef3jzjzYsTBi96HLwoGb3x9C4WmNma4mqJqSO2KjGVZR0EouCHoD1lizDZxuJusZl/ZGrBzYTyBoYXkdGrNcXLG7i8RqsaGR8g946Zfn7M1WeO2RcVXzx/xY8e/j/+6+D/83ERAZhG5cuqZqI9pnGIzYyG/FLLEEPk2C74L+Nfcb+Y8dOjx/zs/CHvHo5ZfFtw8O2Y4es+bhlAFTcP9AohOoOKgBG8gWAAs0OYpsu1dHdIlVpwU6F/qQzfRoYvVxRvbtCbCRiLPDiifnjE5PmA6y9AP5nxt8++5q+Pf8Ff9F8wlMBXdY+vq3O+Wj3it8t7XK2HTOte+/6ogjORgas5LFaclnNOigWFBJ70r6nuWb5xnsvBIdVRwfKsR/+9Us4iplIkKMVSwQCS7VQh9kCtdkAmgA7dpllqoZgJ/ffK6E1k+GqJezuBxRIZDgn3j1g9HjJ56ph8AsPPrvmPD1/w345/yZPiivdxwD9X9/k/82d8efWYl1dHrCY9qAxmvTFbSL6kpSIDT39UcX8853w4ZegqjCj3hwvifcO0P2A6KqnGlt61pZgqxUIxHtxCExZNZhwUQg/UZOIy5pZR0eSTxVzoXSVzHbxdY68WEAJ6NKY+O2DxqMf8oWX+VCk/nvInZ6/5ZHhBIYHv6hO+re7x48kHfPXunOnNAJ07TGW2A1wzqV6QIGhdsFxZvlsVXB/0OeyvcSYSVegVnjhaMQfWpkStJRaCugTSeHDLRJ+oUMfMbKmo7fhoy6iCqaCYQv8y0r+ssfMKjBBPxqzvD5g/KlmeCctzRZ+seHbvkkf9G4Z2zYUf87Y65OeTR/zy4ozl1QBZGYyX2zFAtz+LF4iWGISZN/gDmwCqJOtTwbpAGAT80GAqwdSCeJCo2EoTUa2pCh4IvWzatFE3BZ9illJI/ypglx61QjgeUp2WzB84ludCdaT4+zX3j+ac9hY4E7nxQya+zzeLU359eS+BXFgkbgeEDZXcYlgiSGWIAispiQNBVdAoCXBmSp2ihRB6iRjjBVtrxgB2rUQnqBPUQix0k16MF4ocfPrXATerISphUFAdl8wfWpZnGeRhoH+05mw047BYATDxfV6tjvjd5IT5TWKyzVayA5A2PmwD7QRCXVlqq4hRojdoTiMEQU0afHRCGAgmJJMUTR0YD24F6iBaUBG0UJyabLIzKCcpdAPEgaMeORZnG5BhoDAIjIcrDoo1AMtQcF0PeLMcc3UzQhcWExrH7wCTjGYXeCdANp/FG+LaYsqA1ga8bGbHKaEUZKCoFVQEZxW7TpOgBohg16BGwCjBgLMrociqp5wGjFewgh84VieW9angD5TYy4qmjBQ24KNhUvfxarhaDbmYjfCzAqm3I+styrosd9VLBygRqA3q4u0JKSPBKmAxLoO1yUyNz2abg5CE5JLRgXNLoZgpxSImkAKhtNQHhvWxoR5DKPMAjGJsIKqwCgVRDUtfcLkcspj3k8lGbjXJtCZSkj+1g78jUEkQNBjEarrVWIRVpFQCoEtDLEiXE9wy+TEmGYDxoGswFlwxg95EcYuIeEWN4AeG9aGhOoTQT+FMIkSn2JyMQzQso2FWlyzWBWHusLXc9r8OGw3gFtMeX00/1MyqQD+y7QOKWIWBJ+IgQiwN6kBtkqytq+T3mlpwdqmYOoXh0DPEnlAdGFanQj1WouuYXBExJmJE8WoSs7WjrhyyNtsD/76UsruO2NKoyd/EGzQoNMEIQNN7xMVk2lFQE/FGUAzMZdtiNEV0Z6v0fHQp39VDw/oomWwst0cjThFJbNbBUgXLqirwa4fU3R/uAG5ANsw26aYzM9J80X22TmmCKCnXKmBTbsXkHKnpsxYQhhGJBlNv9KxEQQI4WykmkH3T4PuS/HKQlz7NQDT9o5p0ah0NdTB4b9Egrdzc2/YFnNZfdx5qJiNm/V2btCqJkvw/ApjNSqWJ8Ck+EQuQkFWRAWJyOweJTRVJIA+yyZa6ZW4NaFXBB0OIQuUdIRioTdLUXVJ3WOyC3sIqunNj85woUAmUKbBILQgQayEGkk5em8Rug9emSEyTanK6cSpCtGkGQg9CH6K7PUB1qTNVaa8QDNGblOSbqAhthN2zxN0CpJ3IK7p/Wdww2/q1BxtAgiFGxVSd/NlYVQbXRF8MSTBEJ4QS/EDwg6Q82hc0LBQR6yJF4XE2EhWk8YMgmxXEH9o6qaVVRXdNDNnXfIqgkOIFIq2+bccrG4UUDahN951aMptC7KXSRNe82lZGytLTLzx95wkq1MEieaH7+wZ5d5lmD/Dd3CpAyEyuBePTb9QLKikIddOX5ohNwp/WpgZc6GVGB1AfKGEc04ORLYZMESlcoO88hQ1E737/wPeB3Ixmc7/jn9pd6HT93afVivFJrpKHZ7zgi53MsPGeZNKFolZxoS/EAvwgXdoLKZKppIilaeacjTibdbAKoeOj5i6Qzf19YLs/kf2fm+fbiC+bmWj8Ugvd5NgO0FR5yCnIgIsuBZ9Y6CZv2pzoVFBNUVGMojmtVMGyrAqqdQFry962zyz3AZU94HYGraQxGgchfxeLlOdjoWld2vw2+2y0eSKybExAixxpXVYhjVOb7RQTosEHS4hC7S2hNkh3pXJHShG9g/BbTHfzmWyZsmYyTL6jLudKC8QMML9bNJVXJKYgpqEppXT9xUtLd3dplYklRCFEQwgGjbIVnbf8qzvmu8DtMt12pG2+acCqTSsTiek5zalDJUXfJkW13ShtFQIBJzFFNBMgekkP5bza5iQgZnBC8tHGRLpMaB617Aab35d19mneHVtuciECahSJOx027+88u20cmoE20qqZSHJ+MhuTiN4QnEGEbZBbaWEbcHrjntRzl2pqutry4R3ZpDn3NQJCpSWj26lqzqFOwSlOm2CwE6JTjWYze+oNwdukaUkK6c5Iu8fXtr7qpph9YLsSuDOhLSmafI+orQLaarlvdQmolDEpo0Y03IqAXTBBiDFdW0D1rtE2L9z+rjXv20/cmQ9hY3UN0NZSoqTVi6RU2O1HnUIZMWXY1HVvvXNX6zYZpwEa2awoRG6b2/ew3frTfne79bcEySxmsLJhOM1nx5UyWLWK2Ii1MdV1N+tD2tXTBiGbGcpivvnc9bWt8eoe4LCHRt0ToWUznm4XIelXExK4SFJM4jNzdwgTsZqASkzstCax2zr+K6IbIS+6Y+ad37PHz+5ajv0hrfHPrHkbwRNDvpdzefuaJi1axRjFuZAL2N2BdmemE+i23tswu29iOmBkh6mt33RlT3v/7hnYBKEMxuTPnT66hqMIuIh1gcKGvHpx+bJphrogu4NTTVXzdoAN2KaksXnLXoa3+/s30HpXH93guc/XjeZ0KLi0Y5w3ZYpUc9nbgqC1od1l8KYNDN2Syy2W72L9Lpxdn931X+ncE7Z2uW/1r6DBEEJaTrpYpgeiYyP79jST90W00cJBkKx1m+rD9y7ZdgezC/Cu5zrMNSqpXb3s2fhta8tBiMFS13lL4nYu2XmPgqnSG7RIW+gSUnVt67d3pNR/d9vpu8n5rdY1nQJeU9TPQj4W2wNx7e5wk9+cbpcu8wu7MrE1vUb83zGwrfv7IvQuqLvMufkuX7pjtmnCU1pqxqk9UtS1AeciriUzCoScZHeBdmSi5nqqktJF3JeWuhJvX7sL9B3W0VVFTbAUaUSEpnzagGyIcIopAmUZ6BV1Wo+mcK3tIlVtMs0tx2/8EDbsGxBScVm7Ff27gH8f6DuaqQW7Fux6U0qRIv0fe82GMK0jx56iQ89wVHE8XNJzHofTzaK1MQ9LWsp3x26bWd0UnxrZZQKEZlnXbbv9du99X+t4lF0Jbpm38puaUZE69nUaU1co+IFS9D0H/TUH5RojitMibmouRnN5P0LoVA8yq6aWBGj3PI9uD65t/1ZwnXe1fwq5zJn2PG2VOguaal3NXqyapjatcFJxNF5yfzhn6Cp8NB1Rr+SiGG2a2artavIPuxZiNO2pD/GSfUc2x166g96djD9kIpRNItCsb32u1ucxpVJmE5iSFlCBcBA5GK84Hiw5KNYYlJUWWQJa3ZQ3hcyqpj2VsD0GU6cRNqDaCntI6uquge9te+7vbmWYSjBVYlJCCoDqhFiCH2ahY1IMiX2lOF7x+HDC49ENI1uxjo6FL/OplHzKq1HFYlKujAqm2dxt9GVoZlXyOhCk0Z27KmlPu7PQfYfmtStpmURSDdr3wQ+F+lAJ+ZiNFhFzWPPwZMrj0Q33yxlGlLpOm9VGapNUjtG26g5gXIQibkVTtck3pbNqaMV2ZxXRzXl3gtSdawektK4CptZkMZL8MvTS+T8/imipqXo5CByOlzwcTTgqlvSMx0fDtO5zuRzi8AJFBmpju7AWASkjmk+FNNW0dLhDMDHNZFrl56BQa+s3vxfgXW1nN9zW6bCUXZGO2EA6TGXTTny7DnVKb1TxYDzlYX/CiVsAMKPHdTVguuhhJJA0oU8VPusCxijGRFwRkH4g9uKW9IK0HWA8bcpBc3mx7jCie0x1K9XI9tV5UJScO9OBqdZ8IZ8fyn04xR3UPDye8un4HefllKFdU6vl9eqQ19Mx62kvRV3xkpgrYzrKUtZtbhWj1KJEda2/qlGMl01O1Y2PWgOYPRF4X9vnsBmzyWymQ1MgMZ2vUJMOj8QsYOzIc3464YvjNzwfXHBgV6xjwQvf581izGQ2gLVJUVe8wMoQxCKSSg+9wqMqlC6wMsoqptNb2vhhTGF/q8IXwayFuHNQeD/IDam790yVDniV1+k0p1s1Skxodhaaw5InR3P+6PgtPxi94tTOiBh+V9/jt/N7vL4+JExKTAMUch70huANqlC6QJk3lfplzdRGFtInqkOCwdQg9SYatoPM23vtBtAumF2wsv29qQQ3F3qXyuAqUkw8JiihNOjQEEvBDxUOPMcnc35w7zV/Pn7B0/I9hsg31RnfrY55NT1kPS/TJrVhu5QitaBrS1046rJmUNSMinSkdFjUXNrAxA7wrgBsOoe32phtm/t88ls/yLm1Y8ZbNeR2sZCSccPk4CIdoe1d1Zh1QJ0hjgzVobC6r4SHFefnN/zx6Wt+ePgNn5RvAfiuPuGrxUN+dX3G1WSIrmy7E7cBSjbhtaE2BVNRrFF61nPcW3LWm3FULnnTG/OuPKAyPUQdEoRing4bJjGRApZdJ7EfBkro7Yj+jpkCmLXBrtmAfOXpXyyRlUf7jnroWN63zJ5C/fGKz5+85YcnL/jz0Td86C6ZxD5fV+f839mH/PTyEW/eHxGmRTrfQANUt1+c/NVSU3IjYEQpbeCoWPLh6IqHgynfDo75dnDEVXmAmhLRpF7cUrG1YteRWAjrsaU6EqpxUjFapB2x5ryeqfKZ/anQu1YG7wLDV0vs+xlSe7QsqM+GzJ6U3HwKfDbnPz/9HX918kv+rPeCsam4jumk9z9Pn/Hl+0dcXI6J02LrELQiO1XArEmlSkKy0pLLPBGl8Zz3ZzwoJ5yVUz4YXvPr0X1+Mzhl0RuiJrHi1tmv1p5+YfEjhx8a6oEhlEIspVVYbqW4ldK78hTXK+zlDJ1MQQQ9v8fqg0OuPi+ZfBo5/+KCv3vyM/7q4Bc8tTMKgW/8kC9XT/nHyXN+9v4h796P0dntg9Ci2UfbJU6H3ZQPE7OXufpXRYeTwJPeNT8YvuJBOeHZ+D0/PX7Ey4NT/KAkvLSIh/67gLuc496GpD6sQa2FfOBfQkCWFbKq0NkcXS6JRYE5OqR+ep+bz4bcfArx8xl/8+xrfnTvx/yw95ojY1lE+JU/4H8vnvNPN8/45fszrq9GMC1yyed220RdvR0dpU7M1t7w3htWtWPtHeux44vhGx6V13zaf8MXwzd8efyEf3n8gLcXh0xf9Ri+PGD8YsDg9Qp3MYHLa1gsicslqKLGYvo9GPSRgxE8Pmf5wZjJRwWzD8F/tOJPP3zJf7//C/529As+cBDV8C4Evqwe8vezT/ny+jG/fX/KctJHFhazvn0WsUnVLdBbVfeuz0ZBQ8nUG6rKMa9L5r7HJ6MLPu+/5j/0v+Oj8h1/fdznN0/O+OrTB/z84gHfvhwzeDli+GbI4P05xSzg5h4JkVhY1mNHfWBZnQirU2Hx1HPywSV/efaKvzz6Df9p8Gse2IqxsVyGwK/qE36y+pCfTJ7y1eU5V5MhYVIilWyOAO0AbPD8K/+XzjGMoEurAAAAAElFTkSuQmCC;" vertex="1" parent="1">
          <mxGeometry x="400" y="160" width="58" height="58" as="geometry" />
        </mxCell>
        <mxCell id="6DF6oKiKQpFTNXZrsH50-8" value="" style="shape=image;verticalLabelPosition=bottom;labelBackgroundColor=#ffffff;verticalAlign=top;aspect=fixed;imageAspect=0;image=data:image/png,iVBORw0KGgoAAAANSUhEUgAAADoAAAA6CAYAAADhu0ooAAAAOXRFWHRTb2Z0d2FyZQBNYXRwbG90bGliIHZlcnNpb24zLjMuNCwgaHR0cHM6Ly9tYXRwbG90bGliLm9yZy8QVMy6AAAACXBIWXMAAC4jAAAuIwF4pT92AAAVq0lEQVR4nI2bSZMsyY3ff3D3WHOrqrd0s5vsIUXNSDKdZDLd9BGlD6aLDrpouNhQJKdfv6XWXGLzBTp4ZFbW8no6zNIqqsLTw+EA/vgD8JLf/c//oQAIP3vp2XPRl387v47PX3z/+Hnx8CsvlVee6bN36NnYn7ncacDXXvZsHpXXhX6+kOeDnqz5+aL+jUW+mPv5d/+NtQO4V1/2C774RMAn9/Ji3FHM05p+TguvbfzXLOT5d37mcq+a389oTPRMq/Mn3yuYeVXH76f51yR5sTrPdz6nvLLwkzQ/s/JfagXz9dJ0n2n2uIAnfnkuICAJJEr+pMd5VECdkgoFCyqahU6cfh7nfuFzPPv9fEOO7zdPweKrcwDul5jpawKKgvFgvOA6odiDOyiuBxMVNRAqwS8NfglhqcRa0WL+HFf1GnI9eSln1vBoGc8FejHNM4275wNefe05WiawXrCDUBygfFDq20h9EyjuBsxhQHxArUHririumDYl09riF0KshFgK6iA5UDNvnnm8PwcYScwWACbkzZU4W1FSVAS1kApIJcQSUqX5d3d0p9lH5Wd2Rs+ElAhmFIq9UD5Ac5NoPnuqT3vk9oG0P5D6Hg0hf8FYbFPTti2LRYO2NVo6UmlRZ9DCkKzJQlrJHyMvAEmSZkF9woSEBEVigqSoNcTG4deWcWWZNsK0EvxKEfuoOIcB4ivqPAccBQmCHaDcCdWt0l5H6k8j7ssWHvboOCIiSNuiquA9GhOp6+BwgC9ZcLEWYw3YfI+1YA2IQZwFY55Z05kNxoimLCApL1qKArdZYYcFaEUsLaaVF/7qYDYZfWrWJ6AJgvFkLW6hvk3UN4Hqusdse8QHWLbo+yvioiRVbtZ+wnY+m/LuQDp06DCiMaLBn71IQSQLLQbMDCwiWWhr8721TzfACDgHTY02JbFxhMYQa8nma8+QXI9g9BzRjpvpZy1uZy3eRKobj9uNyBTQtsJ/s2a6LOmvstmEJm+c8VAclHK3prpPlPcT9uCxo4cQkRAhJYjpJNwTLYqg1szCGtRasIIaA86QSktoLGFp8a1hWmWTDUsIM+g90agEQV1GydN7FMyU0bR8gPpGaT8HytsB03mwQrhsGa9KureW8UqY1hCbOZQIkPIcxgt2cNjRYUcwXjNaB7CTYoLm8DKDy3k4USM5RFnJGrKQXNZYWEhG84USS0XLhLo5TiVBJpNBaw6Rzo4QT4iX45yZBHc4E/LLLOTg0doxXVT07wr6t4ZpA36ppFJRy2lmMTP6VTm0vLgUTJATmTihq/IKGZnvmeNyregi0KxGNvVE6TL4Dd7RDRXDvoQo+TPL7kwQYoJjpJcAtheKHVT3SrWNuD5PFNY100VJ/9YyXAnTBmI9C3m0iK8x/ZO5PA5JRp/ExSes6Sxe5zH5S+pAi4QtE4WLlC5QmERIhpQMwVuYDOJl3sgs0xMKmJF1jo9bpTgk7JjfHBcF09rRX1mGN4JfK7HKO8zjPr3Q2gvKp3KCgRfPXu7JaR4ALZRUJUwbqOqJ0kUECMnQe0c/FoTBIcGcLMSMguvBpVLBZJM90jiAWAnjxuAXBtSRCvArYVpBaPVRwJhR+Wh25+D2ROajxmcTxMxKOtK4EyGRMy0+cgctlLhI2JVnsRhoq4nCJKIKg3cc+orxUMJoIOSXmAh2gGIHLlYze5g1Eme/6t9BqhJaKpQJVweaduSimrCiRBVG7/DREoIlRiGlpzFQRFEVRBQxijGKiGJtwoiiQAiWaXKkyaKjQSaDGWffBZKdXaONlKuJq/WBy7rHiDJGx26s6MeSqSuht5jJnDZbs44IDTitFIJgUral2Cq6jCwuer7fPPDb1Q2/qe/4dXnLhe0oJODVsY01XaoYtGBMBUMqSAhRDenMH+LMwSyJygRq4zGS8MlxF1p+Gjb8eNjwebuk0xr842alQkl1QhaB5Xrg2/WOd/Wexnr6WPAlLhm9YxwKdMhCSnzc6OTAr5RpDU6NYua8S62idaLd9Py7Nzf8l4u/81/bv/Cfy8/82lVUUgAwqmfQwKiJSRWv2SDibH9xFtSe8ckCpZ7lHxQ+xYY/Tt9gRLkdW1QFfAYRSUJySmoSZuXZrDu+W2/5VbNl4Ub6WDBMDfuppBtK0mAR/5gNobM2q4TWCbsIM2E4h/XZxPKCDV4dkxq65InzwtM8YyWG6swfLeeafHTW8793GnmIjv/n3/LP/Xf83+23/O3ukv6uwRwsxkvWZBspNiPvLvZ8v3zgu+aB1kx0qeTBN1z3Sx4ODb4vshUkOfm/HDGgVOzSc7nuMmF4Erui0PclP27XhGT4NK75P/VvuHQHavEYUUoJFBIpJGBRCgmUEjEk7Ay/cUaf8993qeGDv+RP/Xv+uH3Ph+2a/X0LO4cdTHadRUI2E+8u9/ywvuN3ixvel1sKidyFBQ9jw6duxc2+ZdhX6KxNOSb5T/LmWTEK7uj0mGx/MhpiKrntHHe3S/7ovsG6mAHEKMYknEk4myhtxJlEYSNWMsCYM3M1opg5NvSh4LZvudu2xPuS4t5S7IXFlMeGFqZLRdYT799s+f3mhh+aWy6LAwCfpzU/jRs+HDbcdw3TWKCa160FYJn956jWzJDi4HigxR3t+pzESxQYzNHcCfMnD3g6/mmOd/ZTckUBmTlzZygfhPW95hjdJyQpsTSMGyEVeYGahG1X84f4nj/wnjFYhr7EHwqks9je5LxUoZhRNbk53MljXIcc+ugsqbcvE+8niz27XhXs2UNJZyYjuSJgvGA7oboXqjul2iZcn1ARQiOMa2G8zPmjOkU7R78rGMdMQ4udsNoq5U4puoSZ8panQgi1ITSCbw2hhVgf+XZG7COthbMq4Mm2T4t/KrA8EfZsI/Txy3q+QXFmWXuhus1JenUfsWMkWcGvHNPKMF4K0yaXWSQIbm9ytnSnp5SwvO2RfY/0I8SYU7bCoWWBthVhWeLXBePGMq2FaS2EhRAaJZWgVs/KnV9R2LNcPIcheWXg8yS9F8qtzElBTu/MGNDCEtYFfpEX5Je5/CFK3pitUN8qzU2ivpkorjtke0D7Hp08Gs8CpTGIc5R1RbFoqFct/qpmeFPQXwnTheAXEGt5vdz5vLSiZzUcTkRbnpjpKTU7M9X6es587ibMENDK4peO8dIyXOXMJzaKWs0EfCbhKhBLwS8dKgvsqkJ8RKJCSEiM4EPOaUOEGJFDj/UB0424Q4vravrBzhZzXu48U+FXE5DnXPa8nhQEczTVe2iuE/W1p9jnakK4qBgvC/ork/PX2Vz1iJZkIAmLDEzThWC8QUIxF8P0SYHMToobE7ZPuC5iuwnTe/ABe9fRRMWEGhMsqHkm6FcI+enZa1eSnEQPGTjKe6W+U6r7gB0TsXFMG0d/mbOeaaOEZSJVKVvHXN+NFmL18kXP4+PRNSQJxjvsAK6DYl9TbRPVQ8QdAiTFTIniYIil/vK67osex2zCx/z1WDSr7xLlLoNOrAzjpaN7ZxmvYLpIxDZBMa88Si4Zzbv71bRNzoBOM+NBILaKX80JfADXWcqtpborqHYRM1cwiu4VMHr1Ok+Mz9YiCex4LLko1VYp9llINRlZx43Br3PJIxU55KgHUXNqWRwnP9V1z98748FJs4mzoD+jvc0u4N2xtivE0lLuFeuzsL9M0ONOPl/Esaci4BdCckJ/VYAUOb6tYdok0jJgmoA1OTVLwaBRIJjMZBKPVfjzd55CmOZqQ8oAKHEu18ys7sjRk1O0kbkLkLlv0YHE572X54K8IuwTX0mZmUwbJb3NKRV1zl2Xi4Fvlgcuq46Fm3CSSCp4NQyxYIgFY3D0oeAwFQxTwTQWRG9Qb/ImvLYBz8suswtpEsRkBE+lEBbZpAHsdF5KOY+NKo9h5PwFRwWmxzGxVNIyUm0Gvr3Y8cPqlt+1N/xQ3vDObbGSco6KIaohIiQ1TGrx6hi04C4s+Dyt+Dis+dytuOsaDl1F7B3qzUlYFTKnNaBJXzaVjoqQzIxCk+msWn1KAfUcFF7T7JlGRUFNruHYheft+sA/br7wnxY/8R/qD3xvH2hNIKrgycm4EcWeTZiFFg5acBOXfFxc8OPqkr/1V/xtf8nn3ZJuX5EGB15OSfWp9zS7j8y9GTkS+jkfTSXEBtTJI6l/ocFXhHvyZyHHwLkgEJJhFyqu/ZKNvSCqoZRIRBhSSUSwKFYShQQKIqVEavHUEvje3fPe7vh9+Ykv9Zo/t9/wz+23/KW54ma7YDyU6GiRMOedp5ZhVrWm7Ivnfdjc05lr1JJ4ETqe90RfXOfEPQqxd9ywpJsK/l5f8L/L39C6CSNK0myqAEbmFE8SjfUs3MjSjmxcz6U7sDY9K9tzYTv+ffWJyuQx/1K85WOx4rCr0d6epWIvN//ks6cwJGdc9xXaeq7Rrz5MOQUjWmJv2d2X7GT1ddIBOb+yiriELRJFGVjUE1dNx3eLB76v70/1qW/cA7S5JGNQPgAHrdHeZc2er/GYXByp6azxJKBGvhJezjOXn1v0PFaiQHwM/K9u0PNL8iIGo/Su5bpc8y/tW9arju/XW367uOHbMoPZyg28qQ8cfMk4OvyYO0gSz/j2qTutj6Z9BC0rr3Dd80U+AaKzgcfgbuYJ57Z9fvQICKca7StTnCO8mQQNQpgMt51jt2/4vFny69U9b6pD1qgoi2Kirj1hKGAua8qT3HD2X5uFZP6pgEu1Pi7sqKHzfoh+RcijH6dZm2d9zMesRp8g+WsIf5o2CTIL7L3hSzD0U8HNYsGiyPWWhFC5SF9GQjE3jI7MSXlkWscekJuR1ghO3ZwXzSYoMfPGY8p03KhT610FM3Ei8nbIAVliHpfcnOnXczG8ODafHjeSjBGvuoUkgUlIh4KdCpN3NNWENUpSGH1BSvK45mPN6xheROdaEhiXEwccuOWfilN74LwVABmac6tuDiXMKdIAxT6XRcptTpPMFEGE2Fj80jKucy3Ir4TQnnfbzqRKPLG6M6OBSVB1DN4wlQ5jM33UKKTR8qLWJY+cV0tFqogtIm7Wqvv2f/Wk0pAKQyryQYpYCb4RYiOEmpNmjQfXKdWDUt1FqrsRux1yiSPM0dxZ6ram2dRMm5Lx0jJuhGltci+zZhZaTzH4XNOPJF6QUbJg3jx23uKcoB8tTh/LtWoVLRJSR8raU5UBZyMhWlz5pw9QlWhdkVY1flMxXjhCLafGkASwY9Zi/ZCo7jzufsR0Y27t61nwnjwyeYp9h7suqRc1cV0yXhSMazuXT+QkdKxyEzcDhz4mEMGcmE4OJXJqLkuY8f0sOuS+aUKWgWYxsmpGnElM0XLoHU51PuEBqDOExuIXhtDmzjLyVMjyIWCGCM4QL1uSM6gz84YkzBQxnUfGCRknbD9i7y3F55K2LYnLEr90TEtLaIRQC7F2ma4VoEVuLJ38dQY/tVkwE+Ysxjz+PVmIbcKsc/ti0wxUNtD5ksNQMt42OP9P35NKg19ZxnU2M7/ME0hizuCVcp9wXQKFsCrwi3xuyC/yYjNLAtfn0mT1ECnvZ9PuBmR7wN7vsM5R1CVtWZBqRyodWhpiYbILlTndSzYzmlDlsmiq5rNEM25ombEj1UpqIsV64mpz4G17oDSBna+56xq6LwvqDw734b83uf3eKLFJaDG39ztDsROK2WxNzD3TrA1z2pCwUFI5o1sS7AS2MxR7Q/XgqO/r2dQH5DAgw4TsDqgqcyjOoel48mQ+gqNVQWpLwjrXmsZ1PpCRlrk/G1YJXQbq5cTV6sA37Y7LMrcTvwxLbg4t+9uW8tpSX4OT//bARTNQu4CPlvuu4XDXYHaG4pBN1oR5Z2vzeEiimf3LncVVowSXy5dhCdOF0L9zFDtLta2oHpYU24DdT9m/xwl8yAewQoBpynVbAOewywUSlVQYfJMPW4Wl4q8i1VXP+82e75YPfFtvWdqRMTl+7C/4sF9z92VF8amgvhbKveK+We94Ux9IKnw8rBn6EnvvKO9yecQN87m+dj7espjPLcyZi6THEiVHvymUWORxfgXjldD3Btcb3KGgONQUXaLoEnZImDGHJzNFxOdSJiKkpmS6ahiuHP07Q/etEr8b+e79Pb/fXPNDc8eVO2Ak8RBafpwu+PP9W7583FB+zEIWu4zW7k19oDSR27Hl7tCQ7kvqe0Oxy0RADbl1cJHbBqHJCHeiXzPNO2X56NOTJA7i3LX2K8FEEA92tBhvsROYCeyo+T7ksqYaCLUwbYThrTK986zf7/nHN1/4j6tP/Kq8Z2FGDqnip+mCP+7f84fr92w/rqg+OeqbfAhTUiYv7rLsePAN+6kiBItaxS9zDhSWmYHEcu5pzOX9E6RDLl88F3ZO4V7Uh42SBLBCbGakP3JmAewxvmo+TlBFlouBH5YHfr245/v6nm+KLSvbM6njw3TJh/GCP+/e8tebK8bPLfUnS3376HLJCaEU3N3U8vGw5q5rUAW78ujKMz1boyZIx6MtQXLgPnLLI6c9F/AZxdPzGz1mGLNwc5Av6sCyHbhoBt41e95XO96Xu1NvFqBLFX8d3/Jh3PBTv+HjfsX9tsXfVxRbg/EZI3R17JznlqT72/aSh0ND8BZXRDbLA1dNx7tmz0XRUxnPmApup5Yvw5LbrmHf1fjR5Zb6eDzTM7MWHgVV81Twk2BOwSlSRlwVaGrPphm4qjve1XvelTveFns285mJhOE2LPnk1/w0rPmp23C9X7A/1ITewWgwgyE5GN+kfBbp2EosEqaKuOu7FXG0iEuUlWddD/ywvOOfFh/5h/KaC9PhsdyEJZ/Chmu/4npccjMueJhq9mNFNxb4yREmmyt4p6PlcjLZY7JtnFJWnkU9cdH0bMqeN9WBi6JnY3taO1LMxaEuVXRpxedpxY/DBZ+6FbeHlq6rCEMW8HjmQZ2S2oRZehbLgau256o+cFn2LNyIi7siU64EvsjHWW7Klutyxcb21OJZmJEfilu+L+7wteOwqDikkl1qeAgtD7FhF2q2vqYLBUHtXELJgubySaS0kdIElm7iwnVsXE9rJirjsSQihi6VXPsVd6Hldmq5Hpbc9i0Ph4ZpcI+FsvB4tP2I9Gbpudgc+IdNPhLw2/qGb4p7avE4meZkFYM/FNymJf1UcN0v+cviDd/WW74tt7wtdlzYA2sz8M5t+Z7H9t2EZUgFg86fVJyVNx+P3xzPMxQSsXP6ETEcUsVtXHDtV3weV3zqV9wNDfuhou9L4pix4UToz/4Z4RHQ8iETa05oAIBXh0UfzzBIFHQypN6yfyjYuwX/Wl9SNZ7Noudte+BXzZbv6nt+VdzzzmXBFzKxkIm1Hc8EN6S5hhvn+0ntaSN2sWGXah5Cy11ouR6XXA8LbvuWfV/lQvYs3JN/SDh3h6PfnwoGQpws20PNX9MlO1/z9+qSTTGwcCP/H4vswY7+7fQCAAAAAElFTkSuQmCC;" vertex="1" parent="1">
          <mxGeometry x="280" y="320" width="58" height="58" as="geometry" />
        </mxCell>
        <mxCell id="6DF6oKiKQpFTNXZrsH50-9" value="" style="shape=image;verticalLabelPosition=bottom;labelBackgroundColor=#ffffff;verticalAlign=top;aspect=fixed;imageAspect=0;image=data:image/png,iVBORw0KGgoAAAANSUhEUgAAADoAAAA6CAYAAADhu0ooAAAAOXRFWHRTb2Z0d2FyZQBNYXRwbG90bGliIHZlcnNpb24zLjMuNCwgaHR0cHM6Ly9tYXRwbG90bGliLm9yZy8QVMy6AAAACXBIWXMAAC4jAAAuIwF4pT92AAASDklEQVR4nI2a25LjRnKGv6wDAJJNdk/PUfJqpZVk73ojfOGX9Iv4oXyxsfZ65dVoND194gGnqkpfFECCbPaMKgIBAgQK9VdmZf6ZWfLtf/6HouSmgmo+AyDjH59vIuOP4Xl59lGefIvJ9852rsffOO1uOsRpPydDd5/r/Lc21WEg44d+w+t6+swXvvnkeTg/QU/6zSfHb5lVnp/Rs4P5Ql/nX5Yn0nsC7rTfL03o5PEnEv0soOmsTz56BFDh7OR9SUvkMLKnAD//6rNNmUj0dCCfk8YpuKmqKs+vkVGtRT+/fk/f+xzA36o0Qx9P1+hnAH9WcqfAhGNg4zUnqnk6WfvfZ9b71OhNpPXFpuDGDs8u9v2DZyR1qp5mYnGNZjBToMPgNQqaBKJAAkn5/ETNBTCgomA4b9HPjfkZ8G4/q19aB58zDOPAJlJTBaLJgKIgvWA6wYznDkwAiWAiewmpAbWQLCQPqdD9WZ2iVsE8swxk7OcpGEf6DSDPNXPykjJIyRxAtYKrBVuD3yquBtcotk3YLiFBMUGRdFDFZIVUGGJpCDOhnwlhno84g1gpsVDUj6BPwephbUwm3h2th2es6lEnYwdjG9RQOsE2BlsLfgt+rRRrpVhHiseAW3eYbYvULfQBDQGSgqZJ/waxBrxHqwKdl8SLkm7l6VaWbin0S6FfCGGupFJJXsEOKr43eiegZVyj50z/Keij6+HeCHBn8FvBP0J5r8xuI8Vdh7tvMOstutmidUPqOjQNBskIWItYe+TT1BhEBDYWKTy+KnHzinJZ0V+VtFeO5kroLoX+QohVBoxlL9096L0ug3tiGeGpwTkFrVmSpjHYnVA8CuWtMvuUmP3a4T9tkYcNut2S+pC7cA6Zz5CyhLJAS496i1oLVvKiTiApQR8hRCRESAlpOmxMmC5i2xLTF5hgkCT0KgSBWHJ+3WoG6/ZG5EiaTwV8OgES8jp0teA3ZDV9CNhNB10PziIvrmBeERcFYVnQrVxWu5kQKiH5bHhgMEoBTKe4Blyt+G3C7SJu12OaPGGmDhSPBrUOtYbkhOQgudyXmvO+2h0BOAV7DvCotgkkAWm4dEK4sKibw5sZcWZol5bmWuheQHeVSKtAseiYVx2zoscOmtJFS9s76tbT1x62Drs2+LWjfHAUDwXlOuI2ERPzO7ZVbAOuhlgKpoDoR+t/AkimXPdce/LSuFYH32uyFewQ4kyo3ziSg1hBv0rEFz2r6y0/XN3z3eKWr8t73voHlrZmYVoAenU8xoqHuOB9d8n/NVf8Y3vFh8cl24eK9s5T3hnaB0fxYPG7hO0VNYKoZs3qQQJIFNTpUyHJKTN6zjBNpUkGrx6Ci7Akuxqn2CpSzTreXmz53cU9380/8WP1gW/8J17bLUsJVAJeBDuMJKLsVFkny8dqwd9n1/x1/pa/zN7wv/MXfKyW1POSMLeEueAfLa5WTMzqimTNkjgcSQaHcewhjoGeA3nOzVgFr5giUlY9Ly52vJ2v+f3iju+qG77xt/yTu+PaNixFqcQMoIRelV6V5kSV5hK5truje0YUAW5sopUKNS772TJLEc2kQkdfqmSWZSYI0TMSfc7qnj5jFFskZvOWN8sNP64+8q+L9/ypfM837p5rE6nEEIFG4WNSdsnxqCW7VNKoJ+rB03sJFBIxJHosVpQL23BdbHmcVbTBEYIlRAG1qBVslyWpMhghOwB+xq64I4C/hSQLiFWsi8yKnsui5nWx4bVbszQ1BmWncJuE+1TxMa74Nay4CwvWsaKOnjZ50vAxJ5HSBOa2Y246vEQiwiZWJDUUJlC4gHOR6LPPjAkwgsTBEHpFR6trTwzSWdWdSu1cpC6KGMVYxdqENYmkhk0s+bm/oleLl0ivlvs45y4s+Ngtue9mbEJJFy2qQkJIOgJNeBupbE9lA6UJOBNJaqijZxcK+uE9TOa7yWdbIpGBNmawuDNWd/ASbnSoB0J8AnZCp2RC3FWFtnfcNnMSwq/NkpntAejV0AyDrIPPqpeOSekI1IgiolhRvI0UJmJNpoV9sux6T915YjSgWWLqlSQDu5LhntPBh56nse5w4xlrey7uUyHGDDQmQ917CheOlnhSIURLTEJIBlXJUuE4JBQBEcUMhwwHQEqGLlja1pM6m8dpyITeDH6cA1CmZOEEzkF1R9dyDq/mEanRwXwrSQx9nwcToqHpHWYymwpZTZOQkskMLwnoQW0hS3TUFhk0BUBTfi4Fg/ZDuAdZfY2CFVQn69DoIaJKkxj5KMOwH9/nrJHC3kcZIJHUokkRIxijmEnopkM6UzUH2qNENWUQ4+dUjqWg0eT/0zDg8beQ3ZpVxOpxdgIOKjtq5wknOCEMn8E5sVB5oCZHIiKIkTyJY6rktLsRoOaBH2UzZLgesw5RkPGsHALyIegWlzA+PfHv4wTqYJFzDvbwv5tSugPzOYdTj57JYHMkc3Z+Ris96etJzmnsLgoEQXoz0LkJSJOtqg7StD7hfDzqMyUhYY9C21Pr645AcCzuZ0HDIc8zSuMJUAUjh2jiXL8TSZrWYNucYpEoezKQvCImAxWf8EWg9GG/nqMKfe9ISTNjmI5lMqFPKeAJGX7SPqfen9OI59bTkE+yrWCbAehoTQ2oG3xkkSiqnlnZMfMBI0pSoQ2OlAx9bw9L4HRM+hwFfG6w4/29tp+JFEYgE597BFYnnae8Hk1rMK1gWrLqamY5yUEqIM0SftGznLdclC2lzUD7ZJ/45z24sQ05safG6AuG96gNacjR7x2Bmrrmo4ISe5WV3mBqwdVgG7BtDr7VZLIeSyXME3bVcbXacT3bMXfdXpoxmeyCBre1H8NJrlh6OUMBpwP6EvcdjY3J1PC0H0XOq3ocQRrcTnC7DNTkJEKWpIewULjsebHa8e5izco3eBNpo2MTStroaHpHCGZf6Mqxgg6SHJZFY04Iw3OgzybPOPZV40kPanm26KSCBIPdGdw2p2FsTQ6mBVIhxBL6CyVdBV682PLV8pG31ZqZ7WiTYxsKtn3Bui3oOkeKNnsBGQzXsEQkDume3eckegromQc1yUR6clDNaVJ8VGMF6Q12a/DrDNJvNceW5ARXmEN/qYSXPVcvN/z+8p6v5w8sXUNIhloLmujZdgV1WxB6RwpnDFAaMpR11pjzhOFLllUmoz8xLk+KTWNLA8ha8BvBrzNI2x1AdkuhfaH0r3tevF7z/YtPfDu/5cK1RDVsU8lDX3HfzNi2BX3nSFGOvjeWO7LKDgn05lyYdgryyfUE4JAcftJODIKMH64FvxaKxxFkVtdY5hxtN4C8fvPIP1/f8P38hhd+S58cd3HObTfnU7Pgoa5o2wFkmlTplQwymOyXm0M+yR3XK04Y0nPtuQDgyNXo4cN9Xid+LRQPOYNv22w9QpUz7+0VdC8jy1db/nB1y4+Lj7zyawA2WnHbLfjULLjbzWhaTwz2wIsnxEOGpPo+YZayqzpTNvwCyBPj84QknJAB05o9yPIug3RNfiZU0F0I3RV0ryLVy5rfXT7w9eyBpW1IaniIM35pV3xoltw1s2FdWjQ8Q/6DHCikgViMQM9J73TQp/+d4axHLWXuamuD2xiKR/aSdO0QVM8M7aXQvoTmbaR8s+P313d8s7hj5Rqa5LlNC267Be/rFZ/qOdtmADmWHk+MnkzCs2QFqpyFSEkO9VGGuPAp2GcmQmHPjE5ATi1rcQ/lg1JsErZNJCf0C0NzbahfQ/s2sHiz5bvrW75b3HLlcybwU59B3jQLbgeQT4zPqes2OWuYBHC5hjUExmP08gygfQ/PgJ7GY5Oik9sZ/ENW1epe8ZuE6RPJG/qFYffaUL9V+nc9r98+8OPVDd8vbrh0O5IabvoLbtoLPtRL7nYzds3gRo6MzziGHDyQJkGE0UnsmsjpzlOues7qPud2phHIiaqWd0r5kHC7hIlKLA3NlaV+LdTvlPR1w7dv7vjzi1/4w+wjl7YmqfChv+S2W/CxueBuN2Nbl4TOkoI59tNHk625moaCAeMjvgwsZi3LsmNVNiPQkzdPOzu3FscPDHTO7iaqeq+U64hps2p3S0tzZajfCM3bhH234/vXd/xx9Svfzz5yaXf0arkJS35uL3lfr7ivs+EZretY7zkbBY23jGJcwpeB1aLhd8v7fVL9aUniVFqn1zr5Hc2xqt4r1d2gqkFJTuhWw3p8o7TvelZvNvxwfcMPFzd8VTwwNy27VPKhX/G+ueQfu0tu6zm71mfDoxnAnqBNg+uTiR9TsUURWJYt72Zrfqg+8ufq/3A5H/PMAn3iMjjM7FAfdVuhGECW9ymDnKjq7q1Qv1X0q2NVvbZbgD3Iv9cv+LBbcdfM2LUFIdg9JxkTX6Ij5TwhCUdgE1YUJwmDYobg1h1z0mes7ng/CUSOVfUhq2qxzrVMgDA/gNx9nSi/3vLHN7/y71c/8WP1gZd2Q0T4GFY8xBkf2hU3zQUPbUXTO+KeCExyTQOwI985pZtWURE0mcyJg+emW/A3+4o2+RM/Otb/jwBPCEAaIo+NyVK80+w61nnzhRqhW46qKjTvIvOvNvzp9Qf+bfUzP1YfWJqabSr5JVzyt+YVf9284ufNJY+7irbxpNZCb7LTD4IEMENqZazH7hmmcAjQy4SWEK3SdY61KfmZSx67iv9xL6dh2jOA92EXEATTDHRuA8VG8XVCkhKL7DrqV4b6DbSvA8XLhqt5jTOJj92ST/2COhZ8aJb8slly97AgPBbYtcXVUA3c1HQ502C7TPpNP+5eGYZnIPlhx8pC6C+gXxmCAXVKtDYXlaPloa5wNg5Wd9qOXIkcFn/KnFV6yfuDNG+VCZWBCkKZd4w0L3N1W+ZZje93M+53M/re5mr2xuEeDcWjcLEGv1F8PWzJaRXTJWwbMV1EupCPpoNhPwMiaFWQlnP664rdGw+YIY4V1AupN/TqCD0582/SCWGYBM2noGXI70DO4/SLDLQPkivfJYRFDpjVJ+gMXVPRd4LbGvyjsBiscnkf8I8ddtshTY/0AWLeoKEhQAh5i06MpBDQPkDKEyfOYS4W2KSkmcP2LhebJnGwRkGHsmQ2ZuZUooPvGFVWQaZOWrJqhHkGlqvM+fnkc7YueYY0CXnHynrYsXIbqT51uLsa87hD6yZv6ogRNSMNNZnlABQesRVmvzlKoPBoWZAWFeGypH3haa4MYZF3lu03V8WDgVWTZXgmCzgmX8gFnaQZLJlLasGhmKMcTQKDnzNdDnrz3iOl2Ci2ThAV9ZZ0MUcWM1Qk11CcQa3J/3lDKobdJoWQnBC9kHxOscRyOBdZs+KwqSoVgyaN8vpsSWJsUyAIyjHYkUcec132fHefgZS8W6VfCuadQaLPyjLu95tsm5lqhHolFQm8IkXA+kRR9lRFz9znql1IhrrztJ0j9Q7thkLUNK87ZClVT8M0mRz7NMkBbJ6ahKkivgh4H/E2Yk8ygHEoKkUdKmlAGsqC1kYKFyltftebXBOtXM/MDofpuHAtc9NxYRuu7I6FaZlLi5XEOs34qXvJX+o3/PfmFe/XSza7ir51aDBPeYGeJscmSYY98GnN0SVcGblYNLy62PJ2tua62LJyDXPTYSVhJGFRvESMJLxECgl4iVTS4yVQSU9legryMwUJL8OB4gUKETxCKY5SHHbY8LFLHe/jA14Cu1Rw2y14LCraPheLk5K5MRxIRZIz7mUEPG0DBRtBfrV65F9Wv/Kn2Xu+K254Zx9Zmh4vWVssYIeBejEYDFYEM1gLM3zUih2e/nLrNbLTjpsY+Sms+Kl7yfvukse+oov2kMSe1oPGICD9luTYIFnjchVrXnZclzu+Kh74pvjEt+6Or50wlxleLFET6aSTRCKqEon0RJIqESUBneZzVOgZikYYejXDdh1Lo55GK+7jGz6GJe+7K/5RX/GhXnJfz9g2Q363N+hQctyv1cE+ubMGZbwe2dFQSzHD3oKghnWs+BhWLKQjsaWSGoBG7XA4enV0akmY/TnuATh6tXTDeTza5PPvZGmTo01+ONv9vohNV+a8bufpe5tVdsjW7wvGZnCRNmvkMQU88ZlHa1YhBMuuLfjFrOii5UO74r+Kr1naJm+bUUOrjl0sqGNBHT29GkI6qKc5yUMFzfWTkAxBc9EoJkOXLDEZ+uF6b+DG62hISfbVczGTGtBEE8VkI/j/JC3/tVIJffgAAAAASUVORK5CYII=;" vertex="1" parent="1">
          <mxGeometry x="280" y="240" width="58" height="58" as="geometry" />
        </mxCell>
        <mxCell id="6DF6oKiKQpFTNXZrsH50-10" value="" style="shape=image;verticalLabelPosition=bottom;labelBackgroundColor=#ffffff;verticalAlign=top;aspect=fixed;imageAspect=0;image=data:image/png,iVBORw0KGgoAAAANSUhEUgAAADoAAAA6CAYAAADhu0ooAAAAOXRFWHRTb2Z0d2FyZQBNYXRwbG90bGliIHZlcnNpb24zLjMuNCwgaHR0cHM6Ly9tYXRwbG90bGliLm9yZy8QVMy6AAAACXBIWXMAAC4jAAAuIwF4pT92AAAS1ElEQVR4nJ2b2Y8kx3HGf5GZdfUxM8vhklytuEuJlARLFmAb9pvh48H/nQD73fCf4je/WIQhSJZl6yC1FMnZJWfn7quOzPBDZlVX9/SsaCew6Jruqqz8MiK++DIyVz74x58oQmwKwzXxWgU0C8jEU85q3j2+46Oj1/zJ9CU/LL9kbta06rgOE362es7Hl8/53avHhLOK6itD9bVSXXhsHbC13/YdQK0QckN9bFk9tqzfU+r3Gz569jV/+/i3/M3sf3jfLpga4cILv2re42er5/zi5ikvrh6xuKlgkSGNgIJowqAyuo6QHCZ90bcRWLWKZoqZtRzN1zw9vuGj+Tk/nJzxjrslk45Pmnf4+fIZv7h+yidfPCb7Q8H8czj6Q0d5do05vyZcXaNdh3Yd+82KUEwmnDw6wb/3iNsPZ5x9933+5cN3+bfvfsjfP/4Nfz39Nc/dij8rznjsbnk3u+Xj/Dm/yd/h3M4JdxlmbRAvWwyjTwUcIc6Eyu4ANFO09GSzhtPjJe/Pr/loes6z4oIjs+ZVe8zP22f8++UH/ObsXcxnJcdfCEefd5TnG+zFAmk7KHLMt95DnQUR0PR2EQgBaVp0U6OLBeaTFY8ujph98YibLypefPmcf/7eY372/H3+4a1f8b3iFaW0/KA4o53bYaznzAmaIWuDdCMgo0snY2v2IG0EWRzVvH205IOjS55W1zwtrvAYfr15wm+X7/DfF+9w+eUJ5Zlj+qUyed1RXNRI6wknU7ppRjextFODz4XgkksBasB0iq2V/C6Q3TS46xWsa9xXN5z4QLaquLmb8NOr7/HpB6f85Tuf8/3JKx67O95yCz6cvCaoAeC1zPGSYVcJrOwazw3gk1XVKVoF8nnD6dGSb8+veVpdc2zXXHVTzuoTPrl9m88uHtG8nDJ5ZSgvlPImYDrFV47mOKc5tmxOhOZY6KZKyCG40awKSCeYRsgWluLaUb0uqb6qcXc1ZtMxeVUDBW5juVy9zb8uKj59fMpH89c8r15z7FZ8OD2PIWAC52ZOK0Vy412rDkBVQC1oGchmDcezNafViuNsDcDX7Zyz9TFfLo45v5rTfR3JJr8B20BwQju1NHNLM4sA2zn4UgnZAbcBQqaog5CBryRaf1IxOc9wyw4JSn7nUQPBWpZM+Z03LJqC5UnOB9UFj9ySD6eQGY8V5ZX0YO0WLODG5tUsYKqOqmqY5g1OPGufsewKXm+mfHU35/auQq9yikuDW4Lxihpoq9iRL4kgZ9GKandB3uMCAc2V1kJwccLUOKpLwTQhWqtV8luluxLWk4KLbEpmPbnpyMTztltgKsWgGFHOOKKlwKy2YLcWzRTKQFG1TIoGZwKrLmfV5Syagqtlxeq2RJaO7Mbg1tHdgxPClhdo59DOFF8ARncAjds9AjSKL4TmSDGdIMGSrQTjNcZ2AFuDWRnqdcZlNuFz94jKtmSmY243PClvqIOj9pZzbwmdQTYx9ThIcVkGsklDVTRkJtAFQ6uWTee4XlTUdwWytLilwa0E06aB2pFlHHQTCHlCMqDc/bN/YMDZ/yhKyIVmDqYVRAXTyhBnpgG7Ab9yrFzBV3ZGaVssgXfyOyam4Ul5QxMsTWe5ag3BO0wjkXWDU0zZkeceI9B4C94SVLhbldSLCNLUBtMIpksg3W4K7ioIhaJmlMD2TDpO5FvzJiQS//lSaWeCrQVjY3gAmFZxK8EvDV3muNEpL1QIavAzw7FbU5iOt4sli1nBpslYdRUaHC4UCpUnLzty1xEUCJGyN62jXmXI2saZBSQQXdWNBpoG7SvdZdaHQPb4Rs9r+l2JqaeroJ0IWVAkRBe2tZDfgjrDxjl8a7j2U3wwBIRnkysK02JQjvINJ9M1dZ3hG4PTPGALj7XRXQUwogQVNusc3USQ2nuQRNdM6Wtn8D7fjl5l5K4JgQpbedZrh10PH1rIFF8Kbp268OBCvEONEDKhnRm0zbjtDC/Sc4+LBYXtqGzLabViPcu4bizOVB1Z5pE0KgW8Cm3r6NYOaRMiA9KAmsiyA6DQk1KM9fGod8im907VCGiQabssNQgKiQweMiG0ioToTbZVdA3ZncR02AihEe78jN+r0J0YjvINTgJOPLOiYVm1ODEQgtA0W18UUZp1hmzsjqQSTbm2B5oEMz4S0X4bD3rAb/bv2ovnkTD3pdJVklJE5IYxMZlGUBOtjVoWZsJLE2hnlqlrCAiZ9ZRFGyPNdxbVxAmiaBB0HdlqxyIa41PtCEj/vesDjcMs2/cx+jyYcnoCDjoICeNjHGiznSzjE0ABPNha0FvHbV5hTKArDbmJSbTIOtw4TlQBEcLGIrVBwn1rqNOtVQIQtmlih2z2SEdl97ud7/tHtplkeEdXKaaRuDJRjZNhEiHqVlaqRAt3y4xVWWAECtclXIILjd0OQECMIrWN1hTdZUYbXXRIHz4mcjUxfg42OfDdeBL218B7z4Ui5lavkYR6r4mqC3yR3t17Qm1oNo61jQNyNlrV0W0fxiiKxLg0u9MvnSRrKqTZVk2g7d5SYUCw++f+Lfesv+fakCbXJgtmEZRa8Fn0rlAEJAj9clM8hNrSFYbOmoFkI9C+85Dynd8OahAtATREYhjiyIN4uadnH2oHwQ4/3gfZt+AU8UIY9dEvBtRpDKE+vlWgM6gKQQVNL3TR9wETBbg0MTaHMopsZ8pI9PdhEnyagAOMe69qkUAcYuI3tpS6QDFj1800kqLsTY7ESfGdpbVhcFZnNiYFuKJGsBuJoCUVBHpQIeXM8cQHdpZCPYAH4+5NgN/gFCHX7UO9EVw0zI6c7PsKEFpDKw5VwZiAs028UU3MSXaTEnGKxbE4GMaTVM0Yi+4N/mB62Qfcd72je3f73PlOifEoCh7ESBQ0Q3xt79fWEFzAe0HV4AZBkAJPhhpS5Ho1ydr9dUovokC3zQf7wPZVkRxy5f46ycL9FCQSZ1OJedO0W/EQc7miIjF0xnxoFFpBM0MwMXjdsBIhMq2m/NQLbPEgKgSnAwPqUDmMHe675D1LsAtinLLG7d5kJfUhGllfuggYYhghghol9KHWd64CQVCNN4vRtAbpFZHEeBBPZOBBjrHjFkhMQ6Q43g+0sWJ6I+mMwO+zfH/dZ/Je6/b5WqVn/ThWGbnvwC/EBYq1AReSAIjBnTBZEB8DX1LKidZMeXQILNkZnI79eM96YyA7oGT3ft3r86H8K4Fh9TOekEF/i4IXQjCEEHCIDiw7KB5kIBQN0XWCJQqFnpzCGMXewEcpqF9obpdso1x4MI51eH4HrBlZazyDxLHIXnwjAo3BmzghLr5Rx14UAes2Z6kmEnI6ULqMqwIHGHaXfEbAe/fe/rT34GGwahW123DSUf68x9zEMZvaEAwEBdezGKJRyu2Ob+isZ98hQadZHgvx7YP7Ax+54H487z/7AFg1MXziQqIfz0MdxK/jMs4kiz7U9ikwuXj/vZrkLrIP4MF337Py6GOPhXa/UwQMBKuYIMNkD2C571RCjGPTQTCCGzPuoZfdUzo77DtGtX12DPzB/DnGIgeITHZvUgQNoKoxdaRUqI7798fUGftO+txFJt3OjoTdh+6XKUefYyW0/7tsXW8M6E2A35iKkkQNDiTo4Mq94N8tr8aOxovz+667P5h7bDb6PJD7dv12ZOXRD4fwHFzCHSKq5LKDPDUwLKeG+5JX9LXjIDjTJjklCt2BJdcY8P4oe7o/YKHh3rGFHwL1UNt/t97/6eB9/djMgBdn6+SyqVThqwfeaRWsgkvSRATFxBzWHKLeLWt/Y7F/D8Hou2SdvrxzMKuNAA9r1iRdnakZil0qsfJ2rwlgFck9xsUoVy9RJaqB5j7K/VrQoeuh+0Ouv++N/ZIwiQMFxOx57SgVDmvWLKo512vHQTeq3CujaAJqnGKsxxglSOT1sL+dvp83v0H7Ju4fGRSM7wlOo7DvWbt/V8r3+6UfNwjl5NOmhVA8MKCd2UviYdC+36wdIMedazkUb4zA9p+jaBnk4bCG1qEeLWlx4oa1ZerAtEIoDuSy1qBWh/Wd9hJxT6r1gxoG/YZJOGT1Q6sYtaBdLw50+10P0G4B9oW7Pof2+TRZNCkOk7blimj2HqwoSCtoJrG43dd1k0U1U2jljxPNA2D/WNNM4+aXkVEpRWOJpQc6EjzSGqQVpN2+w6EpPlEwaZuui+XEnQG1sl0WSZwmwSDpiI60I8v+H1z5QXBjt3YRiM/S5KdKBy5Aa3Y5RQVTy1Ap6Zd0TlSHap7EUj1hJUMpcagCjmNHFJG4qFUbUCf0PnPI9f6/AMf9DG6ZiBEXMFkYkWEMJWkMbtlX9rd9uOAkLrL7FiIhSRi2SXfKINYGsiwxbxAQG0ugTnc2pL4J476x9Cl7vw2fyZvM6GFlKGLbdaxkjvsUBeeLCMx0QAcWRTeCW8l2K7CXe6kCZ4ziTCBILBCHEPDZLtBv0r5JMVszPchaGgTt0pmitDUSj/IIdsM25aTHXMhAjURC6hTtokJSJ/gcfMVQoJbWELwlBB+JywSCjXVTnweoo1J6Y/tj4PYmQd2ow17PqYBXpDZxJz4IxoNbCtmS7fmKXiFZcN00bpnbOspACYptBF0prhQ0A9+zWieE1kAZCckaBXzcrC09YWMxmzerpIMAH8itGIUsavB+tSR9WkOwazO4v6kFu477pkO5JnUfXLKoL+I+httodGEfb8nv0o6zjS4kCqExhGCwRsnTtpw1Ma+uC4u27rBV5YHrvb/HcatOERuipk7LrWHfp96eDjNdTItuE4/dDRqb7fiduijku2RV22okJ4UsAVUHnUl7IJ3QtZZQxo6cCYjr8LnQTBy+MZh6tK2te5+ye/1G+Zf4QUw6DtAvyYIMZU/TRQLKFmDX6f7Ub8gEX0I3SXXdkMdTIG4NugZbx8OIpks1l7RdoZOYa31jab1lmrcUtqOwMdX4YLhrbNx1a/s88wCIPQvuTIwSXXYUnwPLiqJpT1c0umy2gGyh2DapJiODl/ocNEsL75Ap3QwaHw9KmVZwq4Dz6ZCEbsF2FtQLXWcxohSuw4knSxuuTevYNAa8Pbw5fEAq7oMOjnjAq9zuWEPkBe9jscv0ByZXkN8pbt1PBHRlVHddRTxwmWlURkjsvKugnQluI7gNuJXHbgK2MUhwA1N01tJUjk3nOCogtx5nIqpmamkbh/eCbMzB9eXD+zASl1VVPCdcVs2OQ3Te4Nc50pgYk0vIb5R8EU+WAvjcEGy0ZCgYtlhGR1GUUESgpjHYBkwdcMsuslmrmM5hOkPdGWqbc5uXzIuamas5ztfMXc3ENYgo5zLHS4705w8esuhog0kzJVSe7KjmZL4mT17iVahbx3qdE+4yiktDcSXk10pxG3DrEOtJudCVQjeN1vSFDoU6N07OvQtLkPTPYTrF3dUUXzXYVYHbFCxrg3jHWiZc5C2n5ZKZrXlUrtiEjONsw+9cx0t3RH1XwMbGKgQcBBzytEU/6ZgdbXjv6I7TcklQ4bYp47HVdUF3WVK9slRfK8VNIL+LHucLgy+FZmqoT+Lx2W6qaQM5NrfDehpLD+08IceAZlSquIs12fkCt2jIFhOyRYatHVd6zKc2UJ22PC2u+XZ+yffLl3w0+Zr/nD7l97dvcX49o13k0BhMYyAtuTTTeHR22jKb1Xzr6JYP5hecZktatVy3E87XMy7uprRfVUzOLNMzpXrdkd22aZIsvjTUc0NzLDRH4Cf3j+q5FBo7q46QK+0RaY/UoCZnAriLNeZ6QbnckF9NKa8r3NJxUZ/yH63DPQn81dHv+VHxBT8qzvjT6nM+PX6XF49P+Wz1FndNyaLNaTqHs57SdUyzhsflgifFDU+LK07tgms/4ZfLb/Pp3SmfvTzFfVlw8geYfxHP65tNJKn2pKSdWzbHhvpRsuREd0+wDUBTXtsXwSFTujlsRFBrCa5g4gy5AXOzxL68ZHpbkV/NKK4rbq8e8a+3FS+fHbF6nPMX1Qt+nL/mx/lrrqeOy5MJt6HkLlS0ajEEStMyNTWltJTSsgwFL9rHfHz7HX768hnLz+fMPrMcvfBMXtW4qxU0LVoWdCcl9aOMzaNdkKFfyt0D2nvpngzrwbYzou4tDD7PmZSGssiwr2+RmzvymztOz+fMzo65+6zgk+ff4b+ePeXp00v+7r3f8ueTz/gwO+cH2S3HZkMhC6wYVqHhdWi49BmftI/5Xf0uH18/55cvn8Sz+meGd74IzM425Ge38X9TWIOWBe3jCeu3MzZvxZjspprODW5TzH6TD/7pJ3qwxMg2dsXH3eb8NjJddRGozlvyrxfI5Q262UCWI/Mp7ZMTVk8K7p5als8CPNnw3lu3fPf4NU/K+H9WMvHc+IrPN494uT7mxdUj7s5nFGcZ0zNl8nWgvGzIzpfIuo5WPJrSnUyoTws2b1k2j4R2Bt0sks5Qj35AXv4v7v6Fq/ADPm0AAAAASUVORK5CYII=;" vertex="1" parent="1">
          <mxGeometry x="280" y="160" width="58" height="58" as="geometry" />
        </mxCell>
        <mxCell id="6DF6oKiKQpFTNXZrsH50-11" value="邻域半径为2" style="text;html=1;align=center;verticalAlign=middle;resizable=0;points=[];autosize=1;" vertex="1" parent="1">
          <mxGeometry x="389" y="381" width="80" height="20" as="geometry" />
        </mxCell>
        <mxCell id="6DF6oKiKQpFTNXZrsH50-12" value="邻域半径为1" style="text;html=1;align=center;verticalAlign=middle;resizable=0;points=[];autosize=1;" vertex="1" parent="1">
          <mxGeometry x="269" y="381" width="80" height="20" as="geometry" />
        </mxCell>
        <mxCell id="6DF6oKiKQpFTNXZrsH50-13" value="" style="shape=image;verticalLabelPosition=bottom;labelBackgroundColor=#ffffff;verticalAlign=top;aspect=fixed;imageAspect=0;image=data:image/png,iVBORw0KGgoAAAANSUhEUgAAAEAAAABACAYAAACqaXHeAAAAOXRFWHRTb2Z0d2FyZQBNYXRwbG90bGliIHZlcnNpb24zLjMuNCwgaHR0cHM6Ly9tYXRwbG90bGliLm9yZy8QVMy6AAAACXBIWXMAAC4jAAAuIwF4pT92AAAdK0lEQVR4nH2b6a4l13Xff3uo4cx36r49k+xmcxZFUdQQyTQCwRmQKIbgxM6XBAjgBMjwCnkB20AeIN/yCAECBHAQJFYkx5IlWxRJkWqKzWYPt+98z7lnqmEP+bCr6tS53Up9uefWsGuvea3/WiXe//6feDzhEIAPf70U4ZQLF+v/60NYX11fnfOyWqM5cWFdwCsR1vSt36xfr9/b7MH6Zt2L57wUzb3Nff7CPvgt5wDdbBIQFoRxYROqTS3PbLQm/hmiLxztey4yEcDGstm0cB7hWu+q965EWGN9ZbxcF8D6Q6wxqH2ufU0LB3gfXqLAK1lt5uKCvtnMipgLC7cOp0W1xooYYf3aui5qbbb+KXlmMS9XhNQMEsaDCHuumdfiDV62GLTOz7VDN884AgNqlVIX7vSBoKBmIjDkolq2OC3NykS8bPGqXre+5znrXDyk8RUxviKs0tDnmQArhjTMbsmq+b9mgE0E0jxnAy0t8PXLVHj6IsFr3K9+CkujNSAaRrQlaRPxjKa1bb+t4rV9r19f/a01p37mohnVhK80s2JA2NjzOX/Rdmvn1WzGPt++Vxq0OudVeLksV5KpteSidFaMXT/f/Gwxo2bAM84Yscas1d5Wa3glggkI53FarG+qpZb1NeFa11sbW/PMF87VG3I6SEeWQZ1dJJ5514qY5zCmfV9bpdeefT4T6nUvOk3hPFqWHlk6hBZ4/dttsH5gbaO2Cme1asvV/TVTvRTNJoVb3/xFzQpa1fIdap0hF4kQ9vkSbgt0/T3PhlRtOhKRiOZFsmxJ5aJ3vXC4qK01YTMuEtgLHttpgWxFgLb02xrWMIlAvHB+pVWNANpmJda0LhC40oQ6WgjqKLeKYDVdWhWueqh1Ezyrhv+fWF9rgywc8diizzPkeAZ5AVrj0xiSGBdrXKopR3FgVLxydtLW77qQCzwnQrSF4qJ1+68Z0miLoHHGjQ9rPa/reNq+4RmCq99tD9rOxGTh0HODyi0ukszuDDl5YxPz5pwrW+ccTvr4z/rs/tQy+GAf/ckEsbWJ2RkAYLsRiJAU2VQGjTGBMTYO79RZeLGNZUOczjzRzCILh9cCp4JmtTXKJgIQVSgVazTK0qNNT61zTokmRl9Mg9dCmQSVOdLjBcI4sis9jt/ucv6KY/vuCT+49mt+d/BrNuSCfTvip3dv86P37vCrB7sM7t2gc+QZPMyJH5+hxhI3SElOptgn+/iyQHa7iG4HoTXee8jzsIdeD99J8L0Ul2hsN8LFgWleCcqBpOwJhIX01BAvLDYJqtA2p0a27//jP/E14TYOnGpz65nwVnE/mlmi0wzbizh8r8vimwt+/9Vf8vdGHzOQS6auw4ntA5CKksxHTG0KQOYjUlGycAkP8y0UjkQaHiy2+XK6SWFCfiaEpzSKRRZjjUJpS6+Ts9ldspksuJJO2Y5nXI3GpLJkbLucmR572QY/fHCH+K/7bHxu0QsbHHzLhdS+QqcHC/KdDgDR3DdxvU1sWwOk8ailIz5e4BLN0btdzPsT/uD2x7zdfcSDYofMRzgvmdoUh2CklkjhWNiEiQ3v2o3O6cqcb/c/Z+4SlHC83X2E3ZFkLmLqUhY2ofSKkV6QihKLROGwSB7m28xNQiIMB+WI3GkSaUiEwXlBsYjozTx6YVGFwwoVUn4dnK4kmIp2sUYaT9FVa2FoTU0qU1C5JzovwMPi1oCn31Vsf/WAf3TlM17p7FN6RSRs2KgokcKRuwgpHJGwKOEwLrjog3IIwJaek7mIhYsBME42hCZVivq02GieS6QhkpbTosekTJnbmJ4qGOolA5VxUA751dkuycOE/lODyh02VVX4rKMdTTWqpy926D/KSI8d5UCvQpRfVWF1/FS5pRzGnL4WEf/eMf/q1ge80XkSnI2XTF1K6RWlD8zMXYT1EuclJRAJy1BnjPQCCNfrI5UlEk++Kk9YuJi5SXBe4AiV21AvyZ0mkpaeLuipgpvpKbvRhL1ik58cvcjxh5fZvO/Rc7tWSdb1RH3ouUUvdiU6S4imBgRNHuBVUBW9dCQnGSIvyS/3OHgvYuf9p/z7F/83AHMX1LT+GwmL85JZJdXMRSjh2FELlHB0ZU4kLJmP2IiCau+bEU+LDbqyYKSXZBVjLBI0FE5TOkVP5/R1TuYiYgy5DcwaqQVj2+XP919n/6+ucvkjj146yqGuUu+Lzjz8H01L9PmrBtBsfWJRmcOmqzCjqvAWQtsGh+/BO9+6x/cv/ZKBWvKo2CaVJQOZBaKqjSvpyHxEIsuG2xPbpfQK6yUT2+Hz2Q4LE/POxmN2ohldWZDKkkSWWC+D7aslaRTWyFraMoqWTG1KVxbcSQ/ZUAv+2+lX+fLzy+ze83SOCkxHQbTuw7wSqNwRnRu8FuTbCZrUYjqV163s3+mQMYnMoWYFxXbKyVcEb33jPv/u2v9iQy55UO5wavoo4ZirlfRzF5G5KJhBpdptRqSyZEsHgiNh2Y0mDYGRsGyoBQOZMXUprtLd0itmNuHcdHAEB9bTOVt6Tk/m/HR+m//z+cuMfqVJz8rGzlXuGsDFV5libdqL3ZjJSxKNFciSJhmqM6WaWwDTWzG9r5zyg92/5YqaMa7UvbZT26pCVJUp5U43G+7Igr7Om3vqcJh7zcNim5FaclL2ODcdejqncJrcahJlGOiMtGLgpXjavHNLz0lkMJ8fHdxGfZHSPQpZrYskLgom7HSgTeUOlXtMVzJ5KWLyuqV/4wxNKal80lrRIo0DAYtbPc7e9PzLFz7kH3Tvc1X3WbiCV6PHTNJHTF1E5jVj1238gEU26g6wUdl/LeXaZ9QMS0XJq+keCk/mI+YuYWpTJrZL5iJcKy0d6QU7IjDi/vIS/+PRq2SfbLD1qSeaO2zSKsA8qMKjMkt8luMSzfkLKeOvFXzvrU95s7+HTvc1gychjW1Xbu10sfdI8l9+8W1+eP1lBlHOtEyQwgfnls652zvkvd593kn26AqwQO4hEZAKgUIw945jGzH3wZYzHzF1nYZJv86u8Tfnt5iVCTe6Y64l40abSqfoq5xr8Rk3oxOOzJAfnr/K/7z/CvLjPlufOzonNmAOkWzUXRWuokngYsXiSsz5HXj5pQNudM4ovUK8/R/+k9+8l+O1bOCqurgRDoRxjQNpaob6nJbgPS6WmI7Exqzl214J3AVorQFDrA95xTyc0EuLTRSHX4sY/u4BP7jxS3ajCXOXMKtMpq8ychfx54evc+/Dm4zuSfp7Fr10oW5IVgBreFdI5qQJVaXpSIq+pOwHOlTu0aMHJXphMF2Ni1RV8PhVwlCdaxyJB1mGAsgmAqeDBKUJxNQpZrusrfP0+vn1EheSowVmmHD8VoT85ph/cv0jbsSnAPRkTk+G0PdFfomfHL3Ik19c5fIvPfHU4KXAdFY+aK0arOqapn7x0Dm1dI8DfSYVaGE95TCuwIeW2jQb9E1lRlUqu0jgItVw2kWBOBurVcEkqhK3tbEGIFWr9aNJjhkkHH8lhe+O+eNX/pK7yT5j22siy5EZ8OH0Bj/68jb8psfWryGZOGwsGmdd71mWvuk3tNP52qyDMKvy3YBWucP0VAgXgNPrsFeD6rBSrRWYASBQhcfXDrSGEWqAogJG1hAaAdHckRwsQEue/N0e8bdP+bd3f8w76ZdNsaRwnNg+Px2/xF/95iW6v0rpPfV0Tgwydzit0Zlt7YVWsbPCAIRtm8QKyBHOo4uRXiOq/YBXK7SnzYBa6r/tULlbqX2dilYmBDTZpVzknHzrEvZrU37/xQ/ZUAvGrkvmYn6T7/J/T2/zwec3GX4Y88InJeneafA/QuC1RM/jxjeZnqYYSISriPPiWSi8KfNX/kHL0q9hAe3ceQ0gaXHXy4DuBkCkPteCqKoXede6roINRueG5CjE3b2/fxn7vTH//PYHvJ7usW9GZC7i2Az4i+O73NvbJX4aoZae2VXN9MYmsoRkGrI5lYdETZ2eE2U53V4XH2lcP6HcSLHJKh+oy/yQJ4gVYvT+9//E10jPOja3Dk21sfq6WGqY1jCspSF6HU9QuUMvLXpWUg5jnn47YfP9ff7w5t9wN9nnUbHNqek3SU/pVZNB1tllXVpPbIe9bIOljcis5ul8yN6X2yT7Ef3Hnv6eIT4tkIXBK4nXEpcobKJWQKv1uEiga6LrDbfVo91saBPYdixBg1ba0TBRBObIsqrJl8Fjz2512f87gle+/oA/vv4jjsyAIzNkYrvkXnOS99DSVXV/D4VjpJdNBQmQCMOleMpIL+mrDLbh8OqQiekwNwn3p9t89sUunQe9wJAnBXphcErgVUCPqLLEVe3ZknyTDrc9KDXCG/pctTrJ0uEi2WRgIWoE9QdITnLULCe7NuDg6xHqvTH/5uW/5r3ufVJRMnUpWSXhmamyQ8LDT5YbOC+42T1jpJZNPTC3MWd5Fy0tgyino0pyqxtQ5NXRIb1XCr7Y2eL46oBilLB5TxJNCpxVKzRo4VcMaHt+r551cA0Y6kICE+4Dq2SrM1M5UuPRhUVmFmkcyxsDDt+NuPy7e/zhjZ/zYnzEkRmyV2426j7SC15Ijpm7hIf5NsZJ7vSOmvfnXmORaGnZknO2ojlaOnKnAzKkDIkySDxaWnbTKf3LObOtU+5dvsTBYMDOR4LktEQoh48lLpahNbaSepXE1CGkjuN1p6fdL2z1+dqHNJ74LEdmJWaYcvxmn9N3HK+9+YA/uvozLulzprbDvhkxsR0knp1oSukVP5u+xNJGSOGJpEU71wAlqSxJhGFGgkWSO01uIrS0OC/IrW5qhrJUZFYjhed2/5jddMqP5UscxkOu/MSTHmUUo3jVGltJfh1/X3n4mlDRxNG2c3RaoAqHLEFlFjUvyK/02f9mAu9N+Nd3f8a73Qec2D4fLW/yKNvi58c36EYlu50pR/GAns5JZMnrvb0m87PIJg2OKmn0VY4SjonpcFAOSQho0bRMmBQderrgWncCpBROMTcJl+Ip7157zF/Ob3N2lrI7LognBflWgvid3/9Tf7Ef8Lxm6fPuaUtf5mGwQi8s5UBz+G5E+s0TvnP1AQCPFxuM8w6pLhnGGa5KCjbjJQDOC6TwDfxVOkVRFRIDnTOIMoxTzG3MVjRnqLOgBU6zdDGxNBinWNqIqUnIbMSj8QaLLKbXyRmmOYsy4viLLXZ/LBh9OsX24xAFpFnHyi72AJ93tPt5AC6R6IVFWMfsusa8OeefvfgLvtr9kv1yo8HyLBJTEXZadCvJG6YmbSCuniq41JkyUFnzvtIrDosBp0WXpYrBrDDFWBoUjrlLcAjiKgff6i3QyhFrw0ay5O7oiM+ikr3ZVXTWJz3K0XWlVEv2Ymfoeb3BOm+ou75NgePBJYrljuCFy6e8mj7ltj7ltj7lzeQJFkHpNSe2z9SlRMLSkzmX1DmZj3hUbvNFfonHy00+PL/GrEwonSJRhq1kQUeVJCpggTWzNqIQHrV09HQetIAI5wW7nSm7nSnGy4Yp3aig3LCUPUnvYRkywTClIZ6dCvktRx0xZOGRFc7ulcD0FMJ4Nj53HJ/f5D9u/wtc4tEzQTSnGWdBgEnDiIyLPabvcaOSze0Zb+wccLd3yKCfrUk+dxFDvSSSlpkJ4XCol1gkhdMMZEZSa4KNWZi4MaG4QpCHeonrCH4zysm2ehSbaXCCTUO0NSRVd1KfN1/TZIXxCnQMfX+B7Umk8Yy+KNn6NIQMF8mmRJalw4uAJQjjAjOrvqBXQ77obfDRlTdYXPfwwoK3bzzhhe4piSw5yIcsbRTgcJ03fsA41ZhQ7nRDeG41mdEo4SmcQgvHIMoYDZYser3gs9ozO/VRl8Quak8crEzFxbLVRQ4PrwgMv20aGp3P0R+cqmoDF7o10oJeuJCjK8HgiWX0wJN/2OHjO6/wi1eXvHVjj1eHBxgnOciHTMqUT4tdrnbP6aiS8zJEi/MybXKBSFqi2LKTzhlGGRLPtEzJTUiJ9dy0wqCoKrxI4Z7r8WnMpC6dn50hfJ66sFYTAGEmya6cqBdgOnKtbhfOk44t+mNP9jTlkxdu88ndXb7zwhfc6R0xMR1mZcJZ3mUqLVJ4dpI5kbR0VMgdTqVlYULHqe4rSKdJtMXaqhxuQ1jtqY6m4PErj18Tv0qPqyqrrNPEVZ0QAIcVg1bM4gLTKpSoyjMuDkDqpWPwyNE5lozHfX4W32R0a8mmXvDK8JAHs20mReg3zsqEs6yDsQqtAlO6UYlDkNmqdygNizwiPfWoeYG+OEvTqHUL7WkXSDVCVBPjdGiVt1PlurK8OJHVPtr4Q31vox3VewOqEv5XmWPjPhx3N/ivZ+9w7dopr20ccqM7JndBkZc2YitZEElLboMvMK7KCvE4BOOiw+KoRy8Dl2i0yoPNhiEDWRHjVwBCVfdf3Hgbc7so2Yst9vqotetiaK27zu00u9GSCtMzHUk0d2x9AsdxhLsqmJqEjioxXiLxnJcphQ1w/KyIMVax0VnS0wWFU4yLDjOTIEqBi8Jghm64LdbtGla1fu3c6hq6Pbkh/AoIkcaHKY94hcR6JZ5Bj9YHmX47slQPadT1u8otMZAeKybzDq9tHvJ4scG0TOhFRagZlCFWBiUc0yIhN5rSKpR0HCwHPD7ZIDlSJJOQF1SDkqvStw12BK9fhbqqTih7krIjiJa+GmQCvCc5t8QnGbIwTV7hYo3tRZTDqIkaTouKeWJtCqV5T6uBWf/vVTAzV4Rr8bln+rTHz9RN7mydAHCep1zuTrnZOSN3EVo4+lFOXDlFgE/Hlyn3u2wcelThsYlEDz7Yx2vVjJwAVY8gYP6ysNhuRL4ZBRhcrZgTn1ui8xJhHS5WzG73md5UlH2QJaQnnt6BJT4rGm0w/QjTkQ2BFzWgPeLanvqszULPSlQe2u/9NOdSOmNaJjw63GQ/HnC+kyKF5yzrkCjL5e6UqUn4zekOZ49HDB9Ihg8DQ2wq0efvXiU9zCsVdoi8DKrejVle6TC9rlheFnjtiWaC9NiTnjk6+xl6smR5c8jBN2LKNxa8uLvHO8NDhnrJwsU8mG3z8ZOrqM+6DB54+nsleh660aZTNS3r7LCl8u3SfG1GwYOPqucix/X+hJc6x0TSspmElDiWlnERiN9IloyijLOiw3TWofNE038cRmZsqojPDeI/f/o7/qAcsZdvcFp0Oc27WC85nvWYLwJCY0qFPIrpPZb0H1viqSPfUBx9TXD1nX020iWpKhlFGVvxPAw1sKrRD5YD7u3tEv26w8Znjv7jHH2eUex0sYlsGhvtEVpZ+maUTvgQBfTSUgw1Z3c1s9cKvnL3McZJtHTspiHnfzjbJDOa7c6C3XTK0kb89aNb6F/02f6VCUQbj1oU2G6Mflhss6nn3O4ccTNVLFzMzCQ8SjZ5oLc4Ph40xA8fWuKJYX4l4vQtwc7bh9zoj5HCk0jDWdHB+ICynBUdFiYmlpatZMH3X/sQ84ri4WKTj768Rv+DTbY+Lek8niEnc7xWuEEXl+pKMyQ2kQgXECdZOIQJ7a3ssmewM6evcwqnKJxmaSMSaXixf8puck4kLZ9Mr/DzB7dIP+6wec+SnJbgPeUw4uy1lMnLoD+bXWZh4gZBqfPnwmimiwR1kLD1EQweZQjjOXs15eQbhtt3DvidS583QKTzgoWJm4zscjpranSHoHAhFr813OO7X/ucwzcHfHJ+hS9PN1k+vcrgc8XwgaX3cIY6GOPLksgYsBaUAq1hY4jaicELlPAh4xMe4xQdVfJS57jpQv98fIsPP7nF6GPN6IEhHgdfVQ4izl6NWHxjwfWdMXphYsZ5h25UsNuZUjrFwXLA2axLftqhfyiIZ0H1zm9pzt/L+Prth2zGSz6bXQ4mUkm9H+X0dBFgLTxLG1E6hfOiKUlzp3mw2KZwiq1kwe1bJ1x6eYp7X5C5iNxppmXKpEw5Xg55ejakOE3R5wpZgul7ei+OeWHjDCk8b/SfkntNVxZYL/nx6R0+vH+d5FHMxr6ge+yQhaskH+abyu+e8wd3PmJuEvSldEY/ysms5izvcrTssX88Qj1O2bkHg4c55VBz+K4m/uoZ//D6F8TSMCkD/JRIw9zGzE1MZkMdPojCMIQWjk5UNsMOsvJ2vTRnbhJ6Ouc47/N4sUHhFP0oZxRldFRJR5Xc6I65O0qY3wil7aTo4Lzg9uCEa+mYkVrSlTmZj7i3uMLfHl/n4PMdRvcUnSOHzh0qdwjrKTZjxnc0069lfOfaYxQuDF691Dkm95q/OLjL46NN/FFCeiAZPHL0npaYruL4LUX09pjXdg7Jrea8TEmkaTbxMN/icjLlMB9QOkVZpZ+1Vwaa0RaABEEkLQrXELu0UVPR7STzxnwSaYhiy9JGpCrk8sZLHi83KRPFR+ev8OH960QHMd09wZVDh656EKpw6IXFdBXjO5rz1wz9YcbTRRjRG0YZuvSKD8Y3ePh0C72X0P8SBk8M0cwwux5z9HV48937vDXc46gYcFZ0KJwmloapuQIEzK6bhLK0pwrmNkisJn5WJsEhqmqIMQ/+oKsLZNVNzawOs4Aq5PTjosNp3m0QoY14ydV0wnY0J5Ul95eX+O8P32D5wSYbB4Jo5pHWNXWIXjqi8xKXKMa3I87fKnjh1jGpLpv3QYr+0fEd7j/dofNpyugLRzIO7SvTj5jelAxvn3Kre8bCxcHLO9VIMrMRxsmmDK2xuVradQZWDzwOooDy1E4zUYbDrM/xsk+kQv1+lnc5yXoNNL7bCeMwM5Pw2ewyvzQRe+Mh2cMBm78SXD60TUvcdKrkzYRulI8kk9sxk7dKXr+zx9XOeQOYFFbjpEU//uFNukvo7TmSMxMytkhiuhLT8wzjkp7OeSk54rXOUya2y2Ex4Gk2YlYmTPKU3F5m3OmwES/pyIKBzoilblDapY1C0eJUaGzEc4yT9HXObnyOG4aeX+lDGE6EIfdhNtAi+fX5Lp88uYJ/mpIeSnr7no2lR9gw+FRniSoPGhCGNyTjOzHjr5a8/PI+17sT5iZmbz5iskxZZDHdtFg1R9e6QT4sZjqSfBRGSrIdT36j5OUXDvjG1pfcSk6wSI7LAZ/NL5NZTSwthVOkyrARLauuTQAkZAuW6ukC42VQb2mQwjPUS5Yubiq2x5MRZ8cDosOI9EgQTzyqCCPysqyrzVX1WfcmnBbE56EPePCNhPjbp3zvxj1ud47IXcRx2WdsuhznPQqrEd/9wZ/6NvFerHJwnTlkvj4jtNxWnL8oWd4q2bk+4Vu7X3IpDhB25iL28g0g2PFR3qewilgFX5CqkoHOmZqEoqrXS6cYLzsYK7FekC1jynFCcqRIjwXpiSNaBIKbL1TK1TxjU8DV+5fB/oVxzK7HTO5CsW0hcajE0umGafONdMluOkV8+4/+zEu7QnDaDdHVN4SimfioOe+0wHQE+UhyfteR3pzy+uUDfm/7kwbPr0flpi7labHBcd5vpG2RTMoOD2ebPD7ZoDhNSZ9q0pNqeCnzxFOHysLHECaVa2V3Q3A1ItOG6ZqPvCq4XuXVd1HO45TAxZKyJ5ldV4jv/NM/8+3hpbUvQqCBp2pu1ws7FWaA6vmcutpb7CiKkaDsQzn0mIFF9AxKO2wZFlBR+C3OYuIzSXIG0dTTOQ3jui6WFSK0jjvWleLFdv3zPo8Lz9CANnXXum3mANqLZ8dGnvdNripcS+3CXFD7npC3e3oHhs7pSlXDqJ0AVGCWEthEV5LJm689TE+Fa5Wk1wYw6uk0s/pktj3n08YQ2p/41Yh1G4Cptajeu9aZW4Op6k/RbCzXavMa37vYEZJlhRvadTsNmwpTmggo+5pyqMMGKyg8V4Coxm0aaG01iSJqULYFzDaSbUNwFWxnE9mofP1xRI03tKfI2jikXtnOasF6xKwt4fZXnqoapGrCT6M5q5c1vYFKM+pn25/ltUdwal/TtOZb2tdoZ92sae+p1uoqcgWtAWHF6vPdZnJstXCYJPX8PylR1frKyB3TAAAAAElFTkSuQmCC;" vertex="1" parent="1">
          <mxGeometry x="160" y="317" width="64" height="64" as="geometry" />
        </mxCell>
        <mxCell id="6DF6oKiKQpFTNXZrsH50-14" value="" style="shape=image;verticalLabelPosition=bottom;labelBackgroundColor=#ffffff;verticalAlign=top;aspect=fixed;imageAspect=0;image=data:image/png,iVBORw0KGgoAAAANSUhEUgAAAEAAAABACAYAAACqaXHeAAAAOXRFWHRTb2Z0d2FyZQBNYXRwbG90bGliIHZlcnNpb24zLjMuNCwgaHR0cHM6Ly9tYXRwbG90bGliLm9yZy8QVMy6AAAACXBIWXMAAC4jAAAuIwF4pT92AAAWb0lEQVR4nJWbSZMcx3XHf7lVV6+zAZghdmIhQZCyTEuUKNvhkCWHZPukgy8++ODP46/hkxwO2xdZoYvDcmgN01poUiQIggBhADOD2XurrqrM9KH2XgAqIyamu7oqM9/Lt/zfUuIbf/MPntqQ1qMnDpk4vBR4JXBK5D+Cl4JVwysQNvssnF95HzTnUTNXfha2ek44j5diYa7i+rJ1ROrBeYR1COsW5sS5xv1axYsbdUrglAIyhsh8AkdzM9IuPlss1mDckiFcNq+wHuH8SoYJ5zOi5odecu+S+8T8HqVsTtNYOGfOMsJedH3ZYsJ6VI0Z5RL55/m5VklWc38+n9uBk1A8U7/e+O+zE58jur4fTU0iik0tcG3uoVXDBrIxx/ypeiUahJfS8gK1AvCByCWBkligFPX6WCB+yajTp+eJXiaKXgqE9UuZUBf5ukjX56rrcvF/gTkvYEKpBq5YSy6/b5nOwyIjColwDi2T5VxaZmReJBnLflu6yRrxhc56LRauLYw5MV+Yd8X1lSNnil554i8wSquuv4gIHzRPuH6iIq1vbM6qL7HmBdOXScIXOgjnEGnOgFIk65teYmHLBZa4pPJzMYfzpYHyuiK8Iea6ItxrUWO6aDDnZWPpyeenWxDptWx8rw9dEO+1KAlYOME5hjREN3+2MeaI91KUmGLZvC7fYGkngupQvFR4JRHW4VWT8DrxLzr5ZYRXDCiAwxI8UBCzUi/nxgIjqIivb1I4j4xdecqSptotk4B5cfdKIuOUhbHC8jf3KSsVEIktfyg46pWsFqyJ8/yYZ0xxki+zEyJ2yDitdDpe7V2y/YgGAyqJkL+/8SvmyJmg60SvHMsIeonvbtiGmhsrRLcOUhoMn59nCYHz4r/w+wtEfv53Pc9ZAG9UwyYsG3X9LghUuUiqaZLdVDdGtQ37lsaFBtsNiTYN0aYkbQucAZ9vRziQCeipr/4mDjNJEXHGADlN8Fpm+y3cMRKvQcyWqIeS2T6cA6PxWq6w9wXqeskQqUdQGUSncyslRXna3ijSribtSGYDxWxdEK9BvOawaxbdndHvTWmbnHmiYnpsFdPYcDQM4TigdWwITg1m5GmdOMKjFJm6kiHCOlygEFbgjSqlbP4AMLo8mNUO7yViPy8dInYEx1OQEts2xJsB0YYi2pRE5zyz7ZTehVOubRzzxmCXO+1n7JgTuiLmxHWInCGUSWPOyBnGrsXn8RafTzf55OQ8e0cD0rOA1r6ivduifegIj1P0MCnVwgU5gdYhYzKJyOf0rYp4qDm4ukFZahdW6XxhJKXAdlvE6wGTbc3okmB6JaW3fcbdred8ae0pb4RPuR3ssSljNvNo06BIGDPzjth7khpfk3zbT4N9dsM17vY2+WzrPJ+PN/js/Cana32SpxJnNB1AD6u9ei0gBq9cqRYLw7rMBjTRVkV8YWkbhM6P/JoNFUlfMbyoGd5wdG+d8BeX7/PV3me8FuxxWU/pS0VHBCQ+IMEydBawBKKa1wgaTADoy4jQJGyqEVfMEYfdHh90L/Hb7kWehFt4aYCcCeNMlVbarzwOKKRCzxNejHk345VcyQSvBTbIdDy6APrqmO9c/Yi/2/wZ17QviR75hJmPGDtPguDItjlzIUe2V4q/ESldES+sEYqEgYwYyIgdfcolc8yr7ef8QL3FQy4gU4NMNG3rUZFFJPYLeQq9jPhlnqG8xy6qhpcizxaBDTxb/QnXwwNuaYkRisRb7qeO3XSdI9tjN11jPx7wPO7zeLzO/qgHQMukrLUiNlsTzrVGbJgJG3rMphoxUBHrckJfRnRkQl9m3/e3BpxOQ86GG+ipRM8UMnXIqOZ1lEAgM+tfB0q2hgMWGJBb8oL4Jux0Dd/tpSANJdGWINlKeKV7Rl9O2bMxe7bNe9FNfnJ8i/sn5zg+7ZIODfpUY04FKs4Y5yVEGg7bnntdj++ndNamXFw/4/bgOa91drkeHBCKBCMc/VxirocH3Nla5xc7HaJRm9aJxAwligrQZXt3Gfokjw1yd9gwDQsxf82dFb8XHC2ZpSuMLxzIieLTo3N8373Df4Rv8MHhDgfPB6j9ABWBdgJjAQdmkuUQnan8vhkJ3LEg7QZMtxQPZyYTVWHLU++QEHlF4hV9OeVS+4ReL2Lca5G2MnU0tYP05Ewo6IDMPdolblDY3H8jF06+DkkLsFTgfGk9ZuTpPJXMhuvc0+t8LEFHgs4UzDgjWlpfEitTj9OCpCNQSQZ2vBRYA2omkDNFMmxzf7zD4XaH9BVFdzDjYm7uJxi29IhLrWP64Yxhy5cewAUaHxRRYC4NrYpcgcbLmhcoCCwDlhckHgqDKNI8XWU9MvEEZzkRe6JEdFBLoqYF8fn/fC0VS2Ti0ZHHBgKlBdKCmmUMBM2x6vP5YIPDbo+hM2zKGCMsW3LMUJ+yHk55Yny1bt1Yz6fOpKRIgC5IQMYE98LYoGQYEhk7XCBRkSNwlKlzr7IEaB3aQi4BReo8d1Wtmc2yz4lDhArXEoBEuAxmJx1BOlWMk4CJC0i8IkHkdiDhzI3o6BhEFW1mQZ6q7dkjpnEOgQvGvAAJrsyvUU+DuZIJxcLFcCajfFlqvMgdAg0oW4xUKox1yFSgZoJ4IBCxIEo1idNE3gARJpeuQFi0cCBzRjtKGL50yDxeQGcMWHB1Na4tZ46HejrZFvG5K4MkNbN4KSjQbSPer8X9dX9dga7sHp0nUWWSXQ91SkfN2FQTDL5EigCR1ZmNSSrVyuITma0nBSqPPm3blM81JKDOiC+c5LRNRuAq1RGwoIvLRulS83tV7MoMsg1lpk5tx0ZrwqYaEQqLEWDwHDnN2AcMkxA5UchcrYp4oLF2jgJlnOJCgwtWRYMLG3x5TUDGtoy8ihxcCTuXJDSARVtTZIryzy5UOCNIQ5C9hK3WhC09IvKKdWnpCcOehYfxefaHPfRYZAbWVhImcWUCJpvX1dbQqxMiX4To+VGEnaVUFHNq2cAQdSA1v75IbPnZGUnck8QbngtbZ7zaPmBLjgGIvQcBQxfy8WSH4UmH7qlAz2xli/JUX5mfqO8xsSjrl3mB5fbghYTncbfXsgo7a3m3bDOZ/tXBVj2ntyANUmQ5hHVJei7mrc1d7rafsK2mDL0uA6bPk03unV1AHhhaJ1nSpND50v0V8FdKfKBrafGaF6gHP03w8wXzbrm4u7aqwFL+rIxt/r2JM1bm/aTAhorZQDHZ8WycG/Lu4FPuBntsKkVis/kSLB9NL/Jgf4vwuaR1kq8jBT4QyMiyHMgpZGwRcToPhRe9gLC2GUDMFRrr3MU5fGBI+wE2kCBBRS4LTqZpzuS6PahcrQsN8bpB5UHMbF0z2Rb4WyO+ffke77Qf0sn9/LqE2MPQWX528Cr6gx6Dhw4zcqQdCUjkzBPkUWFJT/7ZBRqvHKxMif2+IydepNlpqyj7KxYtuA25auRqUEqAc6hhRHsY4ULDbCtkdEkxupny9sVn3Gk/oy9SAiEwKDoy4L0Z/PvwD3j05BxrxxCMLGaSYm1e1k+WJE6lLCGyQ0OgmxmhklN2Tnehad2L67k0iHp+3jlklFT5uFnakBIB+KBpC1AKOU0QZ2PslXNEW4rhq47rN/f49rmPeLP1BCOgJbL1Jj7mvyZv8Y/vf43wkxadPYsZpchpzaYUCREpGwZdxinElIzI8wEVsFkFgUviC8LzUy9PtWBQbuhEze2sGgUTXJgBE0mXycWQs2uSzvUTvnHuM74SPiyzSTPv2HOOT5ItfvDsLVoft+k98ZiRW6xqucrrLCuqRNstZgNVIMFasvMFEHglIfPWvhh2rjlByYV7BBKRWNJBi/hKl6M7itkbU757+QFf6z1gW03ZlAEdGXAvGfPz6TW+v/sOj+7tcP6Rp3WWxREukJQrzdcfyN2uUbhAkoaKk5ua6fYSN1hxKdfR2kkDi0ZwGSPmagDlc7mdqDMsUwdHtGk4fk2RvDnhu7c/4jvr/8vdYA+Tn83ExXwYb/Ov+2/z4W+usfaJJDxOEanHKZGlwrUojW0jJa4z3XeBJF7TROuK4e2US9cP0MuSHF94zDNn3uiUbk0u3qMkXktcoEj7AaNLiunrM7598xO+t/Ee180J6xLGjjyd1uf7++/wq/vX2PxQ0Huaoie27EUqijMFIoWqOFJA8nhNM7yomVz07Fw75K8vflDHAct0psig1GFsXV18Di5kmWGpE1/YhIbFVxkYcYHCtTXjnRZn1yXj12PevvE57w4+ZSdPeOxaxW7a5yfj1/jpwQ3u39+h+8DQOnGomUNFFhdIhBXIODe+hbcJdFkJcu3MxU7OK85uO155Y58/277PjdY+urG5FWP+nlXgyLd0wxgWzKwAVp5CbxtsRzNb14wuS9KvDHnn4lP+eONTtvSIiTMc+Q676RoPZhf40dM77N07z+ChpLOXFz9MU2JFkvt86zImKwGBxiuB7QXM1hSTCwK5PeUbFz6jp2bspmuVCtShaiPUnWNEHeXVgUwl5g55OsYHBiElrtfK0OBohohmECfY/g6jSwFHdyF8/YRvXX7Au/37vBbssa2mdKXgcWr56ew2P3j6Js8/OM/mx4LO8xQ9ycCOz9GiTLPgpoj/C4/ilSxjgKSnmZ6TTK+kvHlxj28Ofochwyn6ZfX0+da3eXc5z0AA322XJyESmxm+JMUHBrpthtdCTm9B584J37n6EV/pPuS6OWBbTTEiE/2fT2/y44NbPHm0Rf+ZpPM8xQwtsmZAC72vo70yCeJ8eWBJRxL3waxHvNI+K4kPhEXXDdR8783y0nSB5avwF6hEL9DYtindkBzNMogcBkSXB5y+aji541m7ecS7rzziS53H3G1lSC9B8JvZNr8c3eDHexnx3QeG8LBKo2UJkizgqQOfcrimqnqjsC2Ba3larZS2iklQZfFFz1v/lcTPYf6ScfVoq/asjC1iGiOiGb7bZvLqGgdvGWZfnvD1a4/4y633GaiIK/qIHWU5cYJPki3+7fBtfvnkKvGnAwbPBJ09h5lkQMfn1r7oLpGxxQWqYZPqUaVXEhsqnBY4DVJ4NsyE2+awJKuGBIsTnovclqnIPLjJGeLaBmE96nSaET6J8JtrTK6tsf+HBvflIX9/55d8tfOA6+aEIxuSeMWudfw6uswPD7/ELz67jnkQsvYYwiOLnhSMB2xzGwXxBbH1SLasCRShdwqTSYvncZ+hMwxdyNgHTSNY76qqu7460Q2JySu8oo6n8vKT77ZJL25y8nqHk9egffeYP7n0GXfbTwiEZehMWRd8nGzyo7273H+wQ/uhof/YY8YOFfuM8DyVLhNX5h29lIha+k2O0tIWCOux3Qz1OSNQsSc8kIzDNj9M7/LfW1eYJZrUFtHgvC7Xcf+KUVaPc6MjUoc6OAOlcL2QybUBJ7c0Z3cSbt3a5c/P3+NycIgRKWMfMLYBBsvjZJN/evRHHDzcpPdQ0X3mCI9rRi1PphbEl80buvl7McQsxbeD2oGAmTj8EQgnSZ+HjMIQkWYZZF2crtc5lF1VD2i4yWzmBn6wDuIEd77L8PYaR3cVyRsT3rn6mHfWH3I3fILBMvEtDtMeR7bLfjzgZ/uvcvS7LXrPMh/fOnWoyDUQnopzV1dYewsiyfTdBToXddnwBsVQsUPFhQTRaLWDmhFc2URQcDZ1jd+FY9EDbAwY3xhw8GWJevOUv7p2jxvt51wPDgCY+BYAn0YX+J/jK3zy9AL6Ycj6IwjOHHqWZ4NVZunVbLG5CiijTRHFiF5YuT4pawFXLcHK6s61Wj6gVkKGZsSW1rC1qln/4tl2QLIRcnKjxenr0L9zxJ9efMB319/HYElQDG2b3XSNJ7MN/vPZLQ4ebLL2O8XgcYoZ5fC11kgtp2kD1y8EYbnEiTTAhaYyguXLHaIhEdJ51FyjtpeiZgTniAYalZWFtlPr8C2N7baItlsc39a0v/mc771ynw09YducYrDs6CGJlxymPX58eJtffXyd7n3DKw8snf0p+nhaJU2WhM4FrHaBKguytqWADsKuYQOJawmEJbcVBU7xKOdR41kmvbmqZHT6MiFbCXU9c1oDRDK2VZdVkeFRmajZbovZuRZnVzWjmyl/e+W3fKv3IZE3xF6RoPh1dJlPZ9v84vA69/5vm/CJITzKC6EtRXKpT9LLrLXTWS3RtjKs7wykIbhW1nhh2x4feHxQHJRAtCxKO+xhi3BXM3jkCA8twTDJiCyCNUBGSRmbFBKzGAw5B6oJLryWlWco4vpZig8ymBmd83TOZ/n6Q9cl8Zozm7m447TL87gPQH8wZXTLE11VHAIysCht82k9xlik8Cjp6AYJvWBGR8dstSa0VVx2jPRlBGQ1gU01IvGaf9l7mw/MFTq7ChU79NEY3w5Kyamfej1ZoufBTqnvia18v1GltS0mKmJtr8CGMAhj1vQEg8UIWxZmjbD0VMS6nnDS75A4hZGWdT1hw4wxwpLUTLPJMW9fRhiREghLX03piji/5giFpSN82Vy1axU/b9/kA+VRSVZwLdN1ZR+DbBBevi9AbZTEl/pOpZdSZLG383ibqUDWCA3OeNbCiL6csqXGJF4ReEtHzNjhlAQFISS5GzEixWAz4vLTNMKR5LX0xKuSESavq4fF91q/QVYai3mQnOP+2TnkKGOklwLfDXFBgVE8wlXE15O4Sx1fI/tLUfnxVQu7ymBv2lEkXYFrW/omIhC23DBA7BWBsAxEhKn9Vic0O+2kJHLoTCkV2X9J4hUTqopu5A1jH5B4za8m13jv+CoPH5+nsy+RqcMZSbIRVlmiepZ6rmt0dU6wQHj5g2qa4GNRqoLtBSQdSdoRoHxJ8MSZcoND2yb2quzwyohMSiM58S0iZ8pnh66dNUC4bFuzXGImNmDmNKlXJE4xTgOeRz32hz2GJx3kgclC5j1H6zQvfhiZocckLUPyxsHmXmYxH2AdzJWWizoaWiJUlmC0rSzMBBB5Y9T7vSskXjN0Icdpl+OkwzANGacBqZNM0gDrJdPEEFvFLNHM4mytJNb4VOKdgDhLcxV5GZHmbi7NusqEE8gZ6AjWZmAmnvAkyxcUBRkXSGRkKy9WHOpc+L9UAsQ0RuSxPdAod3ujcDoPMmYec+Zp70om03X++dHXQXu88hkBadYgIVKBcKBikUFYl3eFpRAAToNxWU9Q0eEx/15hdT3vKskDpOpljPzG3EjnpiUzdkVyZi7v6VWtNLbQ0l4Tl0IditBTpg6iXCgiT+tMkLYltpV1jTkjqo6wNNt0RnB+EvOBZlIQ6RFzAtm4L+8vEmkWJTqTQeYs4Ekr9EgtuWNUA9C5QONCVTJOLxCf99I3uF8vY+XRmCQrenop0JPqHeOsb7D+7HJi5oOSZfcW9yz0GeWNWPXhtMR3Da6tG33CRctO/ZqoGXS98GKBrNLZK0fxjpEU2dtfzkOauf76O0Ll+8P5VEX3mEzm3kdoZuHLa8LlKTB8gwnVSxqLqlLfI4CIqxa54j2jwihmrbJJWv64bLysYFLnrCsaE+uRV/78fBpbWo+a2YVaXvMmUTZjzp94UXKHZq+BiNO8A2TFGx9xAtbi4xgfJ2jyFFjZ2aGyQme90aG4Xt9Yeb326kwaVm+cz9ca6q/VqygrasgoQU6TRl5xoWUnf7VlmUTW03ZiGiPipFJlu1z3/HSKj2a4OAFn+X/tswwRQ2UAxQAAAABJRU5ErkJggg==;" vertex="1" parent="1">
          <mxGeometry x="160" y="237" width="64" height="64" as="geometry" />
        </mxCell>
        <mxCell id="6DF6oKiKQpFTNXZrsH50-15" value="" style="shape=image;verticalLabelPosition=bottom;labelBackgroundColor=#ffffff;verticalAlign=top;aspect=fixed;imageAspect=0;image=data:image/png,iVBORw0KGgoAAAANSUhEUgAAAEAAAABACAYAAACqaXHeAAAAOXRFWHRTb2Z0d2FyZQBNYXRwbG90bGliIHZlcnNpb24zLjMuNCwgaHR0cHM6Ly9tYXRwbG90bGliLm9yZy8QVMy6AAAACXBIWXMAAC4jAAAuIwF4pT92AAAbsUlEQVR4nHWbe/BtSXXXP726997n9Xvc3/3duXOHYSbDMEMIyNviES2UsgxCanBMKpZCoXloxECZkkpJNLFKQ2kFq8yjtEKCUdSYRCKSgkikAiZCIjMEAjIBJgzzZGbu3Pfvcc7ZZz+62z96rz7nDHFX/ebcOa/dvfq71vqu71rHfPrR58VFqHiovZkQBTGBG/2UwnjEBJa+YiQdAKtQMLENAHM/AmAiLQDLUCJEAobCeLpo8VGofcGuW3Gl3WG/WHJreZ2JNFgTebQ5x3E/ZmYbduwKj+Fqt0OIBjExf781gS5agG+5h5De10VLFy07dsWpH3HgFnTRsgoFeul3ABTGc9KPcFf8Lgd2ThMKumi53k/ZsSvEBM67Yx71N3G53eFMsWRiG+Z+hI+CNYHCeFahIGCYSMsylPlxFQoOi1OsGfGbv/QXOPuVFdJ6PmcMpvOYCPQBEwLRSVqVCNEaQmU5vmPErT/wDd587gEerC8gJrJjVxz3Yyrp8XH4jAksfcmeqymiz6/r5q0J+b0hGia2ZRUKmuCopMd89OEXx2v9jGM/ZRUdTSiYSMupH2VLV9LlExciI+lYhYKRdHTRpvdGQyU9F1d7TF3DQz90F8RIGBcEJ0gfMI1Pa47p1Ezn8+ajCAgYH4mFhT6AEwiBaIUzP/MUL955eusUl75kYls2Lz0cff2wmHPqR9kQTXAZXSEazIceekU8DSOu97P0BRiaUGxtWjeuX6yLWPqSSvr8nk88+UJueucKf25vvQHSSafDCkQR5NEnMbMZ4XCPaAz2+gnxZI6/61aMDxDIhorGgECoHO54xZ+8Z8LbX3I/y1BSmGRQa8IW1J99qbvUvuBMscyHN5EW88eP3xKvhAn3L+8kRMm+pCe/9BXLUAIwkg4hMvcVlfRcanY5X53wqYt3s/9jBdgE7zBOi4lWEtRDIFSOu3/uQcQExrbLiwfyqfRBeE51xH/6xTdy8+8fgwBhbQh99NOCqz+24s23f4XCeAKGeV9xplhy6kcUxm9BX4106OasohsOr+JaN8X8hz95TQwIjzeHGdJqMYU2gJhIiIaZbTjpR+y6FQduwcf/+msTpGMklo5QWkyEOBhDnrzCKz5xMfscwIFbcLHdY2abbHC99GSeavb50k+9nMmTi/RCSAjCGKJNa4qF5TW/+IV8oqtQ5PXqtedq9mzNKjom0tKEAk96z8j0mH/xx38lignphSjZCD4KYXij3kAt2gTHp568m/M/KcmHRQilRVq/Bf3H37TD99z7GQBqX6yN6BpWodhCweZJKZxrX/CxL7+UF/xCg+l8MrJIjiHRGMLY8cSPBt5y1wP5O3bsKkNf9wZwxi0IUTIKAOTUj1j6KsEilDl66oZ9lBztu2g56Ud88t+9lrPvG+fNEwKy6tKJtz2m7vj6j5S86Z772LErRtLhJDCxLWOb3ChEgzUhp1jdvKbVEA1j2/G9L/sCj7zbpFgASNNh2h7T9kjTIV3guT9v+ehHXsdEWm4tb3DGLagGJI1MQl0XLZe73ezOepkvPn5rfEk54pePb+a6nyYLhYJlKDOcmuAY27TQP3rXy7B1BwFiIcTC4o7qZAyTFvrYvbt87z2/jzUBIXKp3eWW6uj/e+oT2+Q0DCngdtEyko5TP2LRV/z2H7ycu/5LcgdTd/i9Ed3MsTpw2DYSnGF5Xnjr3/1EDuJNKFiFgh27YiLtlrud+hF7bon5p1++J+oC9NJUomg47UfcUh3xyX/05xk9s8zRHCcZmviIiRE/LXndB76Q3Wdro9JmJHXRcuAWXO1mW2mpkj4HsVM/ykg86Ud8/e/cTRg72v2SaA3RAhEwEKwhOENw8D0//jtYIqd+xMQ2meApGjTdF8ZjfuLLb4lqpc1Uoid10o+YuYbPvPs1FPMBriFiukRidOMAoXS8+oNfYulLal8yHnJ0JX1OocoOddNKWnTT19oZ+8WSJjhuKk+42u1Q+7Suse340jtegml8vme3P6KfpFMNRTL6/ILl+9/18Qx3Ge6d0LxGoZiAXCiOOF+cMJE2L6IwnmUoOelHXO+mfOQ/vn578zGRGDPk9+iEMHI8/Ya9bMT9Ysmeq5nYltonKCoRcRLYc3U2zCbVVqOJicyHlFYYz65b0Qfh0XumCXUAfaC8smD81JxikU43OMP0UuCX3/9mJtJubd4Sc2zQ58UjOS1MbENh/FZgeuz0gJvvG3zPR6T1mLoDaxJjc5Iis4/88A9+bAvymjXOFMts4Iltc6ZRf9xE3iaz0+cVLV20vOWN9xHHRTqAEPRGuKMVkycWjC81uKVn/5GOn/v4m2hCgSXmGKNZIAxrkxAl/4/eRPOpk8D4nQVGaWwIRGOIlSWKpH8XljApaA7HfG1xy0Cg+swllr7kRjchYAgYfBTmfbVlJC14JtLmrNMH4cAtMly7aDOPOHrBlOhSAI5OsiGk6XDzlupqjVt4zn8u8PDyXGaNMqDbDkF2R1aI+smpH9GEIldXM9tw/0/8WcLuOPl7jAMC0iJiIYSxS8HIGW79qYfYL5YAmZ3p4meuYSJtTnFj2zGziUiNpGPHrpjZVUbgxDbsulUyYCgzfxATWfiK17/7PvCJEzCkR3wEY1J6XPUURytG13q++Z67eOHo6bSm4aCTMTsudXuIDNFWjRAwPFEfcK2bUt5IC46VTadtDGFSgiSKK/W6DnjR7OIWiwQImHxqq1BwtZtR+8QxtOjas3V2wRCFiW0YmZ4du6KSjsPilAO3yK7hjE/GOF1gQsjxwHR9ckmfqkulzvW5gp/8z2/LAXHT9UbSIfOhUgoYQkwQPazmPPyWc9hlB8NNNkmOqbt1ICIZ4vqgIXTRZja39OUa5rZBTMRJ4uinfsT1fsoylFhiRkfy+ZDRoymsMJ4Dt+Cm8pTbqut89ccv0J0Z46cloSqI4xL6QByt44k7aphcbDh8oOdCcbRV5yhSZelLlr7ER8mn1QchHO6ljTc+p53oUu6PhU0GaTpM43n03hl9kMwUl35NorpoaYLjuJ/kiK4+GTDZEDf66RB7hBv9NBlHGerwuAoFZ9yCq/2Mv/edv4uvBD8t6M6M6PZH+N2KMC6IpUuldUxB2809v/Cv7wVIBV4omfsRp36EU26ui3YSePAtF+DQrOvy4TJ9gBhTyepsYn6V5d43fpaJtJz0o8HXzEZF2dOR/j33FTPb0ATHyHbZ9Q7cIkNUH5WOKxmCRJVv9FOEmMSONuBLIYpBfCSUgukjJkSefe1/o+HW8jqPN4f59CvpEN18gl5SXbrbDgemZVJhM+T5WNgh9Q0xwQmmSdCc+wonASdrg41tl6u7K+1O9mPNEvp36kcIMa9DKbP+rTZosj5e66YsbyqRLiI+Jn7SDxs3a9ElisEE8KXwz37vrxIw3FZeo4uWuR8hkHJvJT0hGn71N96ANH0qckglJ5DSYJ+YX06FTrDHi7yoPgh9EMRExraj9kWO6ufK0yyf6bUpaFgTmA16o25UJS3VIY77cX7ubLHg0nc3CeZdwHZrw0djiGLwlWBXPdEZTITn/0rKRFf7nXTgRESDVRNSiXj7zz6A8THpdUPupw+Z9ECqy6Xukkv4pMMBOAmIiYhJstnYdkP036GLlj5IrjNO/WhLB9BNazBUsqTPKw9QRAC87SWfwygt7yO28ZgQEZ+M4VY+leldgBDp9opcjyx9ScAgfUj0tAmOm6tj4t235RSST37YdBIz1/5l+sC1P/cc6o2gp5vXSwOeNck9umgzEVKZCthKxXrVvsjGBfI6lR8cujnuuEl6o0/xSVqf4kAXCFZQwLnaQ4Cf+dQbCRj2XJ0QICZyZiAwv/7oK5PyohXeEANMjJn3A8TSpT8nXHkVTF2T6aqekPrxRNoM4Ym07NgVTkJG3Mw1WWgtjM/Pq97YBJcLKDXwRFJ9canbxdRtOhifgp80fTIGJGN0ARMioRCkC9z54TYbP2CSAa60O/TRIh85m9jdQDHTbof0t3nyXYoHoXI890XPpI3YJqdChfB8Q09UKqxG2QyESpkzgYqGJjiutjN23SrpCoOB+yDMfZXjh1nUSU43rLlJiNi6+1OzgTtuOHTzdUUIcK485aBYsPdIw/LCiPmdM/qdCj+rUk4dTp3eZ2VGg+N3nHmGwni+Nr+ZmWu2BA8NrKd+lP1WH9UtNjV6a5JqpJs9KNbNDX1PF+1WcRRPThMxi2lNWrAhkuJDSEHbLjukj7QH4yz5+Si4O6orXO13kkTcB2w7WHpiAYurBdMlodN1PqFjUGuBrPTcPrn+LdK0kqBdt9p6TpUiIcJwupsqrqZO/bwa86ibZOMtQgV0cOvN6TBCwATW3CUEpE0otYP72mWHnxY8tjrLmWKZXNOTqq89u6Q5LImWtMEheARr6PYKfGVpb5oSJgXRpiZGt1vmhT5bjRVi1uE3T1uD4DKUOSVqjMhaxOAOighNj2PbUg3ZQQbF6vQFZ4iVTQcyuIJmK0Wv8SFpGD5g657/9cTdGY0SBl7uEaSNGA/Sx3zCoRQIJNpZCs1BiZ8W9LsVrvb4oYZIrpf+rSnsbJF0hGvdNJMcZZvAVmmspTKQNzwbVKplKLMh9LOV9FTSU58VopWkT+qhFcNzBhB9MqGBEImf32Ppy4REDVJXux18JUQL0gSiM0gfkTZgm4D4SBSDbRL97EeWUAoj0+fF7Lk6++dIOq5100Hl6aikZ9FX7Ll6K+LvutW3GELV6eVGsFOZvg/Coq9yidwcmEzPpfXpsQs5JkBq0EBihYjh8IFU89zoJjj1s5FLUVP6NacOzkA0SBcGa5Jha0JkdXYd0HSRqsmf+lH2/fPFCVf7GdONfsBqCGbWBJahzL2CJrhv6fcpr1BEOGmyPhBsWovxkVAOAkkfUoNmeD4RuSEoNh5pUxo+WyxwhfHMbMPldif5fVj7v7QBxBCqtWKkr0VrmFxsWEWXuzKqwEJSgAMmyeLdbiq5o6FjnerExK2uDqwlMRVmNhnh5XY3ZwtVreoLniiGMErwBtYp3BhCaaEc6HznCZN1oF6GMiEgCxeaNiNEZ4jBpBgAqdDYiHPGR1aHqZZvBmZ24BYch3HuMG1yeUWKpiCdCbjY7m2V4fOQiqo+CGeKJcf9mD1XJ52imOdAqgYub1j8yBFliF2bhzT8xygCXHrBNoFdt0pjAGfcgqUvedHkKXyZ5C1M2nB0ZsirIW9a2pANhElQ9zHpd8d+TVtVavdDo2U1KEB6ddFy7Mc54BXG4yRktxnbdPLaP9wcktDP+yiEMsnydrXReo9kEhTFpKbts6rFJrjUk7jRT6mkZyINJoIvDaE0+JEywfQQSjMML0h2FeNTH25TV4R1dbcM5RYCtC7QdtkmzPVPY4xyBXUjPfmAyekSoLphkibg1j1D0yfxdtMIURKafWU5ujMF3JltcHqzP5w/D7cMYNIHJISUDWz6sLRx6wtNiARrmEiiwDoRoo0HPa3N6k1dQ0ygGpqWlXS5HacI2Qyqm9+lfq8FlzUBuwLpUoYKkjKXsYMbRBAf8IVWsSTK7FOs6aJFfBSEyJ6rU8UUE9SJiQNEZ4YSM91Ei47kErAMFWObFqPtNYWnLhrIs0WQdD7tRocozOwqnfQGzDeNIMTcr1B6DcOEyKUw1PtpjdJq9RqzLmBCig+aFa6/NK57Dgq5LlrsosuWi9ZkQ0RrCEVyjVAlowD4Kj2qr+uCVfjQEz9wC0amZ2KboRcYtkZZdChLmxerUGyVxUB2BZXZtFos5x4GNEKS69XXt0r3OKR1MbzyVQ9lI4uezkRarr94loKGSRb0Y0kw6pMhZOjCqhsEZ/ja4gLX+2nejPrybIMPHPsxx37M3I+4rbqeJPFnDUfo48yucgwJmBwXFBFzX2WK3EVLMe+J1uQ14lPpq8qVoiEMZCgUhrtnlwnRMPcVkkZekjLLX7uWTn1AgZv77OtrbhCzkdwq8NDxua2his1LjaEbFWIOmJaYKzJY5/25H+U22mb8UEo8G5onuck6CDaqA4bSpi5xabfT9kDy3CIx0KNuwjfrM4i2pEbS8X3f9oX8IV8JoZR1HFAfCutUSISL91/IYocSFIWzpkhdsCLCD7NIm8qRuo/K5tq9UeNo5A+YzBjPFgtk1acguHHa4teyWDQJqdJ63GlDeWVB7UsK8bxw9szgAkPb6nK7S3VlRSgS5wfyxtXvgZQiB+Jx4bN9nifSqk+/c3NY6dmTILrJTeRsDkhA6geoO+jndHgiD1dOy6RYhTi0y0wOgCZE7KqnvLHCLlMP49orD1j4krG0XGp3ER2OTFS25bF7ZlRX2ySJR0CSv7ulz8NPmnakCRSL1Mba7P930eKHfL25MWtCDpgK8T23zFxBA+CmUfQxd4qGgihNqnX0Y0soEgeIhSA+IE1q3UvdJ4ms8UN3q+fM334CN2SspEkMC9Prnfd+nPp8tdYEQkJBP7I5AGIYig+h3S0QHUHbmP7QGcM/zQUUzl20HPeTLHKqK6r+p8RHeweaEse2Y2JbvnR6Wwp4mvK0URoibt5ij2vkpF630a3wZ/afppDUKQ4YRBenzOxrywtMnmkSe7JpSBGz/jN+oJTKKkPkD4++jev9NLO0mV3lE1PWZ03IPq0oURSoy2hKvqk83YL89X4KpKCqrvP0ap9PfvXbE8yH7nVx2uKu1dijJWaxVqG0g6wCyeYlemLKt3fcioP3PYFt1zFAAx5hoJVuoMuVEJzh8V+6O6WUjUiuG1X9v4uWq93OFt3d5PabbLGLlj233HIbfU0zy66ruf1DkrSKxmPnLfbqSeoa9z79tV3afIyE0nHHBx5JgszQKs+NEYWjlqYv3/0m5VFHHPwfQ2o/QZ7elDbilqkUHd1I5EQ3prDfHIrQQYhqY97w0M3zKW+2r4/7cR7K1gCrMWLpS+Z9xVE3YfL4Me64wd5YIid16lWWBbFw6a8sUhuvsMjD30SIW627JjgkxKTAbAadUz/Cvfdy2jzkajAjwqxFCNsEfGVSD1/WmrvCFtajNxobtOl57MdZ6dlsgFbSswoFtS+yMTdZYBctr9v7BhiDLJvUvdI02PVbEj4+TbQ971OJip/2aewujf61qS+giz7pR1mFfeHuM+x+KWn+4hMZki5g25DK4k65d8DVgV/5t9+VaO5GkyMBJuZ0pgZW1OWMMSBEBnK0lszWE10n/Ygr7Q7XuzTL+LMPvgG6YUDDbDIekzrXziYUjArk4W/mwApkiU4BTR/Ww0x6MzGRV/3mN3Cr1AuQLqlD/cjm2sCXkkTHCLuP9dw5upwZ32beV1/f2QiO+nwT3Hq8fSifNWbsF0vmvsr/ry5W+4Jb/mXaJFbScISzhN0JcTJK80vDHCPAPfc9nLXKcR7TSTxFal/gJMlVKkymGZ6GG92ER39wEEaGdCg+UUoT1xlB54Te9/nvyhuodHh5yAybzZHNcTwxkXlf5U7ytXaWhqqi4Xo3pQmORV/Ra80QLHdPL2HnDVEkD0SE6XrwynR93vyDf3/GlxfPpZKe/WKZJXWdi5AQU0s79eFSvd0H4VK7S2E8r77jMYJN5aaJcci5a8RFAVunhuQdHzSZqWnE18ywGRTnvsrcHtZd5donfUAN4zYGGrtgccbTR+H997+eMK3yvILOMoSRI5QpABIjcuOUv/Syr6ZobwJH3YRK+tQGNJEb3SQNSQFD66nLUFEkHFZzvuOfP0D51DG27nM2UJdIGvwgl4+ED973nYykY9FXucGhzRPtDdR+/WMHNfi2WxRcb6db43u7rqaPlrHteOE/eWJohyWV1wwDEoSYRnjGBebpq3z7f3+KQvy6pjAhTbBKS+3LZAi1tvbkVGyY2obaF+lNRF7xoa9jH76I6QJu0eeiSA0SBYhw+0dhz9aMbUsTHLVP02E6JLn0JWfLed7Y5kC2CioBkyL08OMKRacQ+Z9feRHx5rOpXd/2ieVpexxyk/Q5v7WkDiU7w7hdupfkIepKOpzxiJM0mbHZs1dDdNEyHnL3UTfheR8/obgyzyNyMhijmPfYlcetPNJF/tt7/zJiIpX0WxF3PjQ01Oc1UOYiyARClOGefW6mLAbev18secHPLNddYGMwqy5TXW2OjH/+CmPbMpaW035EGFKpImFstZ0niQdo1Fdf1SEEXVwdysE9Ai/6tYcpHruM6dJvBLZybkyuUZ56fuOBV2y5k6bXwvg8eq8uoX45tt1w8kmiU3S4YVb4i999G6beaJrEmDKBuuVJzZ0feJibx6fDeF1kaps8f6wkSH+LUEmX0qC+oHN8IUr203pYZDOMsNW+5MW/9TTt2VFiWHWPXbTYukslZxewdeDWDzs+e/mOPAWic0M65aH30wXdUh1tTZmswvALEwxniwWf/aFXEvZ3iJMqn34sbB7XtTcWvO7DX00nPKBWkaxCqq5DTMwHIZuL6UNSWaauGUbWC3ZdzY5bMXVN9s8QDS//6S/yyL3Tte42kEVpfarBj3vcvzrgf/z662hCwWKgr5eanYyw2hec9OOc52e2yaLnST9iYlu+euNmPvMPXpMivf4YS9adH5zw9F/c4/b/+gyX250h9hR5P3rAeuqKOD0I8wOf+1txv1gOUxnpBmfLeZ7535za1C9LzcmQffsrb9gl3HlrHq+JlcX0AT8tU3uqEN70b36Pi+0eIRqOukmy/vAdYiKLvsqB86gbs1/UfOOtt+PPTNJvCc3Q5u4T7TWdx1w/5uW//RQj6Xim2aMJjkI84yHrqMvputUgGp+a4DA/+kffF58dJTcvNYr25ZXTh4HDj6XlqJvw6Ueez13vXa5LzpiGl3XCrN+rKG7UPPiuKf/wtb/DE80BR92E89VJ/nntSydP8J5ffTu3/m6q/uyyS9FdZOu3h+bpq5z/2AofDTPXZr6QUpswHTKI0ul1Gly7nO7ZvP3+7486iqIpceErxtLy1Gqfg3KZy0c1RDNocoVs0NqQhiQ+8+idPP8dj8Et5wcDpPfEwg2ipctNSuOTcUwzoGZjIk0hbtqeWDpM2zO/a58X/OOv0EdJrbNgGdt2QE+KL/qaXkp9nYSBaKWT1/2YH/nC34ibp1lv/KpKb6CW1DSlRkhWL6hsn98P0EfhsJzzBz/9as58+jHC+YP8O2GGcTYGtgak59zGzGDXE8sC03bEccm59z/FzLXM+5LdIRbpzFDAUPuCHbeikp6n6nRoz76mrsmuu7kf847PvzWuSUva/K6r0zo2BItdt6L2xbe4AaS8Wg/DlhpxC/F0wdJHwUfD3dPL/Pv//Xqe/2srzP/5v8hohJw/lxBiDP7KVey5Q77+rtv4m2/8NE/WZ3IzpLI9XUiDkrUv8glrcZRI2/rgal/kIK7G0nWObcflZicjyPzw598W531JJX4gHyl96IeUCWZIDZvVAKbuctKPGdt2i75uoqrxLgcfPTVn1tE5TYvUWwgEBv5vtxqllXRb79Pv3nV14vu2X6s+JgXtNQIi+8WSo25CIZ7/BwXugQefKHWmAAAAAElFTkSuQmCC;" vertex="1" parent="1">
          <mxGeometry x="160" y="157" width="64" height="64" as="geometry" />
        </mxCell>
        <mxCell id="6DF6oKiKQpFTNXZrsH50-16" value="原图" style="text;html=1;align=center;verticalAlign=middle;resizable=0;points=[];autosize=1;" vertex="1" parent="1">
          <mxGeometry x="172" y="381" width="40" height="20" as="geometry" />
        </mxCell>
      </root>
    </mxGraphModel>
  </diagram>
</mxfile>
